<svg id="Layer_1" data-name="Layer 1" xmlns="http://www.w3.org/2000/svg" viewBox="0 0 178.16 186.03"><defs><style>.cls-1{fill:#231f20;}</style></defs><path class="cls-1" d="M363.39,345.92v-3.37c15.74-2.25,19.95-4.5,16.3-16.3-3.37-11.8-9.83-29.23-18-52H304.1c-6.18,17.42-10.68,31.47-14.89,44.4-6.18,18.83-3.66,21.92,17.7,23.89v3.37H251v-3.37c16.58-1.69,20.51-5.06,30.07-29.79l59.29-151.18,4.5-1.69c17.7,50.58,35.69,101.73,54.51,153.43,9,24.73,12.93,27.54,29.79,29.23v3.37ZM334.73,194.17h-.56c-9.55,24.17-18.83,49.74-27.26,72.5h52.55Z" transform="translate(-250.99 -159.89)"/></svg>