<?xml version="1.0" encoding="utf-8"?>
<!-- Generator: Adobe Illustrator 24.3.0, SVG Export Plug-In . SVG Version: 6.00 Build 0)  -->
<svg version="1.1" id="Layer_1" xmlns="http://www.w3.org/2000/svg" xmlns:xlink="http://www.w3.org/1999/xlink" x="0px" y="0px"
	 viewBox="0 0 1565.2 2697.3" style="enable-background:new 0 0 1565.2 2697.3;" xml:space="preserve">
<style type="text/css">
	.st0{fill:#F2BB2C;}
	.st1{fill:#6AC8BD;}
	.st2{fill:#B25BE8;}
	.st3{fill:none;}
</style>
<path class="st0" d="M1305.5,1661.5v-14.3c82.9-10.4,88.1-20.7,88.1-138.7l-3.9-526.2h-5.2l-244.9,666.1h-20.7L885.6,1007H883
	l-13,320.1c-3.9,110.2-5.2,187.9-3.9,224.2c2.6,75.2,18.2,89.4,102.4,95.9v14.3H719.7v-14.3c73.9-6.5,86.8-24.6,95.9-76.5
	c6.5-38.9,13-129.6,20.7-246.2l18.1-295.5c10.4-151.6,3.9-169.8-98.5-180.1v-14.2h193.1l234.6,601.3l230.7-601.3h195.7v14.3
	c-99.8,10.4-105,23.3-102.4,138.7l14.3,519.7c3.9,117.9,10.4,129.6,97.2,140v14.3L1305.5,1661.5z"/>
<path class="st1" d="M481.4,851v-15.6c72.6-10.4,92-20.7,75.2-75.2c-15.5-54.4-45.4-134.8-83-239.8H207.9
	c-28.5,80.3-49.2,145.2-68.7,204.8c-28.5,86.8-16.9,101.1,81.6,110.2V851H-37v-15.6c76.5-7.8,94.6-23.3,138.7-137.4L375.1,0.8
	L395.9-7c81.6,233.3,164.6,469.2,251.4,707.6c41.5,114,59.6,127,137.4,134.8V851H481.4z M349.2,151.1h-2.6
	c-44.1,111.5-86.9,229.4-125.7,334.4h242.4L349.2,151.1z"/>
<path class="st2" d="M1215.1,2697.3c-57.7,0.7-120.1-9.1-158.4-21.2c-38.3-10.8-131.6-61.1-281.7-178.1
	c-67.3-4.6-171.5-36.9-244-114.1c-73.7-74.7-125.4-185.4-123.9-315c2.6-239.7,157.7-453.2,420.9-450.3
	c207.9,2.3,388.7,176.7,385.8,439.8c-2.5,228.1-136.4,374.4-277.5,419.4c73.9,56.6,183.7,131.6,290,186L1215.1,2697.3z
	 M856.4,2412.1c11.9,9.2,23.9,17.1,34.6,26.3c91.7-27.5,183-139.3,185.4-347.9c2.9-263.1-118-416.1-277.8-417.8
	c-133.4-1.5-251.4,125.5-254,362.7c-2.4,213.8,94.5,371.7,227.5,405.6L856.4,2412.1z"/>
<g>
	<path class="st2" d="M1018.8,1009.8l0.7-0.3c2.1,4.2,2.8,4.4,7.5,2.5l23.5-9.4c4.8-1.9,5.1-2.6,3.7-7l0.7-0.3l5.6,14l-0.7,0.3
		c-2.1-4.3-2.8-4.5-7.6-2.6l-23.5,9.4c-4.8,1.9-5.1,2.6-3.7,7.1l-0.7,0.3L1018.8,1009.8z"/>
	<path class="st2" d="M1031.3,1041l0.7-0.3c1.7,3.3,2.3,3.6,6.7,1.8l9.4-3.8c3.6-1.5,6.1-3.7,4.5-7.7c-0.9-2.1-3.2-3.9-5.2-4.8
		l-13.7,5.5c-3.8,1.6-4.1,2.1-3.1,5.3l-0.7,0.3l-4.7-11.6l0.7-0.3c1.8,3.5,2.4,3.8,6.3,2.2l12.1-4.9c3.4-1.4,3.6-1.8,3.1-4.9
		l0.5-0.2c1.5,2.3,3.2,4.4,5.2,6.3l-4.5,1.8c1.3,0.8,2.8,1.8,4.3,2.8c1.7,1.2,2.7,2.1,3.3,3.6c1.7,4.3-0.3,8-5.4,10.1l-11,4.4
		c-3.9,1.6-4.2,2-3.3,5.1l-0.7,0.3L1031.3,1041z"/>
	<path class="st2" d="M1048.5,1079.7c-1.5-2.5-3.3-4.9-5.3-7.1l3.7-1.5l-3.3-2.5c-2.3-1.8-3.2-2.9-3.5-3.7c-1.7-4.2,0-11.5,7.6-14.5
		c7.5-2.8,16,0.9,19,8.3c0.6,1.3,0.9,2.6,1,4l9.6-3.8c3.6-1.4,3.8-1.9,2.6-5.8l0.5-0.2c1.5,2.6,3.2,5,5.2,7.3l-34.4,13.9
		c-2.8,1.1-3.2,1.5-2.6,3.7l0.4,1.8L1048.5,1079.7z M1063.9,1064.2c1.4-2,1.7-4.6,0.7-6.9c-1.2-2.9-5.5-6.3-13.6-3
		c-6.7,2.7-8.6,8-7.1,11.8c0.8,1.9,2.2,3.4,4,4.4L1063.9,1064.2z"/>
	<path class="st2" d="M1047.9,1082.3l0.7-0.3c1.7,3.1,2.2,3.4,6.1,1.9l12.2-4.9c3.4-1.4,3.6-1.8,3-5l0.6-0.3
		c1.4,2.3,3.1,4.5,5.1,6.4l-19.3,7.8c-3.8,1.6-4.1,2.1-3,5.6l-0.7,0.3L1047.9,1082.3z M1085.8,1073.4c0.5,1.3-0.1,2.7-1.4,3.1
		c0,0,0,0,0,0l0,0c-1.3,0.5-2.7-0.2-3.1-1.5c-0.5-1.3,0.2-2.7,1.5-3.1C1084,1071.6,1085.3,1072.2,1085.8,1073.4L1085.8,1073.4z"/>
	<path class="st2" d="M1085.9,1110c-1.5-2.5-2.1-2.8-6.4-2.9c-4.7-0.1-13.1-0.3-22.4,0l-0.3-0.8c5.7-5.1,11.1-10.2,16.6-15.4
		c2.8-2.6,3.1-2.9,2.4-6.1l0.7-0.3l4.3,10.6l-0.7,0.3c-1.6-2.7-2.2-2.5-4.2-0.8c-3.6,3.2-8.4,7.6-12.2,11.2c6,0.1,11.7-0.2,16-0.5
		c3.2-0.3,3.7-0.9,2.7-4.3l0.7-0.3l3.7,9.1L1085.9,1110z"/>
	<path class="st2" d="M1063,1119.8l0.7-0.3c1.7,3.1,2.2,3.4,6.1,1.9l12.2-4.9c3.4-1.4,3.6-1.8,3-5l0.6-0.3c1.4,2.3,3.1,4.5,5.1,6.4
		l-19.3,7.8c-3.8,1.6-4.1,2.1-3,5.6l-0.7,0.3L1063,1119.8z M1100.9,1111c0.5,1.3-0.1,2.7-1.4,3.1c0,0,0,0,0,0l0,0
		c-1.3,0.5-2.7-0.2-3.1-1.5c-0.5-1.3,0.2-2.7,1.5-3.1C1099.1,1109.1,1100.4,1109.7,1100.9,1111L1100.9,1111z"/>
	<path class="st2" d="M1080.2,1158.5c-1.5-2.5-3.3-4.9-5.3-7.1l3.7-1.5l-3.3-2.5c-2.3-1.8-3.2-2.9-3.5-3.7c-1.7-4.2,0-11.5,7.6-14.5
		c7.5-2.8,16,0.9,19,8.3c0.6,1.3,0.9,2.6,1,4l9.6-3.9c3.6-1.4,3.8-1.9,2.6-5.8l0.5-0.2c1.5,2.6,3.2,5,5.2,7.3l-34.4,13.8
		c-2.8,1.1-3.2,1.5-2.6,3.7l0.5,1.8L1080.2,1158.5z M1095.6,1143.1c1.4-2,1.7-4.6,0.7-6.9c-1.2-3-5.5-6.3-13.6-3
		c-6.7,2.7-8.6,8-7.1,11.8c0.8,1.9,2.2,3.4,4,4.4L1095.6,1143.1z"/>
	<path class="st2" d="M1090.9,1185.5c-0.7-1.2-1.5-2.4-2.5-3.5c-0.9-1.3-1.9-2.4-2.5-3.1l0.2-0.5l4.2-1.7c-1.6-0.8-3.2-1.8-4.7-2.8
		c-1.4-0.9-2.4-2.1-3.1-3.6c-1.5-3.7-0.5-7.4,5.1-9.7l11.9-4.8c2.7-1.1,2.9-1.6,2.6-3.3l-0.2-1.4l0.6-0.2c0.5,1,1.1,2.2,1.8,3.5
		c0.6,1.2,1.3,2.4,2.1,3.5c-1.3,0.4-3.2,1.1-7.7,2.9l-7.8,3.1c-5,2-5.5,4.8-4.5,7.3c1,2.3,2.9,4.1,5.2,5l13.8-5.5
		c2.7-1.1,2.9-1.8,2.5-3.7l-0.4-1.9l0.6-0.2c0.7,1.5,1.4,2.9,2.1,4.3c0.6,1.2,1.3,2.3,2.1,3.4l-18.8,7.6c-2.7,1.1-2.9,1.7-2.3,3.8
		l0.4,1.4L1090.9,1185.5z"/>
	<path class="st2" d="M1096.8,1205.6c-0.4-1-0.4-2.2,0-3.2c0.5-0.9,1.2-1.7,2-2.2c-2.2-1.4-5.6-3.5-6.1-4.7c-1.4-3.5,0.3-7.5,3.8-9
		c2.6-1,4.7-0.3,6.8,2.1c2.3,2.6,5.2,5.9,6.9,6.9l1.4-0.6c4.4-1.8,6-4.5,4.9-7.4c-0.3-0.9-1.1-1.7-2-2c-1.4-0.4-2.9-0.5-4.4-0.2
		c-1,0.1-1.5-0.1-1.8-0.8c-0.4-1.2,0.2-2.5,1.3-3c0.7-0.3,1.4,0.1,2.6,0.8c2.7,1.8,5.1,3.9,7.1,6.5c0.6,1.5,0.7,3.1,0.3,4.7
		c-0.9,2.6-2.9,4-5.9,5.2l-10.6,4.3c-2.3,0.9-2.8,2.2-2.4,3.3c0.3,0.7,0.7,1.2,1.4,1.6l-0.6,0.7L1096.8,1205.6z M1109.1,1196
		c-1-0.8-3.3-3-4.4-3.9c-1.8-1.7-3.4-2.5-5.5-1.6c-2.4,0.8-3.7,3.3-2.9,5.7c0,0,0,0,0,0c0,0,0,0.1,0,0.1c0.7,1.5,2,2.7,3.5,3.4
		L1109.1,1196z"/>
	<path class="st2" d="M1099.5,1210.6l0.7-0.3c1.7,3.2,2.2,3.4,6.1,1.9l28-11.3c3.9-1.6,4-1.9,3-5.4l0.5-0.2c1.4,2.4,3.1,4.7,5,6.8
		l-34.9,14c-3.8,1.5-4.1,2.1-3.1,5.6l-0.7,0.3L1099.5,1210.6z"/>
	<path class="st2" d="M1121.4,1265.1l0.7-0.3c2.3,4.2,2.7,4.3,8.6,1.9l23.4-9.7l-0.1-0.2l-36.3-1.2l-0.2-0.6l24.9-24.9v-0.1
		l-16.2,5.5c-4.2,1.4-7.3,2.6-10,3.7c-3,1.3-2.9,2.5-1.9,6.3l-0.7,0.3l-4.7-11.7l0.7-0.3c1.7,3.2,3,3.7,5.3,3.2
		c2.3-0.5,4.7-1.2,10.7-3l12.1-3.9c8.3-2.8,8.7-3.4,7.3-8.6l0.7-0.3l3.2,8.1l-23.8,24.9l34.4,1.6l3.3,8.2l-0.7,0.3
		c-2.5-4.6-3-4.9-8.6-2.5l-21.3,9.2c-5.8,2.5-6.1,2.8-4.7,7.8l-0.7,0.3L1121.4,1265.1z"/>
</g>
<g>
	<path class="st2" d="M498.2,270.3l0.7-0.2c1.7,3.9,2.4,4.1,7.3,2.4l23.9-8.4c4.9-1.7,5.2-2.3,4.2-6.4l0.7-0.2l4.5,12.9l-0.7,0.2
		c-1.8-4-2.4-4.2-7.3-2.5l-23.9,8.3c-4.9,1.7-5.2,2.3-4.1,6.5l-0.7,0.2L498.2,270.3z"/>
	<path class="st2" d="M508.3,299.2l0.7-0.2c1.4,3,2,3.3,6.5,1.8l9.5-3.3c3.7-1.3,6.3-3.4,5-7c-0.7-2-2.9-3.6-4.8-4.5l-13.9,4.9
		c-3.9,1.4-4.2,1.9-3.5,4.8l-0.7,0.2l-3.7-10.7l0.7-0.2c1.5,3.2,2.1,3.5,6,2.1l12.3-4.3c3.5-1.2,3.6-1.6,3.4-4.5l0.6-0.2
		c1.3,2.1,2.9,4.1,4.7,5.8l-4.6,1.6c1.2,0.7,2.7,1.7,4,2.6c1.6,1.1,2.5,2,3,3.4c1.4,4.1-0.8,7.4-6.1,9.2l-11.2,3.9
		c-4,1.4-4.3,1.8-3.7,4.6l-0.7,0.2L508.3,299.2z"/>
	<path class="st2" d="M522.4,335c-1.3-2.4-2.9-4.6-4.7-6.6l3.8-1.3l-3.1-2.3c-2.2-1.7-2.9-2.7-3.2-3.5c-1.4-3.9,0.9-10.5,8.6-13.2
		c7.7-2.7,15.8,1.1,18.2,7.9c0.5,1.2,0.7,2.4,0.7,3.7l9.7-3.4c3.6-1.3,3.9-1.7,3-5.3l0.5-0.2c1.3,2.4,2.8,4.7,4.6,6.8l-35,12.3
		c-2.9,1-3.3,1.4-2.9,3.4l0.3,1.6L522.4,335z M538.8,321c1.6-1.7,2-4.2,1.2-6.3c-1-2.7-5-5.8-13.2-3c-6.8,2.4-9.1,7.3-7.9,10.8
		c0.7,1.8,2,3.2,3.7,4.2L538.8,321z"/>
	<path class="st2" d="M521.7,337.4l0.7-0.2c1.4,2.9,1.9,3.2,5.9,1.8l12.4-4.3c3.5-1.2,3.7-1.6,3.4-4.5l0.6-0.2
		c1.2,2.2,2.8,4.2,4.5,5.9l-19.7,6.9c-3.9,1.4-4.2,1.8-3.4,5.1l-0.7,0.2L521.7,337.4z M559.7,329.8c0.4,1.2-0.3,2.5-1.6,2.9
		c0,0,0,0,0,0l-0.1,0c-1.1,0.6-2.4,0.2-3-0.9c-0.6-1.1-0.2-2.4,0.9-3c0,0,0,0,0.1,0c0.2-0.1,0.4-0.2,0.6-0.2
		C557.8,328.1,559.2,328.6,559.7,329.8L559.7,329.8z"/>
	<path class="st2" d="M557.2,363.4c-1.3-2.3-1.9-2.6-6.1-2.8c-4.6-0.2-12.9-0.5-22.1-0.3l-0.3-0.8c6-4.6,11.7-9.2,17.5-14
		c2.9-2.4,3.3-2.6,2.8-5.6l0.7-0.2l3.4,9.9l-0.7,0.2c-1.4-2.5-2-2.4-4.1-0.8c-3.8,2.9-8.8,6.9-12.9,10.1c5.9,0.1,11.6,0,15.8-0.3
		c3.2-0.2,3.7-0.8,3-3.9l0.7-0.2l3,8.5L557.2,363.4z"/>
	<path class="st2" d="M533.8,372.1l0.7-0.2c1.4,2.9,1.9,3.2,5.9,1.8l12.4-4.3c3.5-1.2,3.7-1.6,3.4-4.5l0.6-0.2
		c1.2,2.2,2.8,4.2,4.6,5.9l-19.7,6.9c-3.9,1.4-4.2,1.8-3.4,5.1l-0.7,0.2L533.8,372.1z M571.9,364.5c0.4,1.2-0.3,2.5-1.5,2.9
		c0,0,0,0,0,0l-0.1,0c-1.2,0.5-2.6-0.1-3.1-1.3c0,0,0,0,0,0l0,0c-0.3-1.4,0.7-2.7,2-3C570.2,363,571.3,363.5,571.9,364.5
		L571.9,364.5z"/>
	<path class="st2" d="M548,408c-1.3-2.4-2.9-4.6-4.7-6.6l3.8-1.3l-3.1-2.3c-2.2-1.7-2.9-2.7-3.2-3.5c-1.4-3.9,0.9-10.6,8.6-13.2
		s15.8,1.1,18.2,7.9c0.5,1.2,0.7,2.4,0.7,3.7l9.7-3.4c3.6-1.3,3.9-1.7,3-5.3l0.5-0.2c1.3,2.4,2.8,4.7,4.6,6.8l-35,12.2
		c-2.9,1-3.3,1.4-2.9,3.4l0.3,1.6L548,408z M564.4,394c1.6-1.7,2-4.2,1.2-6.3c-1-2.7-5-5.8-13.2-3c-6.8,2.4-9.1,7.3-7.9,10.8
		c0.7,1.8,2,3.2,3.7,4.2L564.4,394z"/>
	<path class="st2" d="M556.6,433c-0.6-1.2-1.4-2.3-2.2-3.3c-0.8-1.2-1.7-2.2-2.2-2.9l0.2-0.4l4.3-1.5c-1.5-0.8-3-1.7-4.4-2.7
		c-1.3-0.8-2.3-2-2.9-3.4c-1.2-3.4,0.1-6.9,5.7-8.8l12.1-4.2c2.8-1,3-1.4,2.8-3l-0.1-1.3l0.6-0.2c0.4,0.9,1,2,1.5,3.2
		c0.5,1.1,1.2,2.2,1.9,3.2c-1.3,0.4-3.2,1-7.9,2.6l-7.9,2.8c-5.1,1.8-5.8,4.3-5,6.7c0.9,2.2,2.6,3.8,4.8,4.6l14-4.9
		c2.8-1,3-1.6,2.8-3.4l-0.2-1.7l0.6-0.2c0.5,1.4,1.2,2.7,1.8,4c0.6,1.1,1.2,2.2,1.9,3.2l-19.1,6.7c-2.7,0.9-3,1.5-2.5,3.4l0.3,1.3
		L556.6,433z"/>
	<path class="st2" d="M560.9,451.6c-0.3-1-0.2-2,0.2-2.9c0.5-0.8,1.3-1.5,2.2-2c-2-1.3-5.3-3.2-5.7-4.4c-1.3-3.6,1.3-7.1,4.4-8.2
		c2.7-0.9,4.6-0.2,6.6,2c2.1,2.5,4.8,5.5,6.3,6.5l1.4-0.5c4.5-1.6,6.3-4,5.3-6.8c-0.3-0.9-1-1.6-1.9-1.8c-1.4-0.4-2.8-0.5-4.3-0.2
		c-1,0.1-1.4-0.1-1.7-0.8c-0.2-1.1,0.4-2.3,1.5-2.7c0.7-0.2,1.4,0.1,2.5,0.8c2.5,1.6,4.7,3.7,6.5,6c0.5,1.4,0.5,2.9-0.1,4.3
		c-1.1,2.4-3.2,3.7-6.2,4.7l-10.8,3.8c-2.3,0.8-2.9,2-2.6,3c0.2,0.6,0.6,1.2,1.2,1.5l-0.7,0.6L560.9,451.6z M573.7,442.9
		c-1-0.8-3-2.8-4-3.7c-1.7-1.5-3.2-2.3-5.3-1.6c-3.1,1-3.9,3.6-3.2,5.4c0.6,1.4,1.8,2.6,3.3,3.2L573.7,442.9z"/>
	<path class="st2" d="M563.3,456.2l0.7-0.2c1.4,3,1.9,3.2,5.9,1.8l28.5-10c4-1.4,4.1-1.7,3.4-4.9l0.5-0.2c1.3,2.3,2.7,4.4,4.4,6.4
		l-35.5,12.4c-3.9,1.4-4.2,1.9-3.4,5.1l-0.7,0.2L563.3,456.2z"/>
	<path class="st2" d="M577.9,498l0.7-0.2c1.5,2.7,2.2,3.3,4.3,1.8s5.3-3.9,9.3-7l-3.7-10.6c-3.9,0.1-7,0.3-9.9,0.4
		c-4.2,0.2-4.7,0.9-3.7,4.9l-0.7,0.2l-3.5-10.3l0.7-0.2c1.4,2.9,2.3,3.4,7.9,3.4l34.3,0.2l0.6,0.7c-9.1,6.8-18.2,13.7-27.4,20.8
		c-4.4,3.4-4.7,4.3-4,7.5l-0.7,0.2L577.9,498z M606.6,482.1L606.6,482.1c-5.5-0.1-11.2,0-16.4,0l3.4,9.6L606.6,482.1z"/>
</g>
<path id="SVGID_x5F_1_x5F_" class="st3" d="M399.1,1963.7c0,0,55.9-312.2,366.5-354.4"/>
<text><textPath  xlink:href="#SVGID_x5F_1_x5F_" startOffset="15.918%">
<tspan  class="st2" style="font-family:'MinionPro-BoldCn'; font-size:82.7977px;">Individual Q</tspan></textPath>
</text>
</svg>
