<svg id="Layer_1" data-name="Layer 1" xmlns="http://www.w3.org/2000/svg" viewBox="0 0 551.59 292.38"><defs><style>.cls-1{fill:none;stroke:#2d2b7d;}</style></defs><path class="cls-1" d="M153.49,193H127.76l1-3.22c5.86-.66,6.24-1.89,5.58-6.43-.48-3.22-.95-6.62-1.52-10.6h-18c-1.8,3.5-3.5,7.1-5.2,10.69-2,4.17-2,5.4,5.39,6.34l-.85,3.22H92.85l.85-3.22c5.68-.94,6.81-1.6,12.11-10.69l27.25-47.58,5-1.23,1.61,10.78c2.08,13,4.45,25.83,6.43,38.6,1.23,8.33,1.8,9.37,8.23,10.12Zm-24.41-46.26h-.28c-3.59,6.71-7.76,13.81-11.54,21.28h14.85Z" transform="translate(-92 -129.6)"/><path class="cls-1" d="M194.74,131.61c12.87,0,20.06,4,20.06,13.15s-7.67,13.06-16.28,14.48v.19c8.14,1.51,14.67,6,14.67,14.47,0,7.19-4.45,12.39-10.79,15.61-5.58,2.74-13.15,3.5-21.28,3.5H158.51l.75-3.22c6.81-.56,7.76-1.6,9.18-9l7.19-36.71c1.51-7.85.47-8.7-6.43-9.27l.85-3.22Zm-14.29,49c-1.32,7.19,1.71,8.51,5.3,8.51,6.72,0,13.91-5.49,13.91-15.51,0-8.52-6.43-11.64-13.15-11.64h-2.46Zm6.82-22.52c9.93,0,14.66-5.49,14.66-13,0-6.81-4-9.65-8.7-9.65-1.61,0-2.94.19-3.69.95s-1.14,2-1.61,4.54l-3.12,17.12Z" transform="translate(-92 -129.6)"/><path class="cls-1" d="M276.29,176.36A120.12,120.12,0,0,1,268.53,192a62,62,0,0,1-16.65,2.46c-16.65,0-28.76-9.46-28.76-27,0-23.18,18.73-37.37,40.87-37.37a52.24,52.24,0,0,1,16.46,2.65c-.19,5-.57,10.31-1,15.89l-3.22.38c-1.79-11.54-6.81-14.85-14.09-14.85-13.44,0-25,14.75-25,32.92,0,14.47,6.34,23.27,15.71,23.27,7.28,0,13.15-5.2,20.24-15.42Z" transform="translate(-92 -129.6)"/><path class="cls-1" d="M314.69,131.61c20.53,0,32.45,8.33,32.45,26.21,0,11.63-5,22.13-15.61,28.47-8.23,5-18.07,6.72-30.08,6.72H278.84l.85-3.22c7-.56,7.95-1.89,9.18-8.7L296,143.91c1.42-7.47.85-8.51-6.43-9.08l.85-3.22Zm-13.15,48c-.94,4.92-.66,6.71.95,8a8.54,8.54,0,0,0,4.92,1.23c15.42,0,26-14.57,26-32.07,0-11.26-5.59-21.29-18.07-21.29-2.56,0-4.17.28-5,1.14-.66.56-1.13,1.79-1.7,4.91Z" transform="translate(-92 -129.6)"/><path class="cls-1" d="M401.26,131.61c-.29,2.56-1,10.12-1.61,14.85l-3.41.29c-.28-4-.66-7.1-2-8.8-1-1.7-2.94-2.37-8.23-2.37h-4.64c-3.6,0-4.07.48-4.73,4l-3.69,19h6.34c8.13,0,8.23-.56,11-7h3.5l-3.88,19.49h-3.4c.09-7.28.09-7.85-7.85-7.85h-6.53l-3,16c-.76,4.16-.76,6.62.19,7.85,1,1.51,3.5,2,8,2,5.77,0,8.8-.95,11.07-3.13a36.32,36.32,0,0,0,6.81-9.08l3.21,1.23c-1.13,3.41-4.25,11.64-5.77,14.95H346.48l.66-3.22c7.19-.56,7.86-1.23,9.27-8.79l7.29-37.37c1.32-7.29.76-8.23-6.53-8.8l.85-3.22Z" transform="translate(-92 -129.6)"/><path class="cls-1" d="M456,131.61c-.28,2.56-1,10.12-1.7,14.85l-3.31.29c-.38-4.26-.85-7.29-1.89-8.8-1.23-1.7-3-2.37-9.09-2.37h-4.92c-3.31,0-4,.76-4.54,4L426.7,159.8h8.05c8.13,0,8.51-.94,11.25-7h3.31l-3.78,19.4h-3.4c-.1-7.19-.48-7.86-8.42-7.86h-7.95L422.64,181c-1.42,7.37-.57,8.23,7.66,8.79l-.76,3.22H400.88l.75-3.22c6.53-.56,7.38-1.6,8.8-8.79l7.19-37.18c1.42-7.67.95-8.42-6.34-9l.76-3.22Z" transform="translate(-92 -129.6)"/><path class="cls-1" d="M511.94,148.83c-1.23-11.83-7.85-14.57-14.66-14.57-13.15,0-25.17,14.19-25.17,32.92,0,14.29,6.63,23.28,17,23.28,3.22,0,6.06-.86,7-6.25l1.52-8.13c1.23-7,.28-7.48-8.71-8.42l.85-3.22h28.1l-.85,3.22c-5.11.66-5.77,1.23-7.09,8.42l-1.33,7.47a29.41,29.41,0,0,0-.57,7.09c-5.39,1.61-12.77,3.79-20.34,3.79-18.07,0-29.7-9.65-29.7-27.06,0-22.42,17.59-37.27,41.43-37.27a56.47,56.47,0,0,1,16.94,2.65c-.29,3.12-.76,9-1.14,15.7Z" transform="translate(-92 -129.6)"/><path class="cls-1" d="M594.34,134.83c-7.19.57-7.66,1.51-9.17,8.8L578,180.9c-1.52,7.38-.86,8.33,6.71,8.89l-.75,3.22H555.37l.75-3.22c7.38-.56,8.14-1.51,9.46-8.89L569,162.83H543.92l-3.41,18.07c-1.32,7.29-.66,8.33,6.72,8.89l-.76,3.22H518.38l.75-3.22c7-.56,7.57-1.51,9.08-8.89l7.29-37.27c1.42-7.48.38-8.23-7.19-8.8l.75-3.22h28.2l-.85,3.22c-6.63.57-7.29,1.51-8.71,8.8L545,158h25l2.84-14.38c1.42-7.29.76-8.23-6.43-8.8l.76-3.22H595Z" transform="translate(-92 -129.6)"/><path class="cls-1" d="M628.87,134.83c-6.91.57-7.47,1.42-9,9l-7.09,37c-1.52,7.47-.85,8.42,6.62,9l-.66,3.22h-28l.67-3.22c6.71-.56,7.47-1.51,9-9l7.29-37c1.42-7.57.85-8.42-6.81-9l.75-3.22h28Z" transform="translate(-92 -129.6)"/><path class="cls-1" d="M133.44,248.35c-6.72.76-7.29,1.23-8.61,9l-6.72,36.33c-2,11.07-5.3,18.16-13.24,22.7a26.65,26.65,0,0,1-11.74,3.88l-.56-3.5c4.44-.94,8.32-3.59,10.5-11a117.42,117.42,0,0,0,3-13.15l6.52-35.29c1.42-7.57.57-8.23-6.81-9l.76-3.21H134.1Z" transform="translate(-92 -129.6)"/><path class="cls-1" d="M198.71,248.07c-5.48.66-7.75,1.32-14,6.43-7,5.58-12.49,10.5-18.16,15.71C171,279,175.44,287.52,180.83,296c3.6,5.77,5.11,6.72,9.94,7.29l-.86,3.21H172.13c-4.73-8.13-9.65-17.78-14.48-27.34-1.32-2.55-2.55-3-3.78-2.46l-3.22,17.6c-1.42,7.47-.94,8.42,6.44,9l-.76,3.21H129.27l.76-3.21c6.53-.57,7.19-1.52,8.61-8.9l7.19-37.17c1.42-7.38.66-8.33-6.62-8.9l.66-3.21h27.24l-.66,3.21c-6.81.57-7.38,1.42-8.8,8.9l-3.12,15.89a18.09,18.09,0,0,0,7.19-3.79,168.92,168.92,0,0,0,16.94-16.17c2.65-3,2.55-4.26-1.23-4.64l-2-.19.85-3.21h23.09Z" transform="translate(-92 -129.6)"/><path class="cls-1" d="M243,290.74c-1.23,3.31-4.55,12.39-6.06,15.79H192.28l.66-3.12c7.57-.66,8.23-1.51,9.74-9L210,256.68c1.32-6.81.76-7.76-6.62-8.33l.66-3.21H232.3l-.76,3.21c-7.38.57-8,1.52-9.37,8.33l-7.09,37.18c-.57,3.59-.66,5.39.28,6.81s3.5,1.89,7.38,1.89c4.45,0,7.57-.85,9.93-3.12a38.7,38.7,0,0,0,6.91-9.84Z" transform="translate(-92 -129.6)"/><path class="cls-1" d="M329.45,248.35c-7.19.66-7.56,1.14-8.61,7.85-2.08,14-3.4,24.7-4.82,37.09-1,8.7-.66,9.37,6.62,10l-.75,3.21H295.11l.76-3.21c5.86-.66,6.53-1.33,7.95-10,2-13.34,4-24.79,5.77-37h-.38l-28.29,49.57H278c-2.56-16.18-5.2-30.93-8.23-49.19h-.38L262.76,280c-2.75,9.56-3.6,13.91-4.07,17-.66,4.36.85,5.77,6.72,6.25l-.76,3.21H242.89l.76-3.21c4.92-.38,6.9-1.8,8.7-6.34,1.23-2.74,2.74-7,5.49-16l6.9-22.14c2.46-8.32,2-9.84-6.33-10.5l1-3.21h19c2.84,13.81,5.68,26.3,8.52,40.49l24.69-40.49h18.64Z" transform="translate(-92 -129.6)"/><path class="cls-1" d="M400.41,248.35c-5.78.19-7.1,2-8.24,5.87-.94,2.93-2,6.81-3.78,16.27l-7.09,37h-4.92l-27-48.15h-.19L345,281.56A113.29,113.29,0,0,0,342.79,297c-.19,4.45,1.52,6,8.23,6.34l-.75,3.21h-22.8l.85-3.21c4.82-.29,6.71-1.71,8-6a147.49,147.49,0,0,0,4-15.8l4.07-19.11c1.51-7.1,1-9.27-.09-11.16-1.14-2.18-3.6-2.65-7.48-2.94l.76-3.21H354.9l25.17,43.61h.18l3.41-18.07a151.51,151.51,0,0,0,2.27-16c.28-4.73-1.7-6.05-8.32-6.34l.75-3.21h22.8Z" transform="translate(-92 -129.6)"/><path class="cls-1" d="M462,270.77C462,291.49,447.61,308,426.8,308c-15.61,0-26.21-10.31-26.21-26.68,0-20,14.57-37.65,35.29-37.65C451.78,243.62,462,254.79,462,270.77ZM414.5,283.64c0,11.73,3.6,20.34,12.87,20.34,12.48,0,20.81-19.39,20.81-35.67,0-11.92-3.6-20.62-12.87-20.62C424,247.69,414.5,265.48,414.5,283.64Z" transform="translate(-92 -129.6)"/><path class="cls-1" d="M496.9,245.14c11.92,0,22.23,3.69,22.23,16.36,0,12.3-9.93,19.77-23.18,20.82a25.84,25.84,0,0,1-2.83-.1l-6.91-1.7-2.65,13.81c-1.51,7.76-.66,8.23,7.66,9l-.75,3.21H461.8l.76-3.21c6.81-.57,7.47-1.33,9-9l7.09-36.52c1.61-8,.85-8.89-6.05-9.46l.75-3.21Zm-9.74,31.78a13.87,13.87,0,0,0,5.29,1c8.33,0,13.82-8.7,13.82-17.69,0-7.75-4.07-11.35-9.56-11.35a6.66,6.66,0,0,0-3.59.85c-.86.47-1.33,2-1.9,5Z" transform="translate(-92 -129.6)"/><path class="cls-1" d="M581.76,321.58a34.83,34.83,0,0,1-13.72-.67c-2.65-.75-9.27-3.21-21.19-12.39l-1-.85c-13.43-1.42-22.23-11.54-22.23-26.49,0-19.87,14.47-37.56,35.47-37.56,15.52,0,25.93,11,25.93,27.34,0,16.56-9.28,30.37-24.6,35.2l1,.75c6.53,4.45,15,9.65,21,12.3Zm-27.44-20.06c.76.47,1.61,1.14,2.46,1.7,7.67-3.59,14.29-20.05,14.29-34.62,0-12.21-3.6-21-13.06-21-11.54,0-20.62,18.54-20.62,35.38,0,10.31,3.12,18.45,9.08,20.62Z" transform="translate(-92 -129.6)"/><path class="cls-1" d="M642.12,307.29h-1.61c-12.68-.09-15.42-3.12-18.36-9.08a127.13,127.13,0,0,1-5.58-13.91c-1.13-3-2.17-4.44-5-4.44h-2.27l-2.65,14.47c-1.42,7.47-.57,8.42,6.24,9l-.75,3.21H584.69l.76-3.21c6.62-.57,7.66-1.52,9.08-8.9L601.81,257c1.42-7.57.76-8.13-6.43-8.61l.85-3.21h23.84c5.77,0,11.07.66,14.85,2.93s6.34,6.15,6.34,12c0,9.18-6.9,14.86-14.76,17.32.76,1.79,3,8.13,5.21,12.58a103.86,103.86,0,0,0,5.77,10.59,9.4,9.4,0,0,0,5.49,3.79Zm-29.71-31.22c3.59,0,6.53-.47,9.18-2.17,4.35-2.75,6.71-7.86,6.71-13.44,0-7.76-4.07-11.54-8.8-11.54a4.92,4.92,0,0,0-3.69,1.14c-.66.56-1.13,1.79-1.51,3.87L610,276.07Z" transform="translate(-92 -129.6)"/><path class="cls-1" d="M101.27,400.19c1,6.25,5.3,17.41,15.14,17.41,6.81,0,10.22-5,10.22-10.41,0-4.44-2.65-8.32-7.48-12.11L116.31,393c-6-4.63-11.25-9.93-11.25-17.78,0-11.17,9-18.07,20.62-18.07A31,31,0,0,1,136.37,359c1.7.57,2.93,1.13,3.88,1.51-.48,3.79-.48,8.52-.57,14.48l-3.31.28c-.85-6-3.12-14.38-11.45-14.38-6.15,0-9.08,5.3-9.08,9.74,0,4.64,2.65,7.67,7.66,11.26l2.84,2c6.53,4.73,11.92,9.93,11.92,18.45,0,11.92-10.22,19.11-22.89,19.11-7.86,0-14.48-3.22-17.22-5.87.09-2.17.09-7.47,0-15Z" transform="translate(-92 -129.6)"/><path class="cls-1" d="M203.25,356.29c-.75,3.69-1.79,12-2.55,17.7l-3.5.19c0-4.36-.28-7.29-1.42-9.18-1.42-1.89-3.78-2.37-8.61-2.37h-4.73L173.83,408c-1.32,7.09-1,8.32,7.76,8.89l-.76,3.22H150.56l.76-3.22c7.94-.57,8.7-2,10-8.89l8.79-45.32h-4c-7,0-8.7.95-10.6,2.94-1.6,1.79-2.93,4.35-4.92,8.61h-3.4c1.89-6.15,3.69-12.87,4.73-17.89h2.46c.94,2.18,1.8,2.37,4.35,2.37h37.09c2.36,0,2.93-.57,4.73-2.37Z" transform="translate(-92 -129.6)"/><path class="cls-1" d="M271.84,361.88c-5.39.19-7.19,1.7-8.7,6.05a120.34,120.34,0,0,0-3.6,15.14l-1.79,9.27c-1.61,8.33-4.36,16.74-10.51,22.61a24.54,24.54,0,0,1-17.12,6.53c-6.15,0-11.64-1.42-15.8-5.21-4.44-4-6.62-10.88-4.35-22.8l4.26-22.23c1.42-7.66.75-8.8-6.44-9.36l.76-3.22h27.63l-.86,3.22c-6.33.56-7.19,1.42-8.7,9.36L222.36,394C219.52,408.9,224.73,415,233.62,415c10.41,0,16.65-8.13,19.58-23.93l1.42-8a125.94,125.94,0,0,0,2.18-15.33c.28-4.25-2.37-5.58-8.61-5.86l.85-3.22H272.6Z" transform="translate(-92 -129.6)"/><path class="cls-1" d="M335.89,361.88c-5.58.66-6.81,1.51-11.73,9.55-6.63,10.6-18.45,31.32-28.58,49.57h-4.35c-3-17.88-7.19-40.3-9.17-50.42-1.33-7.19-2.46-8.14-8-8.7l.75-3.22h25.64l-.85,3.22-1.89.19c-3.6.56-4.17,1.23-3.69,5.1.66,5.68,3.88,22.9,6.24,37.09h.19c6.43-11.26,15-26.68,18.92-34.91,2.65-5.49,2-6.91-2.74-7.38l-1.8-.09.85-3.22h21Z" transform="translate(-92 -129.6)"/><path class="cls-1" d="M424.53,361.88c-5.87.85-6.53,1.42-10.5,9.46-4.92,9.74-11.73,23.55-23.75,49.76h-4.63l-7.29-42.29h-.19L357.55,421.1H353L347,370.86c-.75-7.37-1.6-8.32-7.66-9l.76-3.22h25.16l-.66,3.22-2.18.37c-3.31.57-4,1.24-3.5,6.53l3.31,33.49h.19l20.34-43H387l7.38,43.33h.19c5.77-12.11,11.16-24.88,14.19-32.07,2.93-6.82,2.37-7.95-3.22-8.52l-1.6-.09.75-3.22h20.72Z" transform="translate(-92 -129.6)"/><path class="cls-1" d="M483.47,361.88c-6.06.66-7.48,1.42-11.45,5.58-3.88,4-8.8,9.84-14.85,17.12l10.12,23.56c3.12,7.38,4.16,7.94,10.69,8.7l-.76,3.22H449.5l.76-3.22,2.18-.38c3.59-.56,4-1.51,2.83-4.63-.94-2.75-2.08-5.87-6.9-17.41-5.58,7.19-9.37,12.3-12.3,16.84-2.27,3.41-2,4.35,1.7,5.2l1.8.38-.85,3.22h-22l.85-3.22c5.3-.57,7.57-1.7,10.79-5s11.35-12.87,18.16-21.38l-9-21.57c-2.27-5.58-3.5-6.34-9.46-7l.85-3.22h25.26l-.75,3.22-2.27.47c-2.37.57-2.65,1.23-2.08,2.93,1.22,3.41,3.5,8.9,6.33,15.33,4.07-5,8-10.31,10.69-14.19,1.8-2.75,1-3.69-1.89-4.17l-2.27-.37.76-3.22h21.47Z" transform="translate(-92 -129.6)"/><path class="cls-1" d="M541.84,361.88c-6.06.66-7.29,1.7-12.4,7.94-3.5,4.54-8.13,11.36-13.81,19.78a20.5,20.5,0,0,0-2.55,5.77l-2.46,12c-1.61,7.76-.66,8.89,7.47,9.46l-.85,3.22h-29.9l.86-3.22c7.38-.57,8.42-1.51,10.12-9.46l2.36-11a10.22,10.22,0,0,0-.38-6.53c-1.6-4.64-3.59-10.79-6.71-20-2.37-6.81-3.31-7.48-8.89-8l.94-3.22h24.79l-.76,3.22-2.55.56c-2.75.48-2.94,1.52-2,4.64,1.7,5.68,4.26,13.24,6.91,20.72,4.16-6.25,9.84-14.85,13-20.34,2-3.41,1.61-4.45-2.37-5.21l-2.08-.28,1-3.31h21.19Z" transform="translate(-92 -129.6)"/><path class="cls-1" d="M595.85,360.17c-14.28,18.55-28.38,36.52-42.66,55.35a78,78,0,0,0,11.82.56c7.76,0,13-.66,16-3.21,2.37-2,4.83-5.2,7.57-10.5l3.41,1.42c-1.14,3.59-4.64,13.71-5.87,16.27H536.54l-.76-1.89c14.38-18.26,28.48-36.43,43.14-55.54H568c-9.46,0-11.36,1.23-13.15,3.13-1.52,1.6-3.22,4.06-5.11,9l-3.5-.38c1.51-5.77,3-13.24,4-18.07h2.46c1,2.18,2,2.37,4.54,2.37H595Z" transform="translate(-92 -129.6)"/></svg>