<svg id="Layer_1" data-name="Layer 1" xmlns="http://www.w3.org/2000/svg" viewBox="0 0 42.84 7.8"><defs><style>.cls-1{fill:#231f20;}</style></defs><path class="cls-1" d="M161.38,263.59c-.88.13-.91.19-1.09,1.34-.28,1.64-.49,3.08-.75,4.94-.13.95-.1,1,.7,1.13l0,.12h-2.5l0-.12c.78-.11.81-.16,1-1.13.33-2.07.59-3.69.9-5.37h0l-3.49,6.63H156c-.23-2.08-.48-4.33-.75-6.63h0l-.84,3.08c-.37,1.35-.64,2.29-.7,2.72s0,.6.78.7l0,.12h-2.15l0-.12c.64-.06.78-.16,1-.73s.44-1.36.83-2.71l.88-3c.22-.82.15-.86-.76-1l0-.12h1.54c.28,1.95.56,4,.84,6.07l3.31-6.07h1.53Z" transform="translate(-152.23 -263.47)"/><path class="cls-1" d="M162.73,270.14a3.8,3.8,0,0,1-1.49,1.12c-.14,0-.28-.15-.07-1.05l.69-3c.12-.5.14-.59,0-.6a2.18,2.18,0,0,0-.73.48l-.07-.13a4,4,0,0,1,1.52-1.11c.2,0,.18.33.06.88l-.76,3.32c-.08.37-.08.49,0,.49a1.8,1.8,0,0,0,.72-.51Zm.1-6.58c.25,0,.34.21.34.41a.52.52,0,0,1-.49.54.36.36,0,0,1-.36-.38.54.54,0,0,1,.5-.57Z" transform="translate(-152.23 -263.47)"/><path class="cls-1" d="M167.68,270.2a2.85,2.85,0,0,1-1.33,1.06c-.19,0-.29-.28-.12-1.05.23-1,.44-2,.67-3,.12-.57.07-.8-.06-.8-.37,0-1.61,1.47-2.17,2.48-.15.68-.3,1.36-.47,2.16a4,4,0,0,0-.7.16l-.06-.05c.3-1.26.6-2.54.87-3.89.12-.53.12-.71,0-.71a1.88,1.88,0,0,0-.64.46l-.07-.11a2.93,2.93,0,0,1,1.36-1.07c.19,0,.21.42,0,1.47l-.21,1h0a7.26,7.26,0,0,1,2.1-2.25,1.19,1.19,0,0,1,.55-.21c.19,0,.42.16.13,1.5-.19.9-.39,1.8-.6,2.71-.07.36-.06.48,0,.48a1.53,1.53,0,0,0,.63-.45Z" transform="translate(-152.23 -263.47)"/><path class="cls-1" d="M170.15,270.14a3.7,3.7,0,0,1-1.48,1.12c-.15,0-.28-.15-.07-1.05l.69-3c.12-.5.13-.59,0-.6a2.09,2.09,0,0,0-.73.48l-.08-.13a4.08,4.08,0,0,1,1.53-1.11c.2,0,.18.33.06.88l-.76,3.32c-.08.37-.08.49,0,.49a1.87,1.87,0,0,0,.72-.51Zm.11-6.58c.24,0,.34.21.34.41a.52.52,0,0,1-.49.54.36.36,0,0,1-.36-.38.54.54,0,0,1,.5-.57Z" transform="translate(-152.23 -263.47)"/><path class="cls-1" d="M173.65,265.85c.76,0,1.18.62,1.18,1.67a4.2,4.2,0,0,1-1.27,3.07,2.44,2.44,0,0,1-1.41.67c-.93,0-1.25-.81-1.25-1.66a3.94,3.94,0,0,1,1.5-3.29,2.38,2.38,0,0,1,1.23-.46Zm-.38.3a.93.93,0,0,0-.33.08c-.44.19-1.24,1.32-1.24,3.26,0,.95.32,1.45.8,1.45a.83.83,0,0,0,.28-.06c.58-.2,1.25-1.76,1.25-3.36,0-.93-.24-1.37-.74-1.37Z" transform="translate(-152.23 -263.47)"/><path class="cls-1" d="M179.63,270.2a2.85,2.85,0,0,1-1.33,1.06c-.19,0-.29-.28-.12-1.05.23-1,.45-2,.67-3,.12-.57.08-.8-.06-.8-.37,0-1.6,1.47-2.17,2.48-.15.68-.3,1.36-.46,2.16a4,4,0,0,0-.71.16l-.06-.05c.3-1.26.6-2.54.87-3.89.12-.53.12-.71,0-.71a1.88,1.88,0,0,0-.64.46l-.07-.11a3,3,0,0,1,1.36-1.07c.19,0,.21.42,0,1.47l-.22,1h0a7.26,7.26,0,0,1,2.1-2.25,1.19,1.19,0,0,1,.55-.21c.2,0,.42.16.14,1.5l-.6,2.71c-.08.36-.06.48,0,.48a1.59,1.59,0,0,0,.62-.45Z" transform="translate(-152.23 -263.47)"/><path class="cls-1" d="M185.5,263.47c1.54,0,2.27.67,2.27,1.91a2.66,2.66,0,0,1-2.53,2.59h-.37l-.64-.25-.41,2.06c-.2,1-.16,1.13.72,1.21v.12H182l0-.12c.77-.08.8-.18,1-1.21l1-5c.22-1.07.15-1.13-.59-1.2l0-.13Zm-1.22,4a1.46,1.46,0,0,0,.68.16c.73,0,1.92-.54,1.92-2.43,0-.81-.36-1.56-1.38-1.56a.74.74,0,0,0-.42.1,1,1,0,0,0-.17.46Z" transform="translate(-152.23 -263.47)"/><path class="cls-1" d="M189.23,268c.65-1.42,1.28-2.13,1.58-2.13a.49.49,0,0,1,.39.32.43.43,0,0,1,0,.4,1.18,1.18,0,0,1-.27.32.17.17,0,0,1-.21,0,.44.44,0,0,0-.33-.2c-.15,0-.31.18-.6.65a12.28,12.28,0,0,0-.65,1.31c-.19.93-.36,1.7-.5,2.42a2.74,2.74,0,0,0-.67.17l-.09-.08c.33-1.34.61-2.69.84-4,.05-.29.08-.51,0-.51s-.45.25-.69.49l-.08-.12a3.23,3.23,0,0,1,1.4-1.11c.22,0,.22.44,0,1.3l-.17.83Z" transform="translate(-152.23 -263.47)"/><path class="cls-1" d="M193.88,265.85c.77,0,1.19.62,1.19,1.67a4.21,4.21,0,0,1-1.28,3.07,2.44,2.44,0,0,1-1.41.67c-.92,0-1.25-.81-1.25-1.66a3.94,3.94,0,0,1,1.5-3.29,2.38,2.38,0,0,1,1.24-.46Zm-.37.3a.93.93,0,0,0-.34.08c-.44.19-1.23,1.32-1.23,3.26,0,.95.31,1.45.79,1.45a.79.79,0,0,0,.28-.06c.58-.2,1.25-1.76,1.25-3.36,0-.93-.24-1.37-.74-1.37Z" transform="translate(-152.23 -263.47)"/></svg>