<svg id="Layer_1" data-name="Layer 1" xmlns="http://www.w3.org/2000/svg" viewBox="0 0 46.82 7.82"><defs><style>.cls-1{fill:#231f20;}</style></defs><path class="cls-1" d="M163,294v-.23c.86-.09.89-.17.88-1.31l0-4.92h-.05l-2.44,6.34h-.21l-2.27-6.24h0l-.17,3.3c0,1,0,1.63,0,2,0,.63.19.74,1,.8V294h-2.39v-.23c.66-.06.83-.2.9-.73s.12-1,.2-2.17l.17-2.64c.1-1.5,0-1.57-1-1.68v-.23h1.7l2.33,5.94,2.39-5.94h1.71v.23c-.94.11-1,.17-1,1.44l.1,4.47c0,1.14.07,1.22,1,1.31V294Z" transform="translate(-157.24 -286.32)"/><path class="cls-1" d="M166.32,294v-.22c.65-.07.74-.13.74-.93v-2.69c0-.72,0-.72-.66-.83v-.19a7.39,7.39,0,0,0,1.49-.48v4.19c0,.8.08.86.75.93V294Zm1.13-7.66a.55.55,0,1,1-.51.56.52.52,0,0,1,.51-.56Z" transform="translate(-157.24 -286.32)"/><path class="cls-1" d="M172,294v-.22c.63-.08.7-.12.7-.94v-2.22c0-.79-.2-1.32-.94-1.32a1.77,1.77,0,0,0-1.11.54v3c0,.79.06.83.65.91V294H169v-.22c.72-.08.78-.12.78-.91v-2.71c0-.69,0-.74-.66-.85v-.18a6.41,6.41,0,0,0,1.5-.48v.86c.23-.18.47-.33.72-.5a1.61,1.61,0,0,1,.87-.34c.82,0,1.3.65,1.3,1.65v2.54c0,.79.06.84.66.92V294Z" transform="translate(-157.24 -286.32)"/><path class="cls-1" d="M174.71,294v-.22c.65-.07.73-.13.73-.93v-2.69c0-.72,0-.72-.66-.83v-.19a7.69,7.69,0,0,0,1.5-.48v4.19c0,.8.07.86.75.93V294Zm1.13-7.66a.55.55,0,1,1-.52.56.53.53,0,0,1,.52-.56Z" transform="translate(-157.24 -286.32)"/><path class="cls-1" d="M179.73,288.67a2.4,2.4,0,0,1,2.18,2.66c0,1.87-1.15,2.81-2.2,2.81a2.42,2.42,0,0,1-2.2-2.63c0-2,1.23-2.84,2.2-2.84Zm-.16.3c-.65,0-1.09.8-1.09,2.18,0,1.53.47,2.69,1.35,2.69.66,0,1.11-.6,1.11-2.24,0-1.43-.41-2.63-1.36-2.63Z" transform="translate(-157.24 -286.32)"/><path class="cls-1" d="M185.4,294v-.22c.64-.08.71-.12.71-.94v-2.22c0-.79-.2-1.32-1-1.32a1.74,1.74,0,0,0-1.1.54v3c0,.79.06.83.65.91V294h-2.27v-.22c.72-.08.78-.12.78-.91v-2.71c0-.69,0-.74-.66-.85v-.18a6.72,6.72,0,0,0,1.5-.48v.86c.23-.18.47-.33.72-.5a1.61,1.61,0,0,1,.86-.34c.83,0,1.31.65,1.31,1.65v2.54c0,.79.06.84.66.92V294Z" transform="translate(-157.24 -286.32)"/><path class="cls-1" d="M192.84,286.32a2.88,2.88,0,0,1,1.83.5,2,2,0,0,1,.71,1.64,2.38,2.38,0,0,1-2.15,2.4,1.42,1.42,0,0,1-.36,0l-.72-.21v2c0,1,.08,1,1,1.12V294h-2.75v-.22c.79-.08.88-.15.88-1.12v-5c0-1,0-1-.81-1.13v-.23Zm-.69,4a1.69,1.69,0,0,0,.69.13c.64,0,1.53-.39,1.53-2,0-1.32-.69-1.9-1.66-1.9a.69.69,0,0,0-.44.11c-.09.07-.12.22-.12.53Z" transform="translate(-157.24 -286.32)"/><path class="cls-1" d="M197.56,289.86c.26-.51.75-1.19,1.26-1.19a.64.64,0,0,1,.6.59.63.63,0,0,1-.34.52.22.22,0,0,1-.29,0,.59.59,0,0,0-.43-.25c-.26,0-.57.24-.83.87v2.48c0,.79.08.85.87.93V294H196v-.22c.63-.08.72-.14.72-.91v-2.66c0-.74,0-.8-.65-.89v-.19a6.73,6.73,0,0,0,1.48-.48v1.21Z" transform="translate(-157.24 -286.32)"/><path class="cls-1" d="M201.88,288.67a2.4,2.4,0,0,1,2.18,2.66c0,1.87-1.15,2.81-2.19,2.81a2.43,2.43,0,0,1-2.21-2.63c0-2,1.24-2.84,2.21-2.84Zm-.16.3c-.65,0-1.09.8-1.09,2.18,0,1.53.47,2.69,1.36,2.69.66,0,1.1-.6,1.1-2.24,0-1.43-.41-2.63-1.36-2.63Z" transform="translate(-157.24 -286.32)"/></svg>