<svg id="Layer_1" data-name="Layer 1" xmlns="http://www.w3.org/2000/svg" viewBox="0 0 171.9 26.98"><defs><style>.cls-1{fill:#231f20;}</style></defs><path class="cls-1" d="M177.19,202.59c-3.14.32-3.31.49-3.88,4.08-.9,5.35-1.59,10.08-2.32,15.43-.58,3.8-.37,4,2.65,4.24l-.33,1.23h-9.63l.32-1.23c2.9-.28,3.11-.48,3.76-4.28.94-5.92,1.88-11.23,2.9-16.94h-.12L158,227.32H157c-.85-6.93-1.79-14-2.9-22H154l-3,11.19c-1.1,4-1.67,6.2-1.87,7.55-.21,1.51.24,2,3.06,2.24l-.29,1.23H143.1l.33-1.23c2.08-.2,2.74-.53,3.39-2.24.77-2.2,1.47-4.25,2.82-9L152,207c1.15-3.92.94-4.05-2.53-4.41l.33-1.23h6.57c1,6.45,2,12.74,3.23,19.72l11.47-19.72h6.41Z" transform="translate(-143.1 -201.08)"/><path class="cls-1" d="M184.34,224.18c-1.39,1.63-4.37,3.88-5.8,3.88-.73,0-1.38-.61-.61-3.8l2.57-10.53c.29-1.14.21-1.31,0-1.47a8,8,0,0,0-2.73,1.8l-.57-1.06c2.16-2.21,4.9-3.84,6-3.84s.94,1.35.45,3.35L181,223.73c-.28,1-.2,1.35,0,1.35a7.93,7.93,0,0,0,2.74-1.92Zm-.41-23.1a1.64,1.64,0,0,1,1.64,1.79,2.29,2.29,0,0,1-2.21,2.37,1.68,1.68,0,0,1-1.71-1.75,2.34,2.34,0,0,1,2.24-2.41Z" transform="translate(-143.1 -201.08)"/><path class="cls-1" d="M204.59,224.18c-2.24,2.61-4.49,3.88-5.59,3.88s-1.39-1-.61-4.21,1.47-6.32,2.2-9.42c.49-2,.29-2.58-.24-2.62-1.64,0-6,4.78-8,8.21-.48,2-1.22,4.86-1.67,7.26a16.19,16.19,0,0,0-2.9.74l-.24-.29c.81-3.18,2.28-9.1,3.3-13.79.33-1.35.25-1.76,0-1.76a7.14,7.14,0,0,0-2.57,1.88l-.57-1.1c2.16-2.33,4.45-3.8,5.55-3.8s1.1,1.43.29,4.94l-.65,2.73H193A24,24,0,0,1,200,210a5.15,5.15,0,0,1,2.45-.82c1.06,0,2.12.69,1,5.55-.7,2.82-1.39,5.8-2,8.7-.29,1.18-.25,1.59,0,1.59a7,7,0,0,0,2.53-1.84Z" transform="translate(-143.1 -201.08)"/><path class="cls-1" d="M214.92,224.18c-1.38,1.63-4.36,3.88-5.79,3.88-.74,0-1.39-.61-.62-3.8l2.58-10.53c.28-1.14.2-1.31,0-1.47a8,8,0,0,0-2.74,1.8l-.57-1.06c2.16-2.21,4.9-3.84,6-3.84s.94,1.35.45,3.35l-2.73,11.22c-.29,1-.21,1.35,0,1.35a8,8,0,0,0,2.73-1.92Zm-.4-23.1a1.64,1.64,0,0,1,1.63,1.79,2.29,2.29,0,0,1-2.21,2.37,1.68,1.68,0,0,1-1.71-1.75,2.34,2.34,0,0,1,2.24-2.41Z" transform="translate(-143.1 -201.08)"/><path class="cls-1" d="M228.24,209.16c3.3,0,4.89,2.37,4.89,6s-1.63,8-4.32,10.33a9.52,9.52,0,0,1-5.88,2.53c-3.59,0-4.9-3.06-4.9-6.08,0-5.43,2.69-9.56,5.67-11.31a9.78,9.78,0,0,1,4.49-1.51Zm-1.31,1.67a3.27,3.27,0,0,0-1.43.33c-1.51.73-4.12,4.08-4.12,10.45,0,2.82,1,4.73,2.94,4.73a3.07,3.07,0,0,0,1.26-.28c1.84-.78,4.21-5.27,4.21-10.78,0-3-1.07-4.45-2.82-4.45Z" transform="translate(-143.1 -201.08)"/><path class="cls-1" d="M253.18,224.18c-2.25,2.61-4.49,3.88-5.59,3.88s-1.39-1-.61-4.21,1.47-6.32,2.2-9.42c.49-2,.29-2.58-.24-2.62-1.64,0-6.05,4.78-8,8.21-.49,2-1.22,4.86-1.67,7.26a16.19,16.19,0,0,0-2.9.74l-.24-.29c.81-3.18,2.28-9.1,3.3-13.79.33-1.35.25-1.76,0-1.76a7.14,7.14,0,0,0-2.57,1.88l-.57-1.1c2.16-2.33,4.45-3.8,5.55-3.8s1.1,1.43.29,4.94l-.65,2.73h.08a24,24,0,0,1,7.06-6.85,5.12,5.12,0,0,1,2.45-.82c1.06,0,2.12.69,1,5.55-.7,2.82-1.39,5.8-2,8.7-.29,1.18-.25,1.59,0,1.59a7,7,0,0,0,2.53-1.84Z" transform="translate(-143.1 -201.08)"/><path class="cls-1" d="M276.82,201.36c5.6,0,8.21,2.37,8.21,6.82,0,5.71-4.9,8.53-9,8.82-.53,0-1.06,0-1.47,0l-2.41-.78-1.27,6.57c-.57,3-.36,3.19,3,3.51l-.24,1.23h-10l.28-1.23c2.74-.28,3.06-.48,3.68-3.51l3.3-16.61c.66-3.18.41-3.31-2.53-3.63l.33-1.23Zm-4.37,13.43a5.68,5.68,0,0,0,2.54.57c2.65,0,6.53-1.83,6.53-7.59,0-2.53-1.35-5-4.9-5a3,3,0,0,0-1.51.33c-.37.2-.57.57-.74,1.59Z" transform="translate(-143.1 -201.08)"/><path class="cls-1" d="M292.06,215.85c2.16-4.28,4.32-6.69,5.75-6.69a2.14,2.14,0,0,1,1.72,1.06,1.81,1.81,0,0,1-.09,1.76,3.94,3.94,0,0,1-1.1,1.22.63.63,0,0,1-.9,0,1.65,1.65,0,0,0-1.18-.57c-.49,0-1,.37-2.08,1.92a21.79,21.79,0,0,0-2.57,4.94c-.58,2.49-1.11,5.1-1.64,7.79a18.22,18.22,0,0,0-2.81.74l-.33-.33c1.06-4.53,2.16-9.14,3-13.71.24-1.35.24-1.84-.08-1.84A8.33,8.33,0,0,0,287,214l-.57-1.07c2.17-2.28,4.37-3.75,5.51-3.75s.9,2.29.33,5l-.37,1.71Z" transform="translate(-143.1 -201.08)"/><path class="cls-1" d="M310.1,209.16c3.31,0,4.9,2.37,4.9,6s-1.63,8-4.33,10.33a9.49,9.49,0,0,1-5.88,2.53c-3.59,0-4.9-3.06-4.9-6.08,0-5.43,2.7-9.56,5.68-11.31a9.74,9.74,0,0,1,4.49-1.51Zm-1.31,1.67a3.2,3.2,0,0,0-1.42.33c-1.51.73-4.13,4.08-4.13,10.45,0,2.82,1,4.73,2.94,4.73a3.12,3.12,0,0,0,1.27-.28c1.83-.78,4.2-5.27,4.2-10.78,0-3-1.06-4.45-2.81-4.45Z" transform="translate(-143.1 -201.08)"/></svg>