<svg id="Layer_1" data-name="Layer 1" xmlns="http://www.w3.org/2000/svg" viewBox="0 0 564.12 66.68"><defs><style>.cls-1{fill:#171327;}</style></defs><path class="cls-1" d="M137.75,281.69a99.61,99.61,0,0,1-3.39,10.66,50.29,50.29,0,0,1-11.59,1.73c-16.85,0-23.33-12.1-23.33-23.33,0-14.62,9.79-24.77,25.13-24.77a49.87,49.87,0,0,1,10.87,1.51c.51,4,.87,7.2,1.23,11.09l-2.45.5c-2.23-7.77-6.34-10.22-11.09-10.22-8.14,0-13.25,9.72-13.25,20.45,0,12.89,5.83,21.82,13.61,21.82,5.11,0,8.71-3.89,11.81-10.3Z" transform="translate(-99.44 -243.24)"/><path class="cls-1" d="M154,267.87c2.3-4.4,4.75-7.42,7.56-7.42a4.32,4.32,0,0,1,4.32,4.46,5.78,5.78,0,0,1-3.46,5.19,1.89,1.89,0,0,1-2.09-.22,4.42,4.42,0,0,0-2.95-1.44c-1.22,0-2.37.44-3.53,3.17v14.26c0,4.39.36,4.68,5.19,5v2.23H141v-2.23c3.68-.36,4.11-.79,4.11-5V270c0-3.82-.43-4.18-3.53-5v-1.95a59.23,59.23,0,0,0,12.31-2.73v7.49Z" transform="translate(-99.44 -243.24)"/><path class="cls-1" d="M193.91,286.52c-3.89,5.9-9.08,7.49-12,7.49-9.07,0-14.18-7.21-14.18-15.34a19.08,19.08,0,0,1,5-13.18c2.73-2.88,6.48-5,10.37-5h.07c6.48,0,11.09,5.76,11,11.59,0,1.59-.29,2.38-1.95,2.67-1,.21-9.5.86-16.13,1.15.22,7.7,4.32,11.81,9.07,11.81a10.46,10.46,0,0,0,7.42-2.95Zm-12-23.33c-2.52,0-5,3.88-5.4,9.36,2.81,0,5.26-.07,7.92-.22,1.15,0,1.52-.36,1.52-1.65,0-3.61-1.45-7.49-4-7.49Z" transform="translate(-99.44 -243.24)"/><path class="cls-1" d="M220.11,294a5.72,5.72,0,0,1-4-1.52,6.28,6.28,0,0,1-1.65-2.44c-2.24,1.58-5.4,4-7.13,4a9.14,9.14,0,0,1-9.22-9c0-3.67,1.58-5.76,5.11-7.12,3.31-1.3,9.15-3.24,10.8-4.76v-2.95c0-4.18-1.87-6.34-3.88-6.34a3,3,0,0,0-2.6,1.37,12.84,12.84,0,0,0-1.8,4.83c-.43,1.73-1.29,2.3-2.59,2.3-1.87,0-4.54-1.44-4.54-3.45,0-1.16.8-2.16,2.38-3.32,2.81-1.94,7.27-4.46,11.52-5.11a10.73,10.73,0,0,1,7,2.45c2.44,2.09,3.09,5,3.09,8.35v12.89c0,3.17,1,4.18,2.23,4.18a6.31,6.31,0,0,0,2.24-.43l.64,2.23ZM214,276c-1.29.72-2.52,1.52-3.81,2.31-2,1.22-3,2.37-3,4.82,0,3.53,2.45,5.4,4.32,5.4a3.41,3.41,0,0,0,2.52-1Z" transform="translate(-99.44 -243.24)"/><path class="cls-1" d="M243.3,293.21a6.68,6.68,0,0,1-3,.8c-5.12,0-8.21-2.52-8.21-8.93V264.63H228l-.36-.8,2-2.52h2.52v-5l7.77-5.47,1,.51v10h6.77c.72.8.65,2.89-.43,3.32h-6.34V282.7c0,5.4,2,6.41,3.82,6.41a7.81,7.81,0,0,0,3.53-.79l.72,2.37Z" transform="translate(-99.44 -243.24)"/><path class="cls-1" d="M251.07,293.14v-2.23c3.75-.43,4.11-.72,4.11-5.62V270.46c0-4.47-.36-4.61-3.75-5.33v-1.94A89.65,89.65,0,0,0,264,260.45v24.84c0,4.83.43,5.19,4.25,5.62v2.23Zm3.24-41.69a4.91,4.91,0,0,1,4.83-5,4.81,4.81,0,0,1,4.82,5,4.87,4.87,0,0,1-4.89,5A4.94,4.94,0,0,1,254.31,251.45Z" transform="translate(-99.44 -243.24)"/><path class="cls-1" d="M289.88,293.14v-2.23c2.88-.36,3.24-.58,3.24-5.19V272.55c0-5-1.94-6.63-4.46-6.63a7.22,7.22,0,0,0-4.9,2.09v17.93c0,4.32.43,4.61,3.1,5v2.23H270.58v-2.23c4-.43,4.4-.58,4.4-5.19V270.17c0-4.32-.22-4.61-3.46-5.26V263a66.43,66.43,0,0,0,12.24-2.66v5c1.44-1,2.67-2,4-2.95,1.88-1.23,3.24-2,5.48-2,5.61,0,8.64,4.39,8.64,11V285.8c0,4.53.43,4.68,3.74,5.11v2.23Z" transform="translate(-99.44 -243.24)"/><path class="cls-1" d="M339.64,262.11a10.89,10.89,0,0,1-2.6,4.17l-4-.29a8.4,8.4,0,0,1,1.88,5.62c0,7.35-6,10.95-12.82,10.95-.58,0-1.59-.15-3-.22A3,3,0,0,0,318,284.5c0,1.15,1.15,2.66,4,2.66,2.31,0,4.32-.07,6.49-.07,5.32,0,10.36,2.16,10.36,8.5,0,7.78-8.64,14.33-18.14,14.33-8.71,0-12.82-4.61-12.82-8.57a4.19,4.19,0,0,1,1.95-3.53c1.51-1.29,3.81-2.73,5.25-3.74a10.65,10.65,0,0,1-5-4.18,7,7,0,0,1-.86-3.53,19.07,19.07,0,0,0,7.2-4.75,9.9,9.9,0,0,1-6.91-9.43c0-7.92,6.69-11.74,13-11.74h.07a13.37,13.37,0,0,1,7.49,2c3.24-.15,6.34-.58,9.07-.87Zm-17.07,32.33c-3.53,0-4.9.29-5.83,1.44a5.2,5.2,0,0,0-1.44,3.45c0,3.68,3.81,6.84,8.85,6.84,5.26,0,8.14-2.95,8.14-6.62,0-2.59-1.58-3.82-3.67-4.46a20.3,20.3,0,0,0-6-.65Zm-.43-31.4c-2.09,0-3.82,2.67-3.82,7.92,0,5.48,1.73,9,4.61,9,2.45-.07,3.82-2.66,3.82-7.92s-1.52-9-4.54-9Z" transform="translate(-99.44 -243.24)"/><path class="cls-1" d="M370.09,293.21a6.68,6.68,0,0,1-2.95.8c-5.12,0-8.21-2.52-8.21-8.93V264.63h-4.11l-.36-.8,2-2.52h2.52v-5l7.77-5.47,1,.51v10h6.77c.72.8.65,2.89-.43,3.32h-6.34V282.7c0,5.4,2,6.41,3.82,6.41a7.81,7.81,0,0,0,3.53-.79l.72,2.37Z" transform="translate(-99.44 -243.24)"/><path class="cls-1" d="M396.23,293.14v-2.23c3-.5,3.31-.86,3.31-5V272.76c0-5.25-2-7.05-4.68-7.05a6.12,6.12,0,0,0-4.68,2v18.22c0,4.25.36,4.54,3,5v2.23H377.07v-2.23c3.89-.36,4.32-.65,4.32-5.19V252.46c0-4.25-.21-4.25-3.89-4.68v-2.09a99.88,99.88,0,0,0,12.68-2.45V265c2.23-2.24,5.4-4.54,9-4.54,6.05,0,9.14,4.18,9.14,11.59v13.68c0,4.54.36,4.69,3.75,5.19v2.23Z" transform="translate(-99.44 -243.24)"/><path class="cls-1" d="M441.73,286.52c-3.89,5.9-9.07,7.49-12,7.49-9.07,0-14.18-7.21-14.18-15.34a19.08,19.08,0,0,1,5-13.18c2.74-2.88,6.48-5,10.37-5H431c6.48,0,11.09,5.76,11,11.59,0,1.59-.29,2.38-1.95,2.67-1,.21-9.5.86-16.13,1.15.22,7.7,4.32,11.81,9.08,11.81a10.45,10.45,0,0,0,7.41-2.95Zm-12-23.33c-2.52,0-5,3.88-5.4,9.36,2.81,0,5.26-.07,7.92-.22,1.16,0,1.52-.36,1.52-1.65,0-3.61-1.44-7.49-4-7.49Z" transform="translate(-99.44 -243.24)"/><path class="cls-1" d="M493.57,293.14v-2.37c4.9-.51,5.11-.72,5.11-7.13l-.07-28.23h-.29l-14,37.08h-2.16l-12.82-36.14H469l-.65,18.43a109.22,109.22,0,0,0-.15,11.52c.29,3.31,1.59,4.11,6.12,4.47v2.37H458.5v-2.37c3.75-.36,4.75-1.37,5.26-3.89.36-2.24.86-6.34,1.29-13l1-15.33c.51-7.85.15-8.72-5.47-9.22v-2.38h14l11.95,30.53,12.24-30.53h13.9v2.38c-5.4.5-5.54.94-5.47,6.55l.65,27.8c.14,6.33.43,6.55,5.4,7.13v2.37Z" transform="translate(-99.44 -243.24)"/><path class="cls-1" d="M516.82,293.14v-2.23c3.75-.43,4.11-.72,4.11-5.62V270.46c0-4.47-.36-4.61-3.75-5.33v-1.94a90,90,0,0,0,12.53-2.74v24.84c0,4.83.43,5.19,4.25,5.62v2.23Zm3.24-41.69a4.9,4.9,0,0,1,4.83-5,4.81,4.81,0,0,1,4.82,5,4.87,4.87,0,0,1-4.9,5A4.94,4.94,0,0,1,520.06,251.45Z" transform="translate(-99.44 -243.24)"/><path class="cls-1" d="M555.63,293.14v-2.23c2.88-.36,3.24-.58,3.24-5.19V272.55c0-5-1.94-6.63-4.46-6.63a7.22,7.22,0,0,0-4.9,2.09v17.93c0,4.32.43,4.61,3.1,5v2.23H536.33v-2.23c4-.43,4.4-.58,4.4-5.19V270.17c0-4.32-.22-4.61-3.46-5.26V263a66.43,66.43,0,0,0,12.24-2.66v5c1.44-1,2.67-2,4-2.95,1.88-1.23,3.24-2,5.48-2,5.61,0,8.64,4.39,8.64,11V285.8c0,4.53.43,4.68,3.74,5.11v2.23Z" transform="translate(-99.44 -243.24)"/><path class="cls-1" d="M574.56,293.14v-2.23c3.75-.43,4.11-.72,4.11-5.62V270.46c0-4.47-.36-4.61-3.74-5.33v-1.94a89.83,89.83,0,0,0,12.52-2.74v24.84c0,4.83.44,5.19,4.25,5.62v2.23Zm3.25-41.69a4.9,4.9,0,0,1,4.82-5,4.81,4.81,0,0,1,4.82,5,4.86,4.86,0,0,1-4.89,5A4.94,4.94,0,0,1,577.81,251.45Z" transform="translate(-99.44 -243.24)"/><path class="cls-1" d="M610.42,260.45c9.29,0,15.05,7.56,15.05,16.13,0,11.66-7.42,17.43-15.34,17.43-10.44,0-15.55-8.29-15.55-16.06,0-11.88,8.5-17.5,15.77-17.5Zm-1,2.74c-2.66,0-5,3.88-5,12.24,0,9,2.31,15.84,6.41,15.84,2.45,0,5-2,5-12.6,0-9.65-2.3-15.48-6.27-15.48Z" transform="translate(-99.44 -243.24)"/><path class="cls-1" d="M647.79,293.14v-2.23c2.88-.36,3.24-.58,3.24-5.19V272.55c0-5-1.94-6.63-4.47-6.63a7.21,7.21,0,0,0-4.89,2.09v17.93c0,4.32.43,4.61,3.1,5v2.23H628.49v-2.23c4-.43,4.39-.58,4.39-5.19V270.17c0-4.32-.21-4.61-3.45-5.26V263a66.43,66.43,0,0,0,12.24-2.66v5c1.44-1,2.66-2,4-2.95,1.87-1.23,3.24-2,5.47-2,5.62,0,8.64,4.39,8.64,11V285.8c0,4.53.44,4.68,3.75,5.11v2.23Z" transform="translate(-99.44 -243.24)"/></svg>