<?xml version="1.0" encoding="utf-8"?>
<!-- Generator: Adobe Illustrator 22.0.1, SVG Export Plug-In . SVG Version: 6.00 Build 0)  -->
<svg version="1.1" id="Layer_1" xmlns="http://www.w3.org/2000/svg" xmlns:xlink="http://www.w3.org/1999/xlink" x="0px" y="0px"
	 viewBox="0 0 641.5 286.1" style="enable-background:new 0 0 641.5 286.1;" xml:space="preserve">
<style type="text/css">
	.st0{fill:#E8E7E6;}
	.st1{fill:#00B8E8;}
</style>
<polygon class="st0" points="0,0 0,286 642,286 642,0 "/>
<g>
	<path d="M44.2,38.9c4.7,0.8,8.5,3.2,8.5,8c0,3.2-1.7,5.8-4.4,7.3C46,55.5,43.2,56,40.4,56H29.6v-0.6c3.9-0.7,4.2-1,4.2-4.8V30
		c0-3.6-0.5-4-4.2-4.7v-0.6h11.8c3.5,0,5.5,0.8,6.9,1.8c1.5,1.2,2.5,3.1,2.5,5.1C50.8,36.2,47,38.1,44.2,38.9z M39.9,38.6
		c5.6,0,7.2-2.3,7.2-6.2c0-3.2-1.5-6.6-6.5-6.6c-1,0-1.9,0-2.4,0.2c-0.9,0.2-1,0.8-1,2.6v9.9H39.9z M37.2,50.6
		c0,3.6,1.2,4.4,4.5,4.4c4.2,0,7.2-2.4,7.2-7.5c0-5.1-2.8-7.9-8.8-7.9h-2.9V50.6z"/>
	<path d="M73.6,56v-0.6c2.9-0.5,3.1-0.8,3.1-3.5v-5c-1.7,0.4-3.4,0.7-4.6,0.7c-1.8,0-3.6-0.4-4.8-1.4c-1.2-1-1.5-2.5-1.5-4.5v-1.9
		c0-2.7-0.2-3-2.6-3.4v-0.6h8.1v0.6c-2.1,0.5-2.4,0.8-2.4,3.4v1.9c0,2.7,1.5,4.5,5,4.5c0.9,0,2,0,2.8-0.2v-6.2c0-2.7-0.3-3-2.8-3.4
		v-0.6h8.8v0.6c-2.7,0.6-2.8,0.7-2.8,3.5v12c0,2.7,0.1,2.9,2.8,3.5V56H73.6z"/>
	<path d="M99.5,56.6c-0.7,0-1.4-0.3-2.2-1c-0.5-0.5-0.9-1-1.1-2.2c-1.7,1.2-4.2,3.1-5.3,3.1c-3.2,0-5.3-2.7-5.3-5.3
		c0-2.2,1.2-3.5,3.4-4.2c2.6-0.9,6-2,7.2-2.8v-1.4c0-3.5-1.7-5.7-4.3-5.7c-0.9,0-1.6,0.3-2.1,0.9c-0.5,0.6-1,1.9-1.3,3
		c-0.2,0.7-0.7,0.8-0.9,0.8C87,41.7,86,41,86,40.1c0-0.4,0.3-0.8,1.2-1.4c1.2-1,4.6-2.9,6.6-3.3c1.2,0,2.6,0.4,3.5,1.2
		c1.6,1.4,2.1,3,2.1,5.9c0,2.9,0,5.7,0,8.6c0,2.3,0.8,3.1,1.7,3.1c0.6,0,1.1-0.1,1.5-0.5l0.3,0.6L99.5,56.6z M96.3,45.1
		c-0.8,0.5-3.3,1.5-4.6,2.1c-1.6,0.7-2.7,1.6-2.7,3.4c0,2.4,1.8,3.6,3.5,3.6c1.2,0,2.7-0.5,3.7-1.6C96.2,50.2,96.3,47.6,96.3,45.1z"
		/>
	<path d="M107.5,39.5c0-2.2-0.2-2.5-2.8-3v-0.6h8.5v0.6c-2.4,0.5-2.6,0.9-2.6,3v13.9c0,1.2,0.2,1.3,1.3,1.3h5.4
		c1.1,0,1.3-0.1,1.3-1.2V39.9c0-2.5-0.2-2.9-2.6-3.4v-0.6h8.3v0.6c-2.4,0.5-2.6,0.9-2.6,3.4v13.6c0,1.1,0.2,1.2,1.3,1.2h5.4
		c1.1,0,1.3-0.2,1.3-1.2V39.9c0-2.5-0.1-2.9-2.8-3.4v-0.6h8.8v0.6c-2.6,0.5-2.8,0.9-2.8,3.3v14.1c0,0.7,0.2,0.8,0.6,0.8
		c1.2,0,2.3,0,3.4-0.1c-0.3,2.2-0.6,5.9-0.8,8.1h-0.8c-0.2-2-0.4-3.5-0.6-4.7c-0.2-1.5-0.6-2-2.3-2h-27.7v-0.6
		c2.6-0.6,2.8-0.9,2.8-3.4V39.5z"/>
	<path d="M153.3,56.6c-0.7,0-1.4-0.3-2.2-1c-0.5-0.5-0.9-1-1.1-2.2c-1.7,1.2-4.2,3.1-5.3,3.1c-3.2,0-5.3-2.7-5.3-5.3
		c0-2.2,1.2-3.5,3.4-4.2c2.6-0.9,6-2,7.2-2.8v-1.4c0-3.5-1.7-5.7-4.3-5.7c-0.9,0-1.6,0.3-2.1,0.9c-0.5,0.6-1,1.9-1.3,3
		c-0.2,0.7-0.7,0.8-0.9,0.8c-0.7,0-1.7-0.7-1.7-1.7c0-0.4,0.3-0.8,1.2-1.4c1.2-1,4.6-2.9,6.6-3.3c1.2,0,2.6,0.4,3.5,1.2
		c1.6,1.4,2.1,3,2.1,5.9c0,2.9,0,5.7,0,8.6c0,2.3,0.8,3.1,1.7,3.1c0.6,0,1.1-0.1,1.5-0.5l0.3,0.6L153.3,56.6z M150.2,45.1
		c-0.8,0.5-3.3,1.5-4.6,2.1c-1.6,0.7-2.7,1.6-2.7,3.4c0,2.4,1.8,3.6,3.5,3.6c1.2,0,2.7-0.5,3.7-1.6
		C150.1,50.2,150.2,47.6,150.2,45.1z"/>
	<path d="M168.5,56v-0.6c2.1-0.4,2.5-0.7,1.8-1.9l-3.7-6.4c-1.1,1.7-2.3,3.7-3.1,5.3c-1.2,2.2-0.8,2.4,1.7,3V56h-8.1v-0.6
		c3.1-0.5,3.5-1,5-3.3c1.5-2.3,2.6-3.9,3.9-6l-3.8-6.3c-1.6-2.7-2-3-4.4-3.4v-0.5h8.5v0.5c-2,0.5-2.2,0.8-1.4,2.1l3,5.2
		c1.1-1.6,2-3.3,3-4.9c0.7-1.3,0.7-1.7-1.8-2.3l0-0.5h7.8v0.5c-3,0.6-3.5,0.9-4.9,3c-0.7,1-2.1,3-3.5,5.1l4.5,7.1
		c1.8,2.8,2.2,3.3,5,3.7V56H168.5z"/>
	<path d="M197.4,46.1L197.4,46.1l-5-0.1v6c0,2.6,0.2,3,2.9,3.5V56h-8.7v-0.6c2.6-0.5,2.8-0.7,2.8-3.5V40c0-2.6,0-3-2.8-3.5v-0.6h8.7
		v0.6c-2.6,0.5-2.9,0.8-2.9,3.5v4.7h5c0.6-6,5.1-9.3,9.2-9.3c5.3,0,9.3,4.7,9.3,10.5c0,6.4-4.1,10.7-9.2,10.7
		C200.9,56.6,197.5,51.6,197.4,46.1z M212.4,46.5c0-6.4-2.3-10.2-6-10.2c-2.8,0-5.4,2.3-5.4,9.2c0,6.5,2.9,10,6.3,10
		C209.8,55.6,212.4,53,212.4,46.5z"/>
	<path d="M233.9,42c-0.4-1.5-0.9-2.7-1.4-3.5c-0.6-0.9-1.4-1.5-3-1.5h-3c-1.2,0-1.3,0.2-1.3,1.5V52c0,2.6,0.4,2.9,3.4,3.5V56h-9.3
		v-0.6c2.6-0.4,2.8-0.8,2.8-3.5V39.8c0-2.4,0-2.8-2.8-3.3v-0.6h10.8c1.3,0,3,0,4.1-0.1c0,0.8,0.1,4.7,0.3,6L233.9,42z"/>
	<path d="M251.4,56.6c-0.7,0-1.4-0.3-2.2-1c-0.5-0.5-0.9-1-1.1-2.2c-1.7,1.2-4.2,3.1-5.3,3.1c-3.2,0-5.3-2.7-5.3-5.3
		c0-2.2,1.2-3.5,3.4-4.2c2.6-0.9,6-2,7.2-2.8v-1.4c0-3.5-1.7-5.7-4.3-5.7c-0.9,0-1.6,0.3-2.1,0.9c-0.5,0.6-1,1.9-1.3,3
		c-0.2,0.7-0.7,0.8-0.9,0.8c-0.7,0-1.7-0.7-1.7-1.7c0-0.4,0.3-0.8,1.2-1.4c1.2-1,4.6-2.9,6.6-3.3c1.2,0,2.6,0.4,3.5,1.2
		c1.6,1.4,2.1,3,2.1,5.9c0,2.9,0,5.7,0,8.6c0,2.3,0.8,3.1,1.7,3.1c0.6,0,1.1-0.1,1.5-0.5l0.3,0.6L251.4,56.6z M248.3,45.1
		c-0.8,0.5-3.3,1.5-4.6,2.1c-1.6,0.7-2.7,1.6-2.7,3.4c0,2.4,1.8,3.6,3.5,3.6c1.2,0,2.7-0.5,3.7-1.6
		C248.2,50.2,248.3,47.6,248.3,45.1z"/>
	<path d="M293.3,56c-0.7,0.1-1.2,0.1-2,0.1c-2,0-4.5-0.1-5.1-2.8c-0.5-2.4-0.7-3.3-1.1-4.6c-0.6-2.1-1.4-2.9-4-2.9h-1.4v6.1
		c0,2.7,0.2,3,2.9,3.6V56h-8.8v-0.6c2.6-0.6,2.8-0.9,2.8-3.6v-6.1h-1.8c-2.2,0-2.8,0.6-3.6,2.9c-0.3,1-0.7,1.9-1.5,4.6
		c-0.7,2.3-2.1,2.9-4.3,2.9c-0.8,0-1.8,0-2.4-0.1v-0.6c1.8,0.1,3-0.5,4.1-3.8c0.4-1.2,0.6-1.6,1-2.7c0.7-1.9,2.5-3.6,4.2-4
		c-0.9-0.7-1.5-1.7-2.9-4.8c-0.5-1.2-0.8-1.6-1.3-1.6c-1,0-1.9,0.4-2.2,0.4c-0.6,0-1.2-0.9-1.2-1.7c0-1,0.5-2,2.1-2
		c2.1,0,3.3,1.8,4,4.4c1.2,4.2,2.1,5,4,5h1.7v-5.2c0-2.2-0.3-2.7-2.8-3v-0.6h8.8v0.6c-2.5,0.6-2.9,0.8-2.9,3v5.2h1.5
		c2.7,0,3-0.9,4.4-4.9c0.9-2.4,2.4-4.4,4.4-4.4c1.1,0,1.7,0.3,1.7,1.3c0,0.8-0.8,2.4-1.5,2.4c-0.2,0-1.3-0.5-1.8-0.5
		c-0.7,0-1.1,0.7-1.5,1.7c-1.3,3.3-1.9,4.1-2.8,4.8c1.6,0.5,3.6,1.6,4.5,3.9c0.3,1,0.5,1.6,1.1,3.4c0.8,2.3,2,2.9,3.8,3V56z"/>
	<path d="M297.2,39.7c0-2.4-0.2-2.7-2.8-3.2v-0.6h8.8v0.6c-2.5,0.5-2.8,0.8-2.8,3.2v10.7l10.1-11c0-1.8-0.2-2.4-2.8-2.7v-0.6h8.8
		v0.6c-2.6,0.5-2.8,0.8-2.8,3.2v12.2c0,2.7,0.2,3,2.8,3.5V56h-8.8v-0.6c2.4-0.5,2.8-0.8,2.8-3.5v-11L300.3,52c0,2.6,0.3,2.9,2.9,3.4
		V56h-8.8v-0.6c2.6-0.5,2.8-0.8,2.8-3.5V39.7z"/>
	<path class="st1" d="M326.2,40.2L326.2,40.2c-2.3,5.9-3.3,8.7-4.6,12.6c-0.6,1.6-0.1,1.9,1.4,2.4l0.9,0.2V56h-7.5v-0.6
		c2.1-0.4,2.9-0.8,4.1-3.9l6.3-15.9l0.8-0.2l6.8,17.2c0.9,2.2,1.4,2.4,3.5,2.9V56h-8.4v-0.6l0.7-0.2c1.5-0.4,1.9-0.4,1.4-1.8
		L326.2,40.2z"/>
	<path d="M367,45.3c0,7.2-5,11.3-9.6,11.3c-6.9,0-9.6-5.6-9.6-13.6c0-4.8,1.2-10,3.6-13.5c1.5-2.3,3.6-4.1,5.8-4.8
		c1.5-0.5,4.6-0.8,6.9-1.3c1.2-0.2,2.3-0.5,3.1-2l0.5,0.3c-0.5,1.6-2.2,4.6-3.8,5c-1.7,0.4-4,0.5-6.3,0.7c-3.1,0.2-4.5,0.9-5.5,2.6
		c-1.1,2-1.2,6-1,9.3c1.8-1.7,4.2-3.7,7.6-3.7C363.9,35.6,367,39.7,367,45.3z M363.3,46.5c0-5.3-2.1-8.9-6.1-8.9
		c-2.1,0-3.6,0.8-4.5,1.7c-1.1,1.2-1.3,1.9-1.3,4c0,6.6,1.8,12.4,6.5,12.4C360.7,55.6,363.3,53.1,363.3,46.5z"/>
	<path d="M376.5,44.4h2.7c4.8,0,7.8,1.6,7.8,5.4c0,3.3-2.4,6.2-8.4,6.2h-8.1v-0.6c2.6-0.5,2.8-0.9,2.8-3.4V39.9c0-2.6-0.1-3-2.8-3.4
		v-0.6h8.8v0.6c-2.6,0.5-2.9,0.8-2.9,3.4V44.4z M376.5,52.9c0,1.9,0.8,2.1,2.6,2.1c2.9,0,4.5-1.7,4.5-4.8c0-3.5-1.9-4.6-5.1-4.6
		h-1.9V52.9z M388.3,56v-0.6c2.5-0.3,2.8-0.7,2.8-3.5V39.7c0-2.6-0.2-2.9-2.8-3.3v-0.5h8.7v0.5c-2.6,0.5-2.8,1-2.8,3.3V52
		c0,2.9,0.1,3.1,2.8,3.5V56H388.3z"/>
	<path d="M408.8,56v-0.6c2.6-0.5,2.8-0.8,2.8-3.5v-12c0-2.6-0.1-2.9-2.8-3.4v-0.6h8.8v0.6c-2.6,0.6-2.8,0.8-2.8,3.5v12.5
		c0,2.1,0.4,2.3,2.1,2.3h5.3c1.5,0,1.6-0.1,1.6-2.3V39.9c0-2.5-0.2-2.9-2.9-3.4v-0.6h9v0.6c-2.7,0.6-3,0.8-3,3.4v14
		c0,0.7,0.2,0.8,0.6,0.8c1.2,0,2.3,0,3.4-0.1c-0.2,2.2-0.5,5.8-0.7,8.1h-0.8c-0.2-2-0.4-3.5-0.6-4.7c-0.2-1.5-0.6-2-2.3-2H408.8z"/>
	<path d="M435.8,39.7c0-2.4-0.2-2.7-2.8-3.2v-0.6h8.8v0.6c-2.5,0.5-2.8,0.8-2.8,3.2v10.7l10.1-11c0-1.8-0.2-2.4-2.8-2.7v-0.6h8.8
		v0.6c-2.6,0.5-2.8,0.8-2.8,3.2v12.2c0,2.7,0.2,3,2.8,3.5V56h-8.8v-0.6c2.4-0.5,2.8-0.8,2.8-3.5v-11L438.8,52c0,2.6,0.3,2.9,2.9,3.4
		V56h-8.8v-0.6c2.6-0.5,2.8-0.8,2.8-3.5V39.7z"/>
	<path d="M474.3,41.5c-0.3-1.3-0.7-2.3-1.2-3.1c-0.5-0.9-1.1-1.3-3.6-1.3h-1.8l0,15.1c0,2.7,0.2,2.8,3.2,3.3V56h-9.6v-0.6
		c3.1-0.5,3.4-0.7,3.4-3.3l0-15.1H462c-1.1,0-1.9,0.2-2.4,1.2c-0.5,0.9-0.8,1.9-1.3,3.3l-0.6-0.1c0.1-1.7,0.3-3.8,0.3-5.5
		c0.3,0,1.7,0.1,3.9,0.1h8.9c2.3,0,3.6,0,4-0.1c0,1.2,0.1,3.8,0.1,5.5L474.3,41.5z"/>
	<path d="M477.6,36.9c2-0.3,4.5-1.2,6.1-2c0,0.7-0.1,2.3-0.1,3.7l3.8-2.3c1.1-0.7,2.1-1,2.9-1c5.1,0,7.9,4.4,7.9,8.7
		c0,6.8-5.4,11.5-11.5,12.5c-1.2,0-2.5-0.5-3.1-0.9V63c0,4.5,0.4,4.7,3.7,5.2v0.6h-10.1v-0.6c2.8-0.5,3.3-0.7,3.3-4.4V41.1
		c0-2.9-0.5-3.2-2.9-3.7V36.9z M483.6,52.8c1.1,1.2,2.9,1.7,4.6,1.7c4.3,0,6.7-2.7,6.7-8.7c0-5.3-3-8.2-6.3-8.2
		c-1.8,0-3.8,0.9-5,1.9V52.8z"/>
	<path d="M520.7,36.5c-2.2,0.5-2.5,0.9-3.6,3.3c-1.4,3.2-2.6,6.7-6.1,15.4c-2.9,7.3-4,10.3-4.7,12.7c-0.2,1-0.7,1.3-1.2,1.3
		c-1.4,0-2.4-1-2.4-1.9c0-0.4,0.2-0.7,1.2-1.4c1.3-1.1,2.4-2.1,3.6-4.8c1-2.4,1.6-3.6,2-4.7c0.2-0.4,0.1-0.7,0-1.2
		c-1.9-5.2-4.4-11.2-5.7-14.8c-1.2-3-1.4-3.5-4-4v-0.5h8.7v0.5c-2.3,0.6-2.4,0.9-1.7,2.8l4.6,12.4c1.4-3.8,3.7-10.1,4.5-12.4
		c0.6-1.8,0.2-2.2-2.6-2.8v-0.5h7.7V36.5z"/>
	<path d="M538.6,51.8c-2,2.6-5,4.8-7.6,4.8c-5.5,0-8.9-4.6-8.9-9.4c0-3.6,1.3-6.6,4.7-9.2c2.3-1.7,5-2.6,6.6-2.6
		c1.9,0,3.4,0.5,4.2,1.2c0.4,0.3,0.5,0.7,0.5,1.1c0,0.8-0.9,1.9-1.4,1.9c-0.2,0-0.3-0.1-0.8-0.5c-1.2-1-2.8-1.7-4.7-1.7
		c-3.3,0-6,2-6,7.5c0,6.8,4.7,9.1,7.3,9.1c2.1,0,3.7-0.5,5.8-2.6L538.6,51.8z"/>
	<path d="M550.2,46.8c-1.6-0.8-4.7-3.1-4.7-6c0-1.4,0.5-2.7,3.1-4.9c2.5-2.2,4.8-4.1,4.8-6.3c0-2.4-1.3-3.2-3.3-3.2c-3,0-5,3-5.6,3
		s-1.6-0.8-1.6-1.8c0-0.5,0.2-1,0.9-1.6c1.2-1.1,3.1-1.7,4.6-1.7c3.6,0,6.8,3.5,6.8,7.3c0,1.8-0.7,3.4-3.4,5.6
		c-2.3,1.9-3.5,3.4-3.5,4.9c0,1.7,1,3,2.3,4.3L550.2,46.8z M549,56.6c-1.3,0-2.2-1-2.2-2.4c0-1.2,0.9-2.4,2.2-2.4
		c1.2,0,2.3,1.2,2.3,2.4C551.2,55.6,550.2,56.6,549,56.6z"/>
	<path class="st1" d="M28.9,111.6l-0.9,4.2h-0.8c-0.1-3.1-0.2-6.3-0.3-9.3c0.9,0,1.8,0,2.7,0c0.7,0,0.7-0.4,0.9-0.6l10.5-29.7
		l0.8-0.1l10.1,30c0.2,0.4,0.4,0.4,0.8,0.4c1.2,0,2.4,0,3.7,0c-0.3,2.4-0.8,6.5-1,9.3h-0.9c-0.2-1.7-0.3-3.3-0.7-5
		c-0.4-2.4-1.2-2.8-3.2-2.8H32.5C30.2,108,29.5,108.6,28.9,111.6z M40.1,81.9c-1.8,5.5-6.2,18.5-8.1,24.2c-0.1,0.2,0,0.3,0.2,0.3
		l15.8,0c0.1,0,0.3-0.1,0.2-0.2L40.1,81.9z"/>
	<path d="M72.5,108.6c-0.7,0-1.4-0.3-2.2-1c-0.5-0.5-0.9-1-1.1-2.2c-1.7,1.2-4.2,3.1-5.3,3.1c-3.2,0-5.3-2.7-5.3-5.3
		c0-2.2,1.2-3.5,3.4-4.2c2.6-0.9,6-2,7.2-2.8v-1.4c0-3.5-1.7-5.7-4.3-5.7c-0.9,0-1.6,0.3-2.1,0.9c-0.5,0.6-1,1.9-1.3,3
		c-0.2,0.7-0.7,0.8-0.9,0.8c-0.7,0-1.7-0.7-1.7-1.7c0-0.4,0.3-0.8,1.2-1.4c1.2-1,4.6-2.9,6.6-3.3c1.2,0,2.6,0.4,3.5,1.2
		c1.6,1.4,2.1,3,2.1,5.9c0,2.9,0,5.7,0,8.6c0,2.3,0.8,3.1,1.7,3.1c0.6,0,1.1-0.1,1.5-0.5l0.3,0.6L72.5,108.6z M69.3,97.1
		c-0.8,0.5-3.3,1.5-4.6,2.1c-1.6,0.7-2.7,1.6-2.7,3.4c0,2.4,1.8,3.6,3.5,3.6c1.2,0,2.7-0.5,3.7-1.6C69.2,102.2,69.3,99.6,69.3,97.1z
		"/>
	<path d="M78.5,112.8c2.1-1,3.6-2.4,3.6-4.3c0-1.4-1.1-2.2-3-2.7c-0.1,0-0.5-0.4-0.5-1.1c0-1,0.8-1.8,2.1-1.8c1.4,0,3.5,1.4,3.5,4.4
		c0,3.3-2.9,5.4-5.4,6.2L78.5,112.8z"/>
	<path d="M101.9,97.7v6.1c0,2.8,0.2,3.1,2.8,3.6v0.6H96v-0.6c2.6-0.5,2.8-0.8,2.8-3.6v-12c0-2.5-0.2-2.8-2.8-3.3v-0.6h8.8v0.6
		c-2.4,0.5-2.8,0.7-2.8,3.3v4.8h9.4v-4.8c0-2.4-0.2-2.8-2.8-3.3v-0.6h8.7v0.6c-2.6,0.4-2.8,0.9-2.8,3.3v12c0,2.8,0.2,3.2,2.8,3.6
		v0.6h-8.7v-0.6c2.5-0.5,2.8-0.9,2.8-3.6v-6.1H101.9z"/>
	<path d="M130.5,87.4c5.7,0,9.7,4.6,9.7,10.2c0,7.2-5.2,11-9.7,11c-6,0-9.8-5-9.8-10.2C120.6,90.8,126.5,87.4,130.5,87.4z
		 M129.9,88.4c-3.4,0-5.7,3.6-5.7,8.5c0,6.4,2.9,10.6,6.8,10.6c3,0,5.5-2.3,5.5-9C136.5,93.3,134.3,88.4,129.9,88.4z"/>
	<path d="M166.4,87.5c6.5,0.3,11,3.9,11,10.2c0,7.6-6,10.6-11,10.8v7.4c0,3.2,0.2,3.5,3.4,4.1v0.6h-9.6v-0.6c3-0.5,3.3-0.9,3.3-4.1
		v-7.5c-6.9-0.2-11.6-3.9-11.6-10.4c0-7,5.6-10.3,11.6-10.7v-8.3c0-2.4-0.1-2.6-3.1-3.1v-0.5c1.8-0.3,4.6-1,6-1.6V87.5z M163.5,88.6
		c-5.1,0.1-7.9,3.1-7.9,8.4c0,7.6,4.2,10.1,7.9,10.5V88.6z M166.4,107.5c3.4-0.1,7.5-1.9,7.5-8.7c0-6.8-2.7-9.5-7.5-10.3V107.5z"/>
	<path d="M194.9,108.6c-0.7,0-1.4-0.3-2.2-1c-0.5-0.5-0.9-1-1.1-2.2c-1.7,1.2-4.2,3.1-5.3,3.1c-3.2,0-5.3-2.7-5.3-5.3
		c0-2.2,1.2-3.5,3.4-4.2c2.6-0.9,6-2,7.2-2.8v-1.4c0-3.5-1.7-5.7-4.3-5.7c-0.9,0-1.6,0.3-2.1,0.9c-0.5,0.6-1,1.9-1.3,3
		c-0.2,0.7-0.7,0.8-0.9,0.8c-0.7,0-1.7-0.7-1.7-1.7c0-0.4,0.3-0.8,1.2-1.4c1.2-1,4.6-2.9,6.6-3.3c1.2,0,2.6,0.4,3.5,1.2
		c1.6,1.4,2.1,3,2.1,5.9c0,2.9,0,5.7,0,8.6c0,2.3,0.8,3.1,1.7,3.1c0.6,0,1.1-0.1,1.5-0.5l0.3,0.6L194.9,108.6z M191.7,97.1
		c-0.8,0.5-3.3,1.5-4.6,2.1c-1.6,0.7-2.7,1.6-2.7,3.4c0,2.4,1.8,3.6,3.5,3.6c1.2,0,2.7-0.5,3.7-1.6
		C191.6,102.2,191.7,99.6,191.7,97.1z"/>
	<path class="st1" d="M208.6,92.2L208.6,92.2c-2.3,5.9-3.3,8.7-4.6,12.6c-0.6,1.6-0.1,1.9,1.4,2.4l0.9,0.2v0.6h-7.5v-0.6
		c2.1-0.4,2.9-0.8,4.1-3.9l6.3-15.9l0.8-0.2l6.8,17.2c0.9,2.2,1.4,2.4,3.5,2.9v0.6h-8.4v-0.6l0.7-0.2c1.5-0.4,1.9-0.4,1.4-1.8
		L208.6,92.2z"/>
	<path d="M227.1,96.4h3.2c4.7,0,7.8,1.5,7.8,5.3c0,3.1-2.5,6.2-8.4,6.2h-8.5v-0.6c2.6-0.5,2.8-0.8,2.8-3.4V91.9
		c0-2.6-0.1-2.9-2.8-3.4v-0.6h8.8v0.6c-2.6,0.5-2.9,0.8-2.9,3.4V96.4z M227.1,105c0,1.8,1.2,2.1,3,2.1c2.9,0,4.5-1.9,4.5-5
		c0-3.6-2.1-4.5-5.6-4.5h-1.9V105z"/>
	<path d="M240.9,108v-0.6c2.6-0.5,2.8-0.9,2.8-3.4V91.5c0-2.2-0.2-2.5-2.8-3v-0.6h8.5v0.6c-2.4,0.5-2.6,0.8-2.6,2.9v13.9
		c0,1.2,0.2,1.3,1.3,1.3h5.4c1.1,0,1.3-0.1,1.3-1.2V91.8c0-2.4-0.2-2.8-2.6-3.3v-0.6h8.3v0.6c-2.4,0.5-2.6,0.9-2.6,3.3v13.7
		c0,1.1,0.2,1.2,1.3,1.2h5.4c1.1,0,1.3-0.2,1.3-1.2V91.8c0-2.4-0.1-2.8-2.8-3.3v-0.6h8.8v0.6c-2.6,0.5-2.8,0.8-2.8,3.2V104
		c0,2.5,0.3,2.9,2.9,3.4v0.6H240.9z"/>
	<path d="M277.9,91.7c0-2.4-0.2-2.7-2.8-3.2v-0.6h8.8v0.6c-2.5,0.5-2.8,0.8-2.8,3.2v10.7l10.1-11c0-1.8-0.2-2.4-2.8-2.7v-0.6h8.8
		v0.6c-2.6,0.5-2.8,0.8-2.8,3.2v12.2c0,2.7,0.2,3,2.8,3.5v0.6h-8.8v-0.6c2.4-0.5,2.8-0.8,2.8-3.5v-11L281,104c0,2.6,0.3,2.9,2.9,3.4
		v0.6H275v-0.6c2.6-0.5,2.8-0.8,2.8-3.5V91.7z"/>
	<path d="M302.9,92.3c0-2.8-0.1-3.4-2.8-3.7v-0.6h9.8c4.6,0,6.7,1.8,6.7,4.5c0,2.9-2.5,4-4.5,4.6v0.1c2.9,0.5,5.6,1.9,5.6,4.9
		c0,4.8-4.7,6-9,6h-8.5v-0.6c2.5-0.5,2.8-0.7,2.8-3.8V92.3z M308.5,96.7c3.6,0,4.7-1.2,4.7-3.8c0-2.6-1.3-4-4.7-4
		c-2,0-2.5,0.1-2.5,1.3v6.5H308.5z M306,103.5c0,3.1,1.4,3.6,3.5,3.6c2.4,0,4.6-1.5,4.6-4.9c0-3.2-2.3-4.5-5.7-4.5H306V103.5z"/>
	<path d="M326.4,96.4h2.7c4.8,0,7.8,1.6,7.8,5.4c0,3.3-2.4,6.2-8.4,6.2h-8.1v-0.6c2.6-0.5,2.8-0.9,2.8-3.4V91.9c0-2.6-0.1-3-2.8-3.4
		v-0.6h8.8v0.6c-2.6,0.5-2.9,0.8-2.9,3.4V96.4z M326.4,104.9c0,1.9,0.8,2.1,2.6,2.1c2.9,0,4.5-1.7,4.5-4.8c0-3.5-1.9-4.6-5.1-4.6
		h-1.9V104.9z M338.3,108v-0.6c2.5-0.3,2.8-0.7,2.8-3.5V91.7c0-2.6-0.2-2.9-2.8-3.3v-0.5h8.7v0.5c-2.6,0.5-2.8,1-2.8,3.3V104
		c0,2.9,0.1,3.1,2.8,3.5v0.6H338.3z"/>
	<path d="M352.9,91.7c0-2.4-0.2-2.7-2.8-3.2v-0.6h8.8v0.6c-2.5,0.5-2.8,0.8-2.8,3.2v10.7l10.1-11c0-1.8-0.2-2.4-2.8-2.7v-0.6h8.8
		v0.6c-2.6,0.5-2.8,0.8-2.8,3.2v12.2c0,2.7,0.2,3,2.8,3.5v0.6h-8.8v-0.6c2.4-0.5,2.8-0.8,2.8-3.5v-11L355.9,104
		c0,2.6,0.3,2.9,2.9,3.4v0.6H350v-0.6c2.6-0.5,2.8-0.8,2.8-3.5V91.7z M361,81.9c2.2,0,3.4-0.6,3.4-0.9c0-0.7-0.6-1.2-0.6-1.9
		c0-1.1,0.6-1.8,1.7-1.8c0.8,0,1.6,0.6,1.6,1.7c0,2.2-2.8,3.9-6.1,3.9c-3.5,0-6.2-1.7-6.2-3.7c0-1.3,1-2,1.9-2c1.2,0,1.6,1,1.6,1.8
		c0,0.7-0.5,1.2-0.5,1.8C357.8,81.1,358.7,81.9,361,81.9z"/>
	<path d="M385,92.3c2.6-3.3,5.4-4.9,8.3-4.9c2.8,0,5,2.4,5,6.7c0,4.7-1.7,8.4-4.4,11.1c-2,2-5.5,3.5-7.6,3.5c-2.1,0-3.6-1.8-3.7-2.7
		c0-0.6,0.4-1.6,1.2-1.9c0.3-0.1,0.5,0,0.7,0.3c0.8,1.3,2.2,2.7,4.1,2.7c2.8,0,5.4-4,6.2-8.9l-8.6,0.3l0.6-1.6L395,97
		c0.1-0.7,0.1-1.5,0.1-2.2c0-3.4-1.3-5.3-3.5-5.3c-2.4,0-4.3,1.4-6.3,3.3L385,92.3z"/>
	<path d="M402.2,91.6c2.2-2.7,4.4-4.2,5.7-4.2c1.2,0,1.3,1.3,0.7,4.1l-1.7,7.6c2.7-3.5,9.6-11.7,12.4-11.7c1.3,0,1.8,0.7,1.8,1.4
		c0,0.7-0.7,1.8-1.2,2.3c-0.3,0.2-0.5,0.3-0.7,0.1c-0.8-0.6-1.3-1.2-1.9-1.2c-1.3,0-5,4-6.3,5.5c0.9,2.2,2.4,5.4,4.2,8.5
		c1.2,2,1.9,2.1,2.4,2.1c0.6,0,1.2-0.4,2.7-2.3l0.4,0.5c-2.1,3.3-4,4.3-4.8,4.3c-1.2,0-2-1-3.1-3.1c-1.4-2.6-2.6-5.7-3.6-7.9
		c-1.6,2-2.7,3.6-3,4.8c-0.1,0.7-0.8,3.8-1.2,5.4c-0.9,0.3-1.9,0.5-2.8,0.9l-0.2-0.3c1.3-5.7,2.7-11,3.8-16.1
		c0.4-1.7,0.2-2.1-0.1-2.1c-0.4,0-1.2,0.3-2.9,2.1L402.2,91.6z"/>
	<path d="M427.8,88.9c1.5-1.1,2.8-1.5,4.4-1.5c2.3,0,4.6,1.5,4.6,4.1c0,2.6-2.4,4-5.1,5.3c1.5,0.4,4.8,1.5,4.8,4.4
		c0,4.4-5.8,7.4-8.6,7.4c-3.6,0-5.2-2.2-5.2-3.4c0-0.6,0.7-1.7,1.2-1.7c0.4,0,0.6,0.4,0.9,0.8c1,1.5,2.8,2.7,4.8,2.7
		c2.4,0,3.8-1.7,3.8-4.9c0-2.7-1.8-4.2-4.4-4.2c-0.5,0-1,0-1.3,0.1l0-0.7c5.5-0.9,6.3-3.7,6.3-5.1c0-1.7-1.2-2.9-3.3-2.9
		c-1.8,0-3.5,1-4.8,2.4l-0.4-0.6C426.3,90.2,427.4,89.1,427.8,88.9z"/>
	<path d="M445.5,108.6c-1.9,0-4.8-1.2-4.8-6.9c0-3.9,1.5-9.1,5.3-12c1.6-1.3,4.2-2.4,5.9-2.4c2,0,3.2,1.6,3.2,3.2
		c0,4.2-6,6.4-11.2,7.6c-0.1,0.9-0.1,1.9-0.1,2.3c0,2.8,0.9,6,3.8,6c1.8,0,4-1.2,6.2-3.6l0.4,0.6C451.4,107,448.2,108.6,445.5,108.6
		z M444.2,97.1c6.6-1.1,8.3-3.5,8.3-5.9c0-1.2-0.8-2.3-2.4-2.3C447.8,88.9,445.2,91,444.2,97.1z"/>
	<path d="M483.3,104.1c-2.2,3.1-4.8,4.5-5.8,4.5c-1.1,0-1.5-1.7-0.9-4.7c0.6-3.7,1.3-7.2,2.4-12.9c-3.2,4.7-7.5,11.8-10.6,17.2
		l-0.7,0.1c-0.2-4.3-1.1-13.7-1.5-16.9c-0.6,1.7-2.2,7.1-3.3,9.9c-1.2,3-3,7.5-5.8,7.5c-0.9,0-1.2-0.5-1.2-1.3
		c0-1.5,1.2-3.6,2.3-3.6c0.6,0,1.2,0.7,1.6,0.7c0.4,0,0.7-0.5,1.1-1.3c1.2-2.2,3.8-10.3,4.7-13.6l0.2-1.3c0.8-0.2,1.4-0.5,2.3-1
		c0.3,2,1.6,12.5,2,15.6c2.1-3.3,7.2-11.2,9.7-14.9c0.5-0.1,1.6-0.2,2.4-0.6c-0.2,0.6-0.4,1.6-1,4.3c-0.8,4.3-1.5,8-1.9,11.7
		c-0.2,1.9,0,2.4,0.4,2.5c0.6,0,1.8-0.9,3.1-2.3L483.3,104.1z"/>
	<path d="M505.4,104.2c-2.3,3-4.5,4.4-5.7,4.4c-1.3,0-1.6-1.3-0.7-5c0.9-3.8,1.5-6.3,2.3-9.7c0.6-3,0.6-4.1-0.7-4.1
		c-2,0-5.9,3.6-8.5,8.2c-0.9,1.5-1.2,2.6-1.6,4.1c-0.4,1.5-0.9,3.9-1.3,5.8c-1.1,0.2-1.9,0.5-2.7,0.8l-0.3-0.2
		c1.3-5.4,2.6-10.8,3.8-16.1c0.4-1.7,0.2-2.1-0.2-2.1c-0.4,0-1.3,0.5-2.9,2.1l-0.4-0.5c2.3-2.9,4.5-4.2,5.5-4.2
		c1.3,0,1.4,1.7,0.2,6.4l-0.8,3.4c3.3-5.1,8.2-9.8,11.3-9.8c1.8,0,2.6,1.1,1.1,7.4c-0.8,3.3-1.4,6-2.1,9c-0.3,1.6-0.2,2.2,0.2,2.2
		c0.7,0,1.7-0.9,3.1-2.4L505.4,104.2z"/>
	<path class="st1" d="M528.1,104.2c-2,3-4.3,4.4-5.3,4.4c-1.6,0-1.7-2.1-1.7-5.4c-0.1-3.4-0.3-7.5-0.2-11.8
		c-1.8,3.3-4.2,7.7-5.9,10.4c-2.5,4-4.4,6.9-6.3,6.9c-0.7,0-1.2-0.4-1.2-1.2c0-1.5,1.2-3.7,2.2-3.7c0.6,0,0.9,1,1.6,1
		c0.4,0,1.1-0.8,2.6-3c1.7-2.4,4.3-7.3,7-12.3l0.3-1.3c1.3-0.1,1.8-0.4,2.4-0.7c-0.1,0.8,0,2.2,0,4.3c0,3.1,0.1,7.7,0.4,11.2
		c0,1.9,0.3,2.9,0.9,3c0.6,0,1.7-0.8,2.9-2.3L528.1,104.2z"/>
	<path d="M541.2,100.9c-3.1,3.3-3.9,4.2-6,6c-1.4,1.2-2.7,1.8-3.6,1.8c-1,0-2-0.9-2-2.1c0-1.4,1.4-2.7,1.9-2.7
		c0.3,0,0.5,0.1,0.7,0.4c0.6,0.8,1.2,1.3,1.6,1.3c1,0,2.3-0.9,8.3-7.1c-1.4,0.5-2.5,0.7-3.1,0.7c-2.6,0-4.1-2.3-4.1-4.4
		c0-3.9,5.1-7.5,10.3-7.5c2.3,0,4.3,0.5,5.1,0.8c-0.1,0.4-0.4,1.3-0.7,2.3c-0.2,0.9-2.6,10.3-3.3,13.1c-0.3,1.2-0.6,2.4,0,2.4
		c0.4,0,1.4-0.4,3.1-2.3l0.4,0.6c-2.2,2.9-4.5,4.3-6,4.3c-1.2,0-1.2-1.2-0.2-4.6c0.7-2.3,1.7-5.9,2.4-8.4
		C544.6,97.2,542.5,99.5,541.2,100.9z M547.2,89.6c-0.9-0.6-2.9-0.8-3.8-0.8c-4.6,0-5.5,2.5-5.5,5.4c0,2.6,1.5,3.8,2.9,3.8
		c1.4,0,2.5-0.7,4.1-2.8C545.9,94,546.2,93.3,547.2,89.6z"/>
	<path d="M560.8,87.9c1.6-0.4,3.2-0.5,4.4-0.5c4.6,0,6.1,2.6,6.1,6.1c0,2.9-1.2,6.6-3.9,9.7c-2.3,2.6-5.4,4.6-8.1,5.4
		c-0.7,0-2-0.1-2.7-0.4l-1.4,7.9c-0.6,3.5-0.3,3.6,1.8,3.8l1.2,0.1l-0.1,0.7l-10.1,0.6l0.1-0.6c3.3-0.8,3.6-1,4.4-4.4
		c1.7-8.4,3.6-17.6,5.3-26.4c-1.3,0.4-2.8,1.2-3.6,1.6l-0.2-0.7c0.9-0.5,2.5-1.5,4.1-2.2l0.4-1.9c0.8-1,1.9-2,2.9-2.6l0.4,0.2
		L560.8,87.9z M557.2,105.5c0.4,0.8,1.8,1.5,2.9,1.5c3.5,0,8.1-6.6,8.1-12.7c0-4.5-2-5.6-5.2-5.6c-0.7,0-1.8,0.1-2.5,0.3
		C559.4,94.7,558.3,100,557.2,105.5z"/>
	<path d="M580,76.2c1.3,0,2.3,0.3,2.3,1.4c0,0.7-0.1,1.8-0.2,2.6c-0.4,3.7-1.2,12.5-1.6,18.5h-0.9c-0.4-6-1.2-14.2-1.6-18.4
		c0-0.7-0.2-1.7-0.2-2.6C577.9,76.8,578.5,76.2,580,76.2z M580.1,108.6c-1.3,0-2.2-1-2.2-2.3c0-1.2,0.8-2.3,2.2-2.3
		c1.4,0,2.3,1.1,2.3,2.3C582.3,107.6,581.4,108.6,580.1,108.6z"/>
</g>
<g>
	<path d="M44.2,172.5c4.7,0.8,8.5,3.2,8.5,8c0,3.2-1.7,5.8-4.4,7.3c-2.3,1.3-5.1,1.8-7.9,1.8H29.6V189c3.9-0.7,4.2-1,4.2-4.8v-20.5
		c0-3.6-0.5-4-4.2-4.7v-0.6h11.8c3.5,0,5.5,0.8,6.9,1.8c1.5,1.2,2.5,3.1,2.5,5.1C50.8,169.8,47,171.7,44.2,172.5z M39.9,172.2
		c5.6,0,7.2-2.3,7.2-6.2c0-3.2-1.5-6.6-6.5-6.6c-1,0-1.9,0-2.4,0.2c-0.9,0.2-1,0.8-1,2.6v9.9H39.9z M37.2,184.2
		c0,3.6,1.2,4.4,4.5,4.4c4.2,0,7.2-2.4,7.2-7.5c0-5.1-2.8-7.9-8.8-7.9h-2.9V184.2z"/>
	<path d="M73.6,189.6V189c2.9-0.5,3.1-0.8,3.1-3.5v-5c-1.7,0.4-3.4,0.7-4.6,0.7c-1.8,0-3.6-0.4-4.8-1.4c-1.2-1-1.5-2.5-1.5-4.5v-1.9
		c0-2.7-0.2-3-2.6-3.4v-0.6h8.1v0.6c-2.1,0.5-2.4,0.8-2.4,3.4v1.9c0,2.7,1.5,4.5,5,4.5c0.9,0,2,0,2.8-0.2v-6.2c0-2.7-0.3-3-2.8-3.4
		v-0.6h8.8v0.6c-2.7,0.6-2.8,0.7-2.8,3.5v12c0,2.7,0.1,2.9,2.8,3.5v0.6H73.6z"/>
	<path d="M99.5,190.2c-0.7,0-1.4-0.3-2.2-1c-0.5-0.5-0.9-1-1.1-2.2c-1.7,1.2-4.2,3.1-5.3,3.1c-3.2,0-5.3-2.7-5.3-5.3
		c0-2.2,1.2-3.5,3.4-4.2c2.6-0.9,6-2,7.2-2.8v-1.4c0-3.5-1.7-5.7-4.3-5.7c-0.9,0-1.6,0.3-2.1,0.9c-0.5,0.6-1,1.9-1.3,3
		c-0.2,0.7-0.7,0.8-0.9,0.8c-0.7,0-1.7-0.7-1.7-1.7c0-0.4,0.3-0.8,1.2-1.4c1.2-1,4.6-2.9,6.6-3.3c1.2,0,2.6,0.4,3.5,1.2
		c1.6,1.4,2.1,3,2.1,5.9c0,2.9,0,5.7,0,8.6c0,2.3,0.8,3.1,1.7,3.1c0.6,0,1.1-0.1,1.5-0.5l0.3,0.6L99.5,190.2z M96.3,178.7
		c-0.8,0.5-3.3,1.5-4.6,2.1c-1.6,0.7-2.7,1.6-2.7,3.4c0,2.4,1.8,3.6,3.5,3.6c1.2,0,2.7-0.5,3.7-1.6
		C96.2,183.8,96.3,181.2,96.3,178.7z"/>
	<path d="M107.5,173.1c0-2.2-0.2-2.5-2.8-3v-0.6h8.5v0.6c-2.4,0.5-2.6,0.9-2.6,3V187c0,1.2,0.2,1.3,1.3,1.3h5.4
		c1.1,0,1.3-0.1,1.3-1.2v-13.6c0-2.5-0.2-2.9-2.6-3.4v-0.6h8.3v0.6c-2.4,0.5-2.6,0.9-2.6,3.4v13.6c0,1.1,0.2,1.2,1.3,1.2h5.4
		c1.1,0,1.3-0.2,1.3-1.2v-13.6c0-2.5-0.1-2.9-2.8-3.4v-0.6h8.8v0.6c-2.6,0.5-2.8,0.9-2.8,3.3v14.1c0,0.7,0.2,0.8,0.6,0.8
		c1.2,0,2.3,0,3.4-0.1c-0.3,2.2-0.6,5.9-0.8,8.1h-0.8c-0.2-2-0.4-3.5-0.6-4.7c-0.2-1.5-0.6-2-2.3-2h-27.7V189
		c2.6-0.6,2.8-0.9,2.8-3.4V173.1z"/>
	<path d="M153.3,190.2c-0.7,0-1.4-0.3-2.2-1c-0.5-0.5-0.9-1-1.1-2.2c-1.7,1.2-4.2,3.1-5.3,3.1c-3.2,0-5.3-2.7-5.3-5.3
		c0-2.2,1.2-3.5,3.4-4.2c2.6-0.9,6-2,7.2-2.8v-1.4c0-3.5-1.7-5.7-4.3-5.7c-0.9,0-1.6,0.3-2.1,0.9c-0.5,0.6-1,1.9-1.3,3
		c-0.2,0.7-0.7,0.8-0.9,0.8c-0.7,0-1.7-0.7-1.7-1.7c0-0.4,0.3-0.8,1.2-1.4c1.2-1,4.6-2.9,6.6-3.3c1.2,0,2.6,0.4,3.5,1.2
		c1.6,1.4,2.1,3,2.1,5.9c0,2.9,0,5.7,0,8.6c0,2.3,0.8,3.1,1.7,3.1c0.6,0,1.1-0.1,1.5-0.5l0.3,0.6L153.3,190.2z M150.2,178.7
		c-0.8,0.5-3.3,1.5-4.6,2.1c-1.6,0.7-2.7,1.6-2.7,3.4c0,2.4,1.8,3.6,3.5,3.6c1.2,0,2.7-0.5,3.7-1.6
		C150.1,183.8,150.2,181.2,150.2,178.7z"/>
	<path d="M168.5,189.6V189c2.1-0.4,2.5-0.7,1.8-1.9l-3.7-6.4c-1.1,1.7-2.3,3.7-3.1,5.3c-1.2,2.2-0.8,2.4,1.7,3v0.6h-8.1V189
		c3.1-0.5,3.5-1,5-3.3c1.5-2.3,2.6-3.9,3.9-6l-3.8-6.3c-1.6-2.7-2-3-4.4-3.4v-0.5h8.5v0.5c-2,0.5-2.2,0.8-1.4,2.1l3,5.2
		c1.1-1.6,2-3.3,3-4.9c0.7-1.3,0.7-1.7-1.8-2.3l0-0.5h7.8v0.5c-3,0.6-3.5,0.9-4.9,3c-0.7,1-2.1,3-3.5,5.1l4.5,7.1
		c1.8,2.8,2.2,3.3,5,3.7v0.6H168.5z"/>
	<path d="M197.4,179.7L197.4,179.7l-5-0.1v6c0,2.6,0.2,3,2.9,3.5v0.6h-8.7V189c2.6-0.5,2.8-0.7,2.8-3.5v-12c0-2.6,0-3-2.8-3.5v-0.6
		h8.7v0.6c-2.6,0.5-2.9,0.8-2.9,3.5v4.7h5c0.6-6,5.1-9.3,9.2-9.3c5.3,0,9.3,4.7,9.3,10.5c0,6.4-4.1,10.7-9.2,10.7
		C200.9,190.2,197.5,185.2,197.4,179.7z M212.4,180.1c0-6.4-2.3-10.2-6-10.2c-2.8,0-5.4,2.3-5.4,9.2c0,6.5,2.9,10,6.3,10
		C209.8,189.2,212.4,186.6,212.4,180.1z"/>
	<path d="M233.9,175.6c-0.4-1.5-0.9-2.7-1.4-3.5c-0.6-0.9-1.4-1.5-3-1.5h-3c-1.2,0-1.3,0.2-1.3,1.5v13.4c0,2.6,0.4,2.9,3.4,3.5v0.6
		h-9.3V189c2.6-0.4,2.8-0.8,2.8-3.5v-12.2c0-2.4,0-2.8-2.8-3.3v-0.6h10.8c1.3,0,3,0,4.1-0.1c0,0.8,0.1,4.7,0.3,6L233.9,175.6z"/>
	<path d="M251.4,190.2c-0.7,0-1.4-0.3-2.2-1c-0.5-0.5-0.9-1-1.1-2.2c-1.7,1.2-4.2,3.1-5.3,3.1c-3.2,0-5.3-2.7-5.3-5.3
		c0-2.2,1.2-3.5,3.4-4.2c2.6-0.9,6-2,7.2-2.8v-1.4c0-3.5-1.7-5.7-4.3-5.7c-0.9,0-1.6,0.3-2.1,0.9c-0.5,0.6-1,1.9-1.3,3
		c-0.2,0.7-0.7,0.8-0.9,0.8c-0.7,0-1.7-0.7-1.7-1.7c0-0.4,0.3-0.8,1.2-1.4c1.2-1,4.6-2.9,6.6-3.3c1.2,0,2.6,0.4,3.5,1.2
		c1.6,1.4,2.1,3,2.1,5.9c0,2.9,0,5.7,0,8.6c0,2.3,0.8,3.1,1.7,3.1c0.6,0,1.1-0.1,1.5-0.5l0.3,0.6L251.4,190.2z M248.3,178.7
		c-0.8,0.5-3.3,1.5-4.6,2.1c-1.6,0.7-2.7,1.6-2.7,3.4c0,2.4,1.8,3.6,3.5,3.6c1.2,0,2.7-0.5,3.7-1.6
		C248.2,183.8,248.3,181.2,248.3,178.7z"/>
	<path d="M293.3,189.6c-0.7,0.1-1.2,0.1-2,0.1c-2,0-4.5-0.1-5.1-2.8c-0.5-2.4-0.7-3.3-1.1-4.6c-0.6-2.1-1.4-2.9-4-2.9h-1.4v6.1
		c0,2.7,0.2,3,2.9,3.6v0.6h-8.8V189c2.6-0.6,2.8-0.9,2.8-3.6v-6.1h-1.8c-2.2,0-2.8,0.6-3.6,2.9c-0.3,1-0.7,1.9-1.5,4.6
		c-0.7,2.3-2.1,2.9-4.3,2.9c-0.8,0-1.8,0-2.4-0.1V189c1.8,0.1,3-0.5,4.1-3.8c0.4-1.2,0.6-1.6,1-2.7c0.7-1.9,2.5-3.6,4.2-4
		c-0.9-0.7-1.5-1.7-2.9-4.8c-0.5-1.2-0.8-1.6-1.3-1.6c-1,0-1.9,0.4-2.2,0.4c-0.6,0-1.2-0.9-1.2-1.7c0-1,0.5-2,2.1-2
		c2.1,0,3.3,1.8,4,4.4c1.2,4.2,2.1,5,4,5h1.7v-5.2c0-2.2-0.3-2.7-2.8-3v-0.6h8.8v0.6c-2.5,0.6-2.9,0.8-2.9,3v5.2h1.5
		c2.7,0,3-0.9,4.4-4.9c0.9-2.4,2.4-4.4,4.4-4.4c1.1,0,1.7,0.3,1.7,1.3c0,0.8-0.8,2.4-1.5,2.4c-0.2,0-1.3-0.5-1.8-0.5
		c-0.7,0-1.1,0.7-1.5,1.7c-1.3,3.3-1.9,4.1-2.8,4.8c1.6,0.5,3.6,1.6,4.5,3.9c0.3,1,0.5,1.6,1.1,3.4c0.8,2.3,2,2.9,3.8,3V189.6z"/>
	<path d="M297.2,173.3c0-2.4-0.2-2.7-2.8-3.2v-0.6h8.8v0.6c-2.5,0.5-2.8,0.8-2.8,3.2v10.7l10.1-11c0-1.8-0.2-2.4-2.8-2.7v-0.6h8.8
		v0.6c-2.6,0.5-2.8,0.8-2.8,3.2v12.2c0,2.7,0.2,3,2.8,3.5v0.6h-8.8V189c2.4-0.5,2.8-0.8,2.8-3.5v-11l-10.1,11.1
		c0,2.6,0.3,2.9,2.9,3.4v0.6h-8.8V189c2.6-0.5,2.8-0.8,2.8-3.5V173.3z"/>
	<path class="st1" d="M333.1,172.6c0-2-0.2-1.9-1.4-1.9H330c-1.6,0-1.7,0.2-1.8,1.7c-0.7,9.3-3.5,13.8-4.2,14.8
		c-0.9,1.5-2.3,3-3.6,3c-1,0-1.8-0.4-1.8-1.7c0-1.2,0.6-2.7,1.7-2.7c0.6,0,1.6,0.6,2.2,0.6c1.2,0,4.1-5.6,4.4-13.5
		c0-1.7-0.2-2.1-3.3-2.7v-0.6h15.6v0.6c-2.9,0.6-2.8,1-2.8,3.4v12c0,2.6,0.1,2.8,2.8,3.5v0.6h-8.8V189c2.6-0.6,2.8-0.9,2.8-3.5
		V172.6z"/>
	<path d="M370.4,178.9c0,7.2-5,11.3-9.6,11.3c-6.9,0-9.6-5.6-9.6-13.6c0-4.8,1.2-10,3.6-13.5c1.5-2.3,3.6-4.1,5.8-4.8
		c1.5-0.5,4.6-0.8,6.9-1.3c1.2-0.2,2.3-0.5,3.1-2l0.5,0.3c-0.5,1.6-2.2,4.6-3.8,5c-1.7,0.4-4,0.5-6.3,0.7c-3.1,0.2-4.5,0.9-5.5,2.6
		c-1.1,2-1.2,6-1,9.3c1.8-1.7,4.2-3.7,7.6-3.7C367.4,169.2,370.4,173.3,370.4,178.9z M366.8,180.1c0-5.3-2.1-8.9-6.1-8.9
		c-2.1,0-3.6,0.8-4.5,1.7c-1.1,1.2-1.3,1.9-1.3,4c0,6.6,1.8,12.4,6.5,12.4C364.2,189.2,366.8,186.7,366.8,180.1z"/>
	<path d="M379.9,178h2.7c4.8,0,7.8,1.6,7.8,5.4c0,3.3-2.4,6.2-8.4,6.2H374V189c2.6-0.5,2.8-0.9,2.8-3.4v-12.1c0-2.6-0.1-3-2.8-3.4
		v-0.6h8.8v0.6c-2.6,0.5-2.9,0.8-2.9,3.4V178z M379.9,186.5c0,1.9,0.8,2.1,2.6,2.1c2.9,0,4.5-1.7,4.5-4.8c0-3.5-1.9-4.6-5.1-4.6
		h-1.9V186.5z M391.8,189.6V189c2.5-0.3,2.8-0.7,2.8-3.5v-12.2c0-2.6-0.2-2.9-2.8-3.3v-0.5h8.7v0.5c-2.6,0.5-2.8,1-2.8,3.3v12.2
		c0,2.9,0.1,3.1,2.8,3.5v0.6H391.8z"/>
	<path d="M412.3,189.6V189c2.6-0.5,2.8-0.8,2.8-3.5v-12c0-2.6-0.1-2.9-2.8-3.4v-0.6h8.8v0.6c-2.6,0.6-2.8,0.8-2.8,3.5V186
		c0,2.1,0.4,2.3,2.1,2.3h5.3c1.5,0,1.6-0.1,1.6-2.3v-12.5c0-2.5-0.2-2.9-2.9-3.4v-0.6h9v0.6c-2.7,0.6-3,0.8-3,3.4v14
		c0,0.7,0.2,0.8,0.6,0.8c1.2,0,2.3,0,3.4-0.1c-0.2,2.2-0.5,5.8-0.7,8.1h-0.8c-0.2-2-0.4-3.5-0.6-4.7c-0.2-1.5-0.6-2-2.3-2H412.3z"/>
	<path d="M439.2,173.3c0-2.4-0.2-2.7-2.8-3.2v-0.6h8.8v0.6c-2.5,0.5-2.8,0.8-2.8,3.2v10.7l10.1-11c0-1.8-0.2-2.4-2.8-2.7v-0.6h8.8
		v0.6c-2.6,0.5-2.8,0.8-2.8,3.2v12.2c0,2.7,0.2,3,2.8,3.5v0.6h-8.8V189c2.4-0.5,2.8-0.8,2.8-3.5v-11l-10.1,11.1
		c0,2.6,0.3,2.9,2.9,3.4v0.6h-8.8V189c2.6-0.5,2.8-0.8,2.8-3.5V173.3z"/>
	<path d="M477.8,175.1c-0.3-1.3-0.7-2.3-1.2-3.1c-0.5-0.9-1.1-1.3-3.6-1.3h-1.8l0,15.1c0,2.7,0.2,2.8,3.2,3.3v0.6h-9.6V189
		c3.1-0.5,3.4-0.7,3.4-3.3l0-15.1h-2.7c-1.1,0-1.9,0.2-2.4,1.2c-0.5,0.9-0.8,1.9-1.3,3.3L461,175c0.1-1.7,0.3-3.8,0.3-5.5
		c0.3,0,1.7,0.1,3.9,0.1h8.9c2.3,0,3.6,0,4-0.1c0,1.2,0.1,3.8,0.1,5.5L477.8,175.1z"/>
	<path d="M481.1,170.5c2-0.3,4.5-1.2,6.1-2c0,0.7-0.1,2.3-0.1,3.7l3.8-2.3c1.1-0.7,2.1-1,2.9-1c5.1,0,7.9,4.4,7.9,8.7
		c0,6.8-5.4,11.5-11.5,12.5c-1.2,0-2.5-0.5-3.1-0.9v7.2c0,4.5,0.4,4.7,3.7,5.2v0.6h-10.1v-0.6c2.8-0.5,3.3-0.7,3.3-4.4v-22.7
		c0-2.9-0.5-3.2-2.9-3.7V170.5z M487.1,186.4c1.1,1.2,2.9,1.7,4.6,1.7c4.3,0,6.7-2.7,6.7-8.7c0-5.3-3-8.2-6.3-8.2
		c-1.8,0-3.8,0.9-5,1.9V186.4z"/>
	<path d="M524.1,170.1c-2.2,0.5-2.5,0.9-3.6,3.3c-1.4,3.2-2.6,6.7-6.1,15.4c-2.9,7.3-4,10.3-4.7,12.7c-0.2,1-0.7,1.3-1.2,1.3
		c-1.4,0-2.4-1-2.4-1.9c0-0.4,0.2-0.7,1.2-1.4c1.3-1.1,2.4-2.1,3.6-4.8c1-2.4,1.6-3.6,2-4.7c0.2-0.4,0.1-0.7,0-1.2
		c-1.9-5.2-4.4-11.2-5.7-14.8c-1.2-3-1.4-3.5-4-4v-0.5h8.7v0.5c-2.3,0.6-2.4,0.9-1.7,2.8l4.6,12.4c1.4-3.8,3.7-10.1,4.5-12.4
		c0.6-1.8,0.2-2.2-2.6-2.8v-0.5h7.7V170.1z"/>
	<path d="M542,185.4c-2,2.6-5,4.8-7.6,4.8c-5.5,0-8.9-4.6-8.9-9.4c0-3.6,1.3-6.6,4.7-9.2c2.3-1.7,5-2.6,6.6-2.6
		c1.9,0,3.4,0.5,4.2,1.2c0.4,0.3,0.5,0.7,0.5,1.1c0,0.8-0.9,1.9-1.4,1.9c-0.2,0-0.3-0.1-0.8-0.5c-1.2-1-2.8-1.7-4.7-1.7
		c-3.3,0-6,2-6,7.5c0,6.8,4.7,9.1,7.3,9.1c2.1,0,3.7-0.5,5.8-2.6L542,185.4z"/>
	<path d="M553.7,180.4c-1.6-0.8-4.7-3.1-4.7-6c0-1.4,0.5-2.7,3.1-4.9c2.5-2.2,4.8-4.1,4.8-6.3c0-2.4-1.3-3.2-3.3-3.2c-3,0-5,3-5.6,3
		s-1.6-0.8-1.6-1.8c0-0.5,0.2-1,0.9-1.6c1.2-1.1,3.1-1.7,4.6-1.7c3.6,0,6.8,3.5,6.8,7.3c0,1.8-0.7,3.4-3.4,5.6
		c-2.3,1.9-3.5,3.4-3.5,4.9c0,1.7,1,3,2.3,4.3L553.7,180.4z M552.4,190.2c-1.3,0-2.2-1-2.2-2.4c0-1.2,0.9-2.4,2.2-2.4
		c1.2,0,2.3,1.2,2.3,2.4C554.7,189.2,553.7,190.2,552.4,190.2z"/>
	<path class="st1" d="M50.9,239.1c0,1,0.4,1.1,1.3,1.1H56c-0.3,2.4-0.7,6.3-0.9,9.1h-0.9c-0.2-1.7-0.4-3.2-0.7-5
		c-0.5-2.2-1-2.7-3-2.7h-18c-2.4,0-2.6,1-3.6,3.9l-1,3.7h-0.8l0.1-9.1h1.8c0.6,0,1-0.4,1.2-0.6c3.4-4.5,7.9-15.7,8.3-25.4
		c0.1-2.3-0.6-2.5-2.6-2.8l-1.7-0.3v-0.6h20.9v0.6c-3.8,0.7-4.2,0.9-4.2,4.8V239.1z M47.5,215.1c0-3.2,0-3.4-1.7-3.4h-3.6
		c-1.8,0-1.8,0.1-1.9,1.3c-0.7,9.6-4.1,19.3-8.3,26.5c-0.3,0.5,0,0.5,0.3,0.5h14.2c0.7,0,1-0.1,1-1.2V215.1z"/>
	<path d="M72,242.2c-0.7,0-1.4-0.3-2.2-1c-0.5-0.5-0.9-1-1.1-2.2c-1.7,1.2-4.2,3.1-5.3,3.1c-3.2,0-5.3-2.7-5.3-5.3
		c0-2.2,1.2-3.5,3.4-4.2c2.6-0.9,6-2,7.2-2.8v-1.4c0-3.5-1.7-5.7-4.3-5.7c-0.9,0-1.6,0.3-2.1,0.9c-0.5,0.6-1,1.9-1.3,3
		c-0.2,0.7-0.7,0.8-0.9,0.8c-0.7,0-1.7-0.7-1.7-1.7c0-0.4,0.3-0.8,1.2-1.4c1.2-1,4.6-2.9,6.6-3.3c1.2,0,2.6,0.4,3.5,1.2
		c1.6,1.4,2.1,3,2.1,5.9c0,2.9,0,5.7,0,8.6c0,2.3,0.8,3.1,1.7,3.1c0.6,0,1.1-0.1,1.5-0.5l0.3,0.6L72,242.2z M68.8,230.7
		c-0.8,0.5-3.3,1.5-4.6,2.1c-1.6,0.7-2.7,1.6-2.7,3.4c0,2.4,1.8,3.6,3.5,3.6c1.2,0,2.7-0.5,3.7-1.6
		C68.7,235.8,68.8,233.2,68.8,230.7z"/>
	<path d="M78,246.4c2.1-1,3.6-2.4,3.6-4.3c0-1.4-1.1-2.2-3-2.7c-0.1,0-0.5-0.4-0.5-1.1c0-1,0.8-1.8,2.1-1.8c1.4,0,3.5,1.4,3.5,4.4
		c0,3.3-2.9,5.4-5.4,6.2L78,246.4z"/>
	<path d="M101.4,231.3v6.1c0,2.8,0.2,3.1,2.8,3.6v0.6h-8.8V241c2.6-0.5,2.8-0.8,2.8-3.6v-12c0-2.5-0.2-2.8-2.8-3.3v-0.6h8.8v0.6
		c-2.4,0.5-2.8,0.7-2.8,3.3v4.8h9.4v-4.8c0-2.4-0.2-2.8-2.8-3.3v-0.6h8.7v0.6c-2.6,0.4-2.8,0.9-2.8,3.3v12c0,2.8,0.2,3.2,2.8,3.6
		v0.6H108V241c2.5-0.5,2.8-0.9,2.8-3.6v-6.1H101.4z"/>
	<path d="M130,221c5.7,0,9.7,4.6,9.7,10.2c0,7.2-5.2,11-9.7,11c-6,0-9.8-5-9.8-10.2C120.1,224.4,126,221,130,221z M129.4,222
		c-3.4,0-5.7,3.6-5.7,8.5c0,6.4,2.9,10.6,6.8,10.6c3,0,5.5-2.3,5.5-9C136,226.9,133.7,222,129.4,222z"/>
	<path d="M165.9,221.1c6.5,0.3,11,3.9,11,10.2c0,7.6-6,10.6-11,10.8v7.4c0,3.2,0.2,3.5,3.4,4.1v0.6h-9.6v-0.6c3-0.5,3.3-0.9,3.3-4.1
		v-7.5c-6.9-0.2-11.6-3.9-11.6-10.4c0-7,5.6-10.3,11.6-10.7v-8.3c0-2.4-0.1-2.6-3.1-3.1v-0.5c1.8-0.3,4.6-1,6-1.6V221.1z M163,222.2
		c-5.1,0.1-7.9,3.1-7.9,8.4c0,7.6,4.2,10.1,7.9,10.5V222.2z M165.9,241.1c3.4-0.1,7.5-1.9,7.5-8.7c0-6.8-2.7-9.5-7.5-10.3V241.1z"/>
	<path d="M194.4,242.2c-0.7,0-1.4-0.3-2.2-1c-0.5-0.5-0.9-1-1.1-2.2c-1.7,1.2-4.2,3.1-5.3,3.1c-3.2,0-5.3-2.7-5.3-5.3
		c0-2.2,1.2-3.5,3.4-4.2c2.6-0.9,6-2,7.2-2.8v-1.4c0-3.5-1.7-5.7-4.3-5.7c-0.9,0-1.6,0.3-2.1,0.9c-0.5,0.6-1,1.9-1.3,3
		c-0.2,0.7-0.7,0.8-0.9,0.8c-0.7,0-1.7-0.7-1.7-1.7c0-0.4,0.3-0.8,1.2-1.4c1.2-1,4.6-2.9,6.6-3.3c1.2,0,2.6,0.4,3.5,1.2
		c1.6,1.4,2.1,3,2.1,5.9c0,2.9,0,5.7,0,8.6c0,2.3,0.8,3.1,1.7,3.1c0.6,0,1.1-0.1,1.5-0.5l0.3,0.6L194.4,242.2z M191.2,230.7
		c-0.8,0.5-3.3,1.5-4.6,2.1c-1.6,0.7-2.7,1.6-2.7,3.4c0,2.4,1.8,3.6,3.5,3.6c1.2,0,2.7-0.5,3.7-1.6
		C191.1,235.8,191.2,233.2,191.2,230.7z"/>
	<path class="st1" d="M213.9,224.6c0-2-0.2-1.9-1.4-1.9h-1.7c-1.6,0-1.7,0.2-1.8,1.7c-0.7,9.3-3.5,13.8-4.2,14.8
		c-0.9,1.5-2.3,3-3.6,3c-1,0-1.8-0.4-1.8-1.7c0-1.2,0.6-2.7,1.7-2.7c0.6,0,1.6,0.6,2.2,0.6c1.2,0,4.1-5.6,4.4-13.5
		c0-1.7-0.2-2.1-3.3-2.7v-0.6h15.6v0.6c-2.9,0.6-2.8,1-2.8,3.4v12c0,2.6,0.1,2.8,2.8,3.5v0.6h-8.8V241c2.6-0.6,2.8-0.9,2.8-3.5
		V224.6z"/>
	<path d="M228.9,230h3.2c4.7,0,7.8,1.5,7.8,5.3c0,3.1-2.5,6.2-8.4,6.2h-8.5V241c2.6-0.5,2.8-0.8,2.8-3.4v-12.1
		c0-2.6-0.1-2.9-2.8-3.4v-0.6h8.8v0.6c-2.6,0.5-2.9,0.8-2.9,3.4V230z M228.9,238.6c0,1.8,1.2,2.1,3,2.1c2.9,0,4.5-1.9,4.5-5
		c0-3.6-2.1-4.5-5.6-4.5h-1.9V238.6z"/>
	<path d="M242.7,241.6V241c2.6-0.5,2.8-0.9,2.8-3.4v-12.5c0-2.2-0.2-2.5-2.8-3v-0.6h8.5v0.6c-2.4,0.5-2.6,0.8-2.6,2.9V239
		c0,1.2,0.2,1.3,1.3,1.3h5.4c1.1,0,1.3-0.1,1.3-1.2v-13.7c0-2.4-0.2-2.8-2.6-3.3v-0.6h8.3v0.6c-2.4,0.5-2.6,0.9-2.6,3.3v13.7
		c0,1.1,0.2,1.2,1.3,1.2h5.4c1.1,0,1.3-0.2,1.3-1.2v-13.7c0-2.4-0.1-2.8-2.8-3.3v-0.6h8.8v0.6c-2.6,0.5-2.8,0.8-2.8,3.2v12.3
		c0,2.5,0.3,2.9,2.9,3.4v0.6H242.7z"/>
	<path d="M279.7,225.3c0-2.4-0.2-2.7-2.8-3.2v-0.6h8.8v0.6c-2.5,0.5-2.8,0.8-2.8,3.2v10.7l10.1-11c0-1.8-0.2-2.4-2.8-2.7v-0.6h8.8
		v0.6c-2.6,0.5-2.8,0.8-2.8,3.2v12.2c0,2.7,0.2,3,2.8,3.5v0.6h-8.8V241c2.4-0.5,2.8-0.8,2.8-3.5v-11l-10.1,11.1
		c0,2.6,0.3,2.9,2.9,3.4v0.6h-8.8V241c2.6-0.5,2.8-0.8,2.8-3.5V225.3z"/>
	<path d="M304.8,225.9c0-2.8-0.1-3.4-2.8-3.7v-0.6h9.8c4.6,0,6.7,1.8,6.7,4.5c0,2.9-2.5,4-4.5,4.6v0.1c2.9,0.5,5.6,1.9,5.6,4.9
		c0,4.8-4.7,6-9,6h-8.5V241c2.5-0.5,2.8-0.7,2.8-3.8V225.9z M310.3,230.3c3.6,0,4.7-1.2,4.7-3.8c0-2.6-1.3-4-4.7-4
		c-2,0-2.5,0.1-2.5,1.3v6.5H310.3z M307.8,237.1c0,3.1,1.4,3.6,3.5,3.6c2.4,0,4.6-1.5,4.6-4.9c0-3.2-2.3-4.5-5.7-4.5h-2.4V237.1z"/>
	<path d="M328.2,230h2.7c4.8,0,7.8,1.6,7.8,5.4c0,3.3-2.4,6.2-8.4,6.2h-8.1V241c2.6-0.5,2.8-0.9,2.8-3.4v-12.1c0-2.6-0.1-3-2.8-3.4
		v-0.6h8.8v0.6c-2.6,0.5-2.9,0.8-2.9,3.4V230z M328.2,238.5c0,1.9,0.8,2.1,2.6,2.1c2.9,0,4.5-1.7,4.5-4.8c0-3.5-1.9-4.6-5.1-4.6
		h-1.9V238.5z M340.1,241.6V241c2.5-0.3,2.8-0.7,2.8-3.5v-12.2c0-2.6-0.2-2.9-2.8-3.3v-0.5h8.7v0.5c-2.6,0.5-2.8,1-2.8,3.3v12.2
		c0,2.9,0.1,3.1,2.8,3.5v0.6H340.1z"/>
	<path d="M354.7,225.3c0-2.4-0.2-2.7-2.8-3.2v-0.6h8.8v0.6c-2.5,0.5-2.8,0.8-2.8,3.2v10.7l10.1-11c0-1.8-0.2-2.4-2.8-2.7v-0.6h8.8
		v0.6c-2.6,0.5-2.8,0.8-2.8,3.2v12.2c0,2.7,0.2,3,2.8,3.5v0.6h-8.8V241c2.4-0.5,2.8-0.8,2.8-3.5v-11l-10.1,11.1
		c0,2.6,0.3,2.9,2.9,3.4v0.6h-8.8V241c2.6-0.5,2.8-0.8,2.8-3.5V225.3z M362.8,215.5c2.2,0,3.4-0.6,3.4-0.9c0-0.7-0.6-1.2-0.6-1.9
		c0-1.1,0.6-1.8,1.7-1.8c0.8,0,1.6,0.6,1.6,1.7c0,2.2-2.8,3.9-6.1,3.9c-3.5,0-6.2-1.7-6.2-3.7c0-1.3,1-2,1.9-2c1.2,0,1.6,1,1.6,1.8
		c0,0.7-0.5,1.2-0.5,1.8C359.6,214.7,360.5,215.5,362.8,215.5z"/>
	<path d="M386.8,225.9c2.6-3.3,5.4-4.9,8.3-4.9c2.8,0,5,2.4,5,6.7c0,4.7-1.7,8.4-4.4,11.1c-2,2-5.5,3.5-7.6,3.5
		c-2.1,0-3.6-1.8-3.7-2.7c0-0.6,0.4-1.6,1.2-1.9c0.3-0.1,0.5,0,0.7,0.3c0.8,1.3,2.2,2.7,4.1,2.7c2.8,0,5.4-4,6.2-8.9l-8.6,0.3
		l0.6-1.6l8.2,0.3c0.1-0.7,0.1-1.5,0.1-2.2c0-3.4-1.3-5.3-3.5-5.3c-2.4,0-4.3,1.4-6.3,3.3L386.8,225.9z"/>
	<path d="M404.1,225.2c2.2-2.7,4.4-4.2,5.7-4.2c1.2,0,1.3,1.3,0.7,4.1l-1.7,7.6c2.7-3.5,9.6-11.7,12.4-11.7c1.3,0,1.8,0.7,1.8,1.4
		c0,0.7-0.7,1.8-1.2,2.3c-0.3,0.2-0.5,0.3-0.7,0.1c-0.8-0.6-1.3-1.2-1.9-1.2c-1.3,0-5,4-6.3,5.5c0.9,2.2,2.4,5.4,4.2,8.5
		c1.2,2,1.9,2.1,2.4,2.1c0.6,0,1.2-0.4,2.7-2.3l0.4,0.5c-2.1,3.3-4,4.3-4.8,4.3c-1.2,0-2-1-3.1-3.1c-1.4-2.6-2.6-5.7-3.6-7.9
		c-1.6,2-2.7,3.6-3,4.8c-0.1,0.7-0.8,3.8-1.2,5.4c-0.9,0.3-1.9,0.5-2.8,0.9l-0.2-0.3c1.3-5.7,2.7-11,3.8-16.1
		c0.4-1.7,0.2-2.1-0.1-2.1c-0.4,0-1.2,0.3-2.9,2.1L404.1,225.2z"/>
	<path d="M429.7,222.5c1.5-1.1,2.8-1.5,4.4-1.5c2.3,0,4.6,1.5,4.6,4.1c0,2.6-2.4,4-5.1,5.3c1.5,0.4,4.8,1.5,4.8,4.4
		c0,4.4-5.8,7.4-8.6,7.4c-3.6,0-5.2-2.2-5.2-3.4c0-0.6,0.7-1.7,1.2-1.7c0.4,0,0.6,0.4,0.9,0.8c1,1.5,2.8,2.7,4.8,2.7
		c2.4,0,3.8-1.7,3.8-4.9c0-2.7-1.8-4.2-4.4-4.2c-0.5,0-1,0-1.3,0.1l0-0.7c5.5-0.9,6.3-3.7,6.3-5.1c0-1.7-1.2-2.9-3.3-2.9
		c-1.8,0-3.5,1-4.8,2.4l-0.4-0.6C428.1,223.8,429.3,222.7,429.7,222.5z"/>
	<path d="M447.4,242.2c-1.9,0-4.8-1.2-4.8-6.9c0-3.9,1.5-9.1,5.3-12c1.6-1.3,4.2-2.4,5.9-2.4c2,0,3.2,1.6,3.2,3.2
		c0,4.2-6,6.4-11.2,7.6c-0.1,0.9-0.1,1.9-0.1,2.3c0,2.8,0.9,6,3.8,6c1.8,0,4-1.2,6.2-3.6l0.4,0.6C453.2,240.6,450,242.2,447.4,242.2
		z M446,230.7c6.6-1.1,8.3-3.5,8.3-5.9c0-1.2-0.8-2.3-2.4-2.3C449.6,222.5,447,224.6,446,230.7z"/>
	<path d="M485.1,237.7c-2.2,3.1-4.8,4.5-5.8,4.5c-1.1,0-1.5-1.7-0.9-4.7c0.6-3.7,1.3-7.2,2.4-12.9c-3.2,4.7-7.5,11.8-10.6,17.2
		l-0.7,0.1c-0.2-4.3-1.1-13.7-1.5-16.9c-0.6,1.7-2.2,7.1-3.3,9.9c-1.2,3-3,7.5-5.8,7.5c-0.9,0-1.2-0.5-1.2-1.3
		c0-1.5,1.2-3.6,2.3-3.6c0.6,0,1.2,0.7,1.6,0.7c0.4,0,0.7-0.5,1.1-1.3c1.2-2.2,3.8-10.3,4.7-13.6l0.2-1.3c0.8-0.2,1.4-0.5,2.3-1
		c0.3,2,1.6,12.5,2,15.6c2.1-3.3,7.2-11.2,9.7-14.9c0.5-0.1,1.6-0.2,2.4-0.6c-0.2,0.6-0.4,1.6-1,4.3c-0.8,4.3-1.5,8-1.9,11.7
		c-0.2,1.9,0,2.4,0.4,2.5c0.6,0,1.8-0.9,3.1-2.3L485.1,237.7z"/>
	<path d="M507.3,237.8c-2.3,3-4.5,4.4-5.7,4.4c-1.3,0-1.6-1.3-0.7-5c0.9-3.8,1.5-6.3,2.3-9.7c0.6-3,0.6-4.1-0.7-4.1
		c-2,0-5.9,3.6-8.5,8.2c-0.9,1.5-1.2,2.6-1.6,4.1c-0.4,1.5-0.9,3.9-1.3,5.8c-1.1,0.2-1.9,0.5-2.7,0.8l-0.3-0.2
		c1.3-5.4,2.6-10.8,3.8-16.1c0.4-1.7,0.2-2.1-0.2-2.1c-0.4,0-1.3,0.5-2.9,2.1l-0.4-0.5c2.3-2.9,4.5-4.2,5.5-4.2
		c1.3,0,1.4,1.7,0.2,6.4l-0.8,3.4c3.3-5.1,8.2-9.8,11.3-9.8c1.8,0,2.6,1.1,1.1,7.4c-0.8,3.3-1.4,6-2.1,9c-0.3,1.6-0.2,2.2,0.2,2.2
		c0.7,0,1.7-0.9,3.1-2.4L507.3,237.8z"/>
	<path class="st1" d="M522.2,223.3c-1.3,3.6-3.1,7.9-5.2,11.9c-2.1,4-4.8,7.2-6.7,7.2c-0.9,0-1.4-0.5-1.4-1.5c0-1.2,1.2-3.3,2.4-3.3
		c0.7,0,1.3,0.9,1.9,0.9c0.4,0,1.2-0.8,2-2.2c2.5-4.4,4.3-8.9,5.5-12.8c-1.1,0.1-2.5,0.2-3.6,0.2l-0.2-0.4l1.5-1
		c7.2-0.3,10.3-1.1,11.2-1.5l0.3,0.4c-0.4,0.5-0.8,2-1.3,4.1c-1,4.2-2.3,9.6-2.7,12.3c-0.2,1.3-0.2,1.8,0.1,1.8
		c0.4,0,1.3-0.3,3.1-2.2l0.4,0.6c-1.8,2.4-4.7,4.4-5.9,4.4c-1.2,0-1.3-1.2-0.5-5c0.7-3.1,1.6-7.2,3.4-14.4
		C525.6,223,523.6,223.1,522.2,223.3z"/>
	<path d="M542.8,234.5c-3.1,3.3-3.9,4.2-6,6c-1.4,1.2-2.7,1.8-3.6,1.8c-1,0-2-0.9-2-2.1c0-1.4,1.4-2.7,1.9-2.7
		c0.3,0,0.5,0.1,0.7,0.4c0.6,0.8,1.2,1.3,1.6,1.3c1,0,2.3-0.9,8.3-7.1c-1.4,0.5-2.5,0.7-3.1,0.7c-2.6,0-4.1-2.3-4.1-4.4
		c0-3.9,5.1-7.5,10.3-7.5c2.3,0,4.3,0.5,5.1,0.8c-0.1,0.4-0.4,1.3-0.7,2.3c-0.2,0.9-2.6,10.3-3.3,13.1c-0.3,1.2-0.6,2.4,0,2.4
		c0.4,0,1.4-0.4,3.1-2.3l0.4,0.6c-2.2,2.9-4.5,4.3-6,4.3c-1.2,0-1.2-1.2-0.2-4.6c0.7-2.3,1.7-5.9,2.4-8.4
		C546.2,230.8,544.2,233.1,542.8,234.5z M548.8,223.2c-0.9-0.6-2.9-0.8-3.8-0.8c-4.6,0-5.5,2.5-5.5,5.4c0,2.6,1.5,3.8,2.9,3.8
		c1.4,0,2.5-0.7,4.1-2.8C547.5,227.6,547.8,226.9,548.8,223.2z"/>
	<path d="M562.4,221.5c1.6-0.4,3.2-0.5,4.4-0.5c4.6,0,6.1,2.6,6.1,6.1c0,2.9-1.2,6.6-3.9,9.7c-2.3,2.6-5.4,4.6-8.1,5.4
		c-0.7,0-2-0.1-2.7-0.4l-1.4,7.9c-0.6,3.5-0.3,3.6,1.8,3.8l1.2,0.1l-0.1,0.7l-10.1,0.6l0.1-0.6c3.3-0.8,3.6-1,4.4-4.4
		c1.7-8.4,3.6-17.6,5.3-26.4c-1.3,0.4-2.8,1.2-3.6,1.6l-0.2-0.7c0.9-0.5,2.5-1.5,4.1-2.2l0.4-1.9c0.8-1,1.9-2,2.9-2.6l0.4,0.2
		L562.4,221.5z M558.9,239.1c0.4,0.8,1.8,1.5,2.9,1.5c3.5,0,8.1-6.6,8.1-12.7c0-4.5-2-5.6-5.2-5.6c-0.7,0-1.8,0.1-2.5,0.3
		C561,228.3,560,233.6,558.9,239.1z"/>
	<path d="M581.7,209.8c1.3,0,2.3,0.3,2.3,1.4c0,0.7-0.1,1.8-0.2,2.6c-0.4,3.7-1.2,12.5-1.6,18.5h-0.9c-0.4-6-1.2-14.2-1.6-18.4
		c0-0.7-0.2-1.7-0.2-2.6C579.5,210.4,580.1,209.8,581.7,209.8z M581.7,242.2c-1.3,0-2.2-1-2.2-2.3c0-1.2,0.8-2.3,2.2-2.3
		c1.4,0,2.3,1.1,2.3,2.3C584,241.2,583,242.2,581.7,242.2z"/>
</g>
</svg>
