<svg id="Layer_1" data-name="Layer 1" xmlns="http://www.w3.org/2000/svg" viewBox="0 0 104.68 130.45"><defs><style>.cls-1{fill:#f1ba29;}</style></defs><path class="cls-1" d="M122.18,121.25c-1.21,7.45-5.25,24.56-6.84,31H17.5v-2.42c17.11-1.6,19.13-2.61,19.13-21.33V45.56c0-19.72-2-20.13-15.51-21.34V21.8H110.5c.2,3.63,1.2,16.31,2,28.59l-2.61.6c-1.61-7.64-5.25-14.49-9.86-18.73-4.23-3.82-9.66-5.64-22.75-5.64H69c-6.24,0-7.45,1-7.45,7.05V81.78h14.9C94.41,81.78,97,80.37,100,66.69h2.62v36.63H100C97,89.63,94.37,88,76.45,88H61.58v38.45c0,10.87.81,17.12,4.63,18.92,3.23,1.61,9.27,2,16.92,2,13.08,0,19.72-1.61,24.56-7a80.54,80.54,0,0,0,12.07-19.92Z" transform="translate(-17.5 -21.8)"/></svg>