<svg id="Layer_1" data-name="Layer 1" xmlns="http://www.w3.org/2000/svg" xmlns:xlink="http://www.w3.org/1999/xlink" viewBox="0 0 1513.2 410.02"><defs><style>.cls-1{fill:url(#linear-gradient);}.cls-2{fill:url(#linear-gradient-2);}.cls-3{fill:url(#linear-gradient-3);}.cls-4{fill:url(#linear-gradient-4);}.cls-5{fill:url(#linear-gradient-5);}.cls-6{fill:url(#linear-gradient-6);}.cls-7{fill:url(#linear-gradient-7);}.cls-8{fill:#fff;}</style><linearGradient id="linear-gradient" y1="169.24" x2="1513.2" y2="169.24" gradientTransform="matrix(1, 0, 0, -1, 0, 411.62)" gradientUnits="userSpaceOnUse"><stop offset="0" stop-color="#fff"/><stop offset="1" stop-color="#58bcb0"/></linearGradient><linearGradient id="linear-gradient-2" x1="473.01" y1="33.62" x2="565.77" y2="33.62" gradientUnits="userSpaceOnUse"><stop offset="0.72" stop-color="#58bcb0"/><stop offset="0.83" stop-color="#58bcb0"/><stop offset="1" stop-color="#58bcb0"/></linearGradient><linearGradient id="linear-gradient-3" x1="571.17" y1="34.02" x2="594.97" y2="34.02" xlink:href="#linear-gradient-2"/><linearGradient id="linear-gradient-4" x1="598.76" y1="45.46" x2="653.14" y2="45.46" xlink:href="#linear-gradient-2"/><linearGradient id="linear-gradient-5" x1="658.65" y1="34.02" x2="682.45" y2="34.02" xlink:href="#linear-gradient-2"/><linearGradient id="linear-gradient-6" x1="687.16" y1="46.32" x2="735.44" y2="46.32" xlink:href="#linear-gradient-2"/><linearGradient id="linear-gradient-7" x1="740.5" y1="45.46" x2="794.87" y2="45.46" xlink:href="#linear-gradient-2"/></defs><rect class="cls-1" y="74.74" width="1513.2" height="335.28"/><path class="cls-2" d="M536.92,70.87V69.49c9.08-1,9.54-1.84,9.43-13.91l-.46-48.51h-.46l-28,63.57h-1.15L489.79,8.56h-.23l-1.72,32.76c-.46,8.51-.58,14.83-.46,20.35.11,6.21,2.41,7,9.88,7.82v1.38H473V69.49c6.89-.81,8.73-2.65,9.54-7.13s1.26-9.31,2.18-21.15l1.73-24.37c1-16.79.23-17.82-10.12-19.08V-3.62H493L520.25,56.5,547.61-3.62h17v1.38c-10,1.14-10.8,2-10.46,13.44l1.15,44.38c.35,12.07.69,12.87,10.46,13.91v1.38Z" transform="translate(0 3.62)"/><path class="cls-3" d="M571.17,70.87V69.49c6.79-.69,7.71-1.5,7.71-9.43V34.89c0-7.13-.58-7.71-6.67-9V24.65a62.16,62.16,0,0,0,14.94-4.48V60.06c0,7.93.81,8.74,7.82,9.43v1.38ZM582.56-2.82A4.67,4.67,0,0,1,587.15,2a4.76,4.76,0,0,1-4.71,4.83,4.8,4.8,0,0,1-4.6-4.72,4.77,4.77,0,0,1,4.6-4.94Z" transform="translate(0 3.62)"/><path class="cls-4" d="M630.14,70.87V69.49c7-.69,8.05-1.5,8.05-10.69V39.48c0-7.47-2.3-13.45-10.46-13.45-4.37,0-9.2,3-12.3,5.75V60.06c0,7.93.81,8.74,7.24,9.43v1.38H598.76V69.49c7.47-.69,8.39-1.5,8.39-9.54V35c0-7.13-.57-7.59-6.55-9.08V24.77a64.78,64.78,0,0,0,14.83-4.71v9.31c2.3-1.73,5.17-3.8,8.05-5.64,3.33-2.06,5.63-3.33,8.85-3.33,9,0,14.14,6.21,14.14,16.78V60c0,8,.57,8.85,6.67,9.54v1.38Z" transform="translate(0 3.62)"/><path class="cls-5" d="M658.65,70.87V69.49c6.78-.69,7.7-1.5,7.7-9.43V34.89c0-7.13-.57-7.71-6.66-9V24.65a62.43,62.43,0,0,0,14.94-4.48V60.06c0,7.93.81,8.74,7.82,9.43v1.38ZM670-2.82A4.67,4.67,0,0,1,674.63,2a4.76,4.76,0,0,1-4.71,4.83,4.79,4.79,0,0,1-4.6-4.72,4.77,4.77,0,0,1,4.6-4.94Z" transform="translate(0 3.62)"/><path class="cls-6" d="M711.53,20.4c14,0,23.91,11.38,23.91,25.06,0,17.82-12.76,26.79-24,26.79-15.17,0-24.25-12.3-24.25-25,0-18.39,14.25-26.9,24.25-26.9Zm-1.38,2.3c-7.7,0-13.1,8.05-13.1,20.81,0,15.17,5.86,26.44,15.63,26.44,7.24,0,12.87-5.52,12.87-22.3,0-13.11-5-24.95-15.28-24.95Z" transform="translate(0 3.62)"/><path class="cls-7" d="M771.88,70.87V69.49c7-.69,8-1.5,8-10.69V39.48c0-7.47-2.3-13.45-10.46-13.45-4.37,0-9.2,3-12.3,5.75V60.06c0,7.93.8,8.74,7.24,9.43v1.38H740.5V69.49c7.47-.69,8.39-1.5,8.39-9.54V35c0-7.13-.58-7.59-6.55-9.08V24.77a65.08,65.08,0,0,0,14.83-4.71v9.31c2.29-1.73,5.17-3.8,8-5.64,3.34-2.06,5.64-3.33,8.85-3.33,9,0,14.14,6.21,14.14,16.78V60c0,8,.58,8.85,6.67,9.54v1.38Z" transform="translate(0 3.62)"/><path class="cls-8" d="M821.15,96.35c7.81,0,14.48,1.38,18.73,4.59,4.49,3.45,7.25,8.74,7.25,16.1,0,14.94-11.27,21.84-22.08,23.22a14.55,14.55,0,0,1-4.48,0l-8.39-2.3v20.23c0,9.66.92,10.46,10.12,11.27v1.38H793.79v-1.38c8.5-.81,9.42-1.73,9.42-11.5V109.11c0-10-.8-10.81-8.85-11.5V96.35Zm-9,39.54a25.32,25.32,0,0,0,7.93,1.15c7.24,0,16.79-3.91,16.79-19.89,0-12.87-7.48-18.74-17.36-18.74-3.11,0-5.41.58-6.1,1.27-.91.69-1.26,2.3-1.26,6.44Z" transform="translate(0 3.62)"/><path class="cls-8" d="M868.85,132.56c2.65-4.83,7.93-12.19,13.34-12.19,3.56,0,6,2.87,6,5.29,0,1.84-1.37,3.56-3.33,4.71-1.26.58-2.18.46-2.76-.11-1.72-1.73-3-2.53-4.94-2.53-2.64,0-5.52,2.64-8.51,9V160c0,7.93.58,8.74,9.2,9.43v1.38h-25v-1.38c6.56-.69,7.48-1.5,7.48-9.43V134.86c0-7.59-.58-8.17-6.9-9.09v-1A56.36,56.36,0,0,0,868.62,120v12.53Z" transform="translate(0 3.62)"/><path class="cls-8" d="M915,120.37c14,0,23.91,11.38,23.91,25.06,0,17.82-12.76,26.79-24,26.79-15.17,0-24.25-12.3-24.25-24.95,0-18.39,14.25-26.9,24.25-26.9Zm-1.38,2.3c-7.7,0-13.11,8-13.11,20.81,0,15.17,5.87,26.44,15.64,26.44,7.24,0,12.87-5.52,12.87-22.3,0-13.11-5.06-25-15.29-25Z" transform="translate(0 3.62)"/></svg>