<svg id="Layer_1" data-name="Layer 1" xmlns="http://www.w3.org/2000/svg" viewBox="0 0 51.18 7.93"><defs><style>.cls-1{fill:#231f20;}</style></defs><path class="cls-1" d="M190.65,280.44c-1,.09-1.07.16-1.22,1.18-.26,1.76-.45,3.19-.66,4.84-.16,1.18-.09,1.22.86,1.31l0,.23h-3l.06-.23c.93-.09,1-.15,1.17-1.31.28-1.85.54-3.47.79-5.19h0l-4,6.73h-.2c-.4-2.21-.81-4.33-1.26-6.56h0l-.83,3.07c-.35,1.3-.54,2-.61,2.47s0,.7.89.79l-.05.23H180l.06-.23c.72-.06,1-.24,1.14-.77s.42-1.25.89-2.91l.65-2.21c.36-1.23.28-1.33-.83-1.44l.06-.22h1.86c.42,2,.85,3.95,1.34,6.14l3.77-6.14h1.82Z" transform="translate(-179.95 -280.22)"/><path class="cls-1" d="M192.54,287a4,4,0,0,1-1.68,1.17c-.22,0-.35-.19-.12-1.11l.74-3.14c.08-.28.08-.38,0-.38a2.74,2.74,0,0,0-.8.48l-.11-.2a4,4,0,0,1,1.73-1.12c.23,0,.21.36.08.93l-.81,3.34c-.06.29,0,.39,0,.39a2.68,2.68,0,0,0,.82-.54Zm-.07-6.72a.45.45,0,0,1,.43.49.61.61,0,0,1-.57.65.45.45,0,0,1-.45-.47.64.64,0,0,1,.57-.67Z" transform="translate(-179.95 -280.22)"/><path class="cls-1" d="M198.48,287a3.2,3.2,0,0,1-1.61,1.13c-.28,0-.36-.32-.14-1.25l.63-2.62c.17-.72.07-.89-.09-.89-.52,0-1.92,1.54-2.52,2.58-.13.56-.3,1.26-.45,2a4.15,4.15,0,0,0-.81.21l-.07-.07c.33-1.33.67-2.72,1-4.07.09-.4.06-.5,0-.5a2.09,2.09,0,0,0-.74.52l-.12-.21a3.25,3.25,0,0,1,1.61-1.13c.25,0,.27.42.08,1.24l-.3,1.26h0a8,8,0,0,1,2.27-2.24,1.54,1.54,0,0,1,.72-.26c.28,0,.59.2.23,1.74-.18.83-.38,1.66-.59,2.49-.07.31-.06.43,0,.43a2.07,2.07,0,0,0,.76-.53Z" transform="translate(-179.95 -280.22)"/><path class="cls-1" d="M201.33,287a3.91,3.91,0,0,1-1.67,1.17c-.22,0-.35-.19-.12-1.11l.74-3.14c.07-.28.07-.38,0-.38a2.5,2.5,0,0,0-.8.48l-.11-.2a4,4,0,0,1,1.72-1.12c.23,0,.22.36.09.93l-.82,3.34c-.06.29,0,.39,0,.39a2.56,2.56,0,0,0,.81-.54Zm-.07-6.72c.28,0,.42.23.43.49a.6.6,0,0,1-.56.65.46.46,0,0,1-.46-.47.64.64,0,0,1,.58-.67Z" transform="translate(-179.95 -280.22)"/><path class="cls-1" d="M205.28,282.67c1,0,1.54.69,1.54,1.82a3.92,3.92,0,0,1-1.27,2.9,2.9,2.9,0,0,1-1.79.75c-1.09,0-1.52-.86-1.52-1.82a3.63,3.63,0,0,1,1.82-3.26,2.87,2.87,0,0,1,1.21-.39Zm-.36.4a1,1,0,0,0-.43.08c-.47.21-1.29,1.2-1.29,3.11,0,.9.38,1.48,1,1.48a1,1,0,0,0,.37-.08c.66-.25,1.32-1.57,1.31-3.13,0-1-.41-1.46-.94-1.46Z" transform="translate(-179.95 -280.22)"/><path class="cls-1" d="M212.7,287a3.2,3.2,0,0,1-1.61,1.13c-.28,0-.36-.32-.14-1.25l.63-2.62c.17-.72.07-.89-.09-.89-.52,0-1.92,1.54-2.52,2.58-.14.56-.3,1.26-.45,2a4.15,4.15,0,0,0-.81.21l-.07-.07c.33-1.33.67-2.72,1-4.07.09-.4.06-.5,0-.5a2.09,2.09,0,0,0-.74.52l-.12-.21a3.25,3.25,0,0,1,1.61-1.13c.25,0,.27.42.08,1.24l-.3,1.26h0a8.08,8.08,0,0,1,2.28-2.24,1.54,1.54,0,0,1,.72-.26c.28,0,.59.2.23,1.74-.18.83-.38,1.66-.59,2.49-.07.31-.06.43,0,.43a2.07,2.07,0,0,0,.76-.53Z" transform="translate(-179.95 -280.22)"/><path class="cls-1" d="M219.87,280.22c1.66,0,2.49.69,2.49,2a2.79,2.79,0,0,1-2.82,2.6h-.48l-.79-.25-.38,1.93c-.2,1.08-.1,1.15,1,1.26l0,.23h-3.15l.06-.23c.92-.09,1-.18,1.23-1.26l1-4.93c.19-1,.12-1-.84-1.14l.06-.22Zm-1.53,4.06a2.31,2.31,0,0,0,.86.15,2.1,2.1,0,0,0,2.11-2.26,1.47,1.47,0,0,0-1.58-1.65,1.21,1.21,0,0,0-.5.09c-.17.06-.24.21-.32.61Z" transform="translate(-179.95 -280.22)"/><path class="cls-1" d="M224.23,284.75c.65-1.27,1.37-2.08,1.81-2.08a.61.61,0,0,1,.49.32.43.43,0,0,1,0,.45,1,1,0,0,1-.3.35.17.17,0,0,1-.25,0,.53.53,0,0,0-.4-.21c-.15,0-.33.15-.62.54a9.8,9.8,0,0,0-.86,1.51c-.19.89-.34,1.67-.47,2.32a5.9,5.9,0,0,0-.8.21l-.09-.08c.31-1.3.67-2.9.89-4.11.06-.35,0-.46,0-.46a2.52,2.52,0,0,0-.84.55l-.12-.19a3.56,3.56,0,0,1,1.63-1.18c.27,0,.28.48.1,1.36l-.16.72Z" transform="translate(-179.95 -280.22)"/><path class="cls-1" d="M229.59,282.67c1,0,1.54.69,1.54,1.82a3.92,3.92,0,0,1-1.27,2.9,2.88,2.88,0,0,1-1.79.75c-1.09,0-1.52-.86-1.52-1.82a3.63,3.63,0,0,1,1.82-3.26,2.87,2.87,0,0,1,1.21-.39Zm-.36.4a1,1,0,0,0-.43.08c-.47.21-1.29,1.2-1.29,3.11,0,.9.38,1.48,1,1.48a1,1,0,0,0,.37-.08c.66-.25,1.32-1.57,1.31-3.13,0-1-.41-1.46-.93-1.46Z" transform="translate(-179.95 -280.22)"/></svg>