<svg id="Layer_1" data-name="Layer 1" xmlns="http://www.w3.org/2000/svg" viewBox="0 0 54.79 7.99"><defs><style>.cls-1{fill:#231f20;}</style></defs><path class="cls-1" d="M272.05,274.44c-1,.09-1.07.12-1.23,1.11-.25,1.71-.43,3.12-.64,4.65-.14,1.18-.07,1.21.9,1.3l-.08.37h-3.08l.09-.37c.94-.09,1-.14,1.18-1.3.25-1.74.51-3.3.78-5h0l-4,6.58h-.31c-.38-2.13-.77-4.14-1.22-6.48h0l-.89,3.23a22.72,22.72,0,0,0-.54,2.21c-.07.51,0,.65.93.74l-.08.37h-2.77l.08-.37c.69-.06.93-.23,1.13-.72s.42-1.19.85-2.65l.67-2.33c.35-1.18.28-1.25-.86-1.36l.1-.37h2.07c.41,2,.8,3.8,1.3,5.95l3.73-5.95h2Z" transform="translate(-261.07 -274.02)"/><path class="cls-1" d="M274.39,280.8a3.73,3.73,0,0,1-1.8,1.21c-.25,0-.43-.19-.18-1.21l.75-3c.08-.27.08-.39,0-.4a2.7,2.7,0,0,0-.83.54l-.16-.31a4,4,0,0,1,1.87-1.16c.28,0,.28.39.14,1l-.84,3.28c-.08.29-.06.39,0,.39a2.39,2.39,0,0,0,.87-.58Zm-.21-6.78a.52.52,0,0,1,.52.57.69.69,0,0,1-.67.72.53.53,0,0,1-.53-.55.73.73,0,0,1,.67-.74Z" transform="translate(-261.07 -274.02)"/><path class="cls-1" d="M280.77,280.84A3.22,3.22,0,0,1,279,282c-.31,0-.43-.32-.22-1.25s.45-1.78.65-2.66c.17-.68.11-.85-.08-.85-.53,0-1.92,1.45-2.52,2.46-.16.6-.35,1.33-.49,2.06a5.68,5.68,0,0,0-.89.24l-.08-.09c.33-1.29.69-2.76,1-4.07.09-.37.05-.47,0-.47a2.27,2.27,0,0,0-.79.57l-.18-.35a3.34,3.34,0,0,1,1.74-1.15c.28,0,.34.4.1,1.39l-.21.91h0a7.6,7.6,0,0,1,2.16-2,1.69,1.69,0,0,1,.84-.28c.3,0,.66.18.3,1.7-.19.82-.4,1.66-.6,2.5-.08.33-.06.43,0,.43a2,2,0,0,0,.81-.58Z" transform="translate(-261.07 -274.02)"/><path class="cls-1" d="M284,280.8a3.73,3.73,0,0,1-1.8,1.21c-.26,0-.44-.19-.18-1.21l.75-3c.07-.27.07-.39,0-.4a2.48,2.48,0,0,0-.83.54l-.17-.31a4,4,0,0,1,1.88-1.16c.28,0,.28.39.14,1l-.84,3.28c-.08.29-.06.39,0,.39a2.29,2.29,0,0,0,.86-.58Zm-.21-6.78a.52.52,0,0,1,.52.57.69.69,0,0,1-.67.72.53.53,0,0,1-.53-.55.73.73,0,0,1,.67-.74Z" transform="translate(-261.07 -274.02)"/><path class="cls-1" d="M288.13,276.45c1,0,1.62.67,1.62,1.9a3.89,3.89,0,0,1-1.3,2.91,3.06,3.06,0,0,1-1.88.75c-1.15,0-1.62-.91-1.62-1.89a3.67,3.67,0,0,1,1.82-3.28,3.07,3.07,0,0,1,1.35-.39Zm-.42.5a1,1,0,0,0-.46.11c-.48.21-1.26,1.19-1.26,3,0,.89.37,1.46,1,1.46a1,1,0,0,0,.4-.09c.63-.27,1.29-1.52,1.29-3,0-1-.42-1.42-1-1.42Z" transform="translate(-261.07 -274.02)"/><path class="cls-1" d="M296.12,280.84a3.22,3.22,0,0,1-1.74,1.17c-.31,0-.43-.32-.22-1.25s.45-1.78.65-2.66c.17-.68.11-.85-.08-.85-.53,0-1.92,1.45-2.52,2.46-.16.6-.35,1.33-.49,2.06a5.39,5.39,0,0,0-.89.24l-.09-.09c.34-1.29.7-2.76,1-4.07.08-.37.05-.47,0-.47a2.28,2.28,0,0,0-.8.57l-.18-.35a3.38,3.38,0,0,1,1.74-1.15c.29,0,.35.4.11,1.39l-.21.91h0a7.6,7.6,0,0,1,2.16-2,1.69,1.69,0,0,1,.84-.28c.3,0,.66.18.3,1.7-.19.82-.4,1.66-.6,2.5-.09.33-.06.43,0,.43a2,2,0,0,0,.81-.58Z" transform="translate(-261.07 -274.02)"/><path class="cls-1" d="M303.85,274.07c1.7,0,2.55.72,2.55,2a2.8,2.8,0,0,1-2.89,2.62h-.44l-.82-.25-.36,1.88c-.19,1-.11,1,1,1.13l-.09.37h-3.21l.09-.37c.93-.1,1-.15,1.2-1.13l1-4.83c.19-.93.15-1-.82-1.1l.08-.37Zm-1.5,4a2.11,2.11,0,0,0,3-2,1.46,1.46,0,0,0-1.62-1.57,1.34,1.34,0,0,0-.52.1c-.12.06-.21.18-.27.55Z" transform="translate(-261.07 -274.02)"/><path class="cls-1" d="M308.61,278.38c.6-1.11,1.3-1.93,1.8-1.93a.64.64,0,0,1,.53.31.53.53,0,0,1,0,.53,1.32,1.32,0,0,1-.33.37.2.2,0,0,1-.26,0,.61.61,0,0,0-.42-.2c-.13,0-.33.12-.59.49a7.92,7.92,0,0,0-.86,1.47c-.18.76-.31,1.48-.48,2.37a5.19,5.19,0,0,0-.89.21l-.08-.09c.3-1.27.62-2.69.87-4,.07-.43.07-.56,0-.56a2.54,2.54,0,0,0-.87.6l-.19-.33a3.52,3.52,0,0,1,1.72-1.18c.32,0,.33.6.15,1.41l-.1.52Z" transform="translate(-261.07 -274.02)"/><path class="cls-1" d="M314.24,276.45c1,0,1.62.67,1.62,1.9a3.89,3.89,0,0,1-1.3,2.91,3,3,0,0,1-1.88.75c-1.15,0-1.62-.91-1.62-1.89a3.67,3.67,0,0,1,1.82-3.28,3.07,3.07,0,0,1,1.35-.39Zm-.42.5a1,1,0,0,0-.46.11c-.48.21-1.26,1.19-1.26,3,0,.89.37,1.46,1,1.46a1,1,0,0,0,.4-.09c.63-.27,1.29-1.52,1.29-3,0-1-.42-1.42-1-1.42Z" transform="translate(-261.07 -274.02)"/></svg>