<svg id="Layer_1" data-name="Layer 1" xmlns="http://www.w3.org/2000/svg" viewBox="0 0 48.98 7.92"><defs><style>.cls-1{fill:#231f20;}</style></defs><path class="cls-1" d="M242.46,216.37c-1,.09-1,.17-1.21,1.21-.27,1.8-.45,3.24-.69,5-.15,1.17-.08,1.2.86,1.31l0,.14h-2.93l0-.14c.92-.11,1-.18,1.18-1.31.27-1.93.54-3.59.8-5.33h0l-4,6.82h-.13c-.39-2.26-.84-4.43-1.28-6.6h0l-.8,3c-.37,1.36-.57,2.15-.65,2.62s0,.73.87.84l0,.14h-2.48l0-.14c.75-.06,1-.26,1.14-.8s.42-1.31.93-3.07l.62-2.13c.36-1.27.29-1.38-.81-1.49l0-.14h1.72c.44,2,.88,4.05,1.37,6.25l3.78-6.25h1.73Z" transform="translate(-231.94 -216.23)"/><path class="cls-1" d="M244.07,223a4,4,0,0,1-1.59,1.15c-.2,0-.3-.18-.1-1l.74-3.22c.08-.3.08-.37,0-.37a2.72,2.72,0,0,0-.78.46l-.07-.13a4.23,4.23,0,0,1,1.63-1.1c.21,0,.19.35.06.89l-.8,3.41c-.06.29,0,.36,0,.36a2.87,2.87,0,0,0,.8-.52Zm0-6.67c.25,0,.37.21.38.44a.55.55,0,0,1-.5.6.38.38,0,0,1-.39-.41.56.56,0,0,1,.5-.63Z" transform="translate(-231.94 -216.23)"/><path class="cls-1" d="M249.75,223a3.33,3.33,0,0,1-1.53,1.11c-.25,0-.31-.32-.09-1.26l.6-2.6c.16-.74.06-.91-.1-.91-.5,0-1.92,1.6-2.51,2.65-.12.53-.27,1.21-.42,1.92a3.64,3.64,0,0,0-.76.2l-.08-.07c.34-1.35.66-2.71.95-4.08.1-.43.06-.51,0-.51a1.83,1.83,0,0,0-.71.48l-.09-.12a3.26,3.26,0,0,1,1.53-1.11c.22,0,.23.42.06,1.14l-.35,1.47h0a8.22,8.22,0,0,1,2.36-2.37,1.32,1.32,0,0,1,.62-.24c.27,0,.55.2.18,1.78-.16.82-.36,1.64-.55,2.47-.06.3-.07.42,0,.42a2.35,2.35,0,0,0,.76-.5Z" transform="translate(-231.94 -216.23)"/><path class="cls-1" d="M252.39,223a4.06,4.06,0,0,1-1.6,1.15c-.19,0-.3-.18-.09-1l.74-3.22c.07-.3.07-.37,0-.37a2.48,2.48,0,0,0-.78.46l-.07-.13a4.16,4.16,0,0,1,1.63-1.1c.2,0,.19.35.06.89l-.8,3.41c-.06.29,0,.36,0,.36a2.61,2.61,0,0,0,.8-.52Zm0-6.67c.25,0,.37.21.38.44a.57.57,0,0,1-.5.6.39.39,0,0,1-.4-.41c0-.27.17-.63.5-.63Z" transform="translate(-231.94 -216.23)"/><path class="cls-1" d="M256.23,218.73c.92,0,1.47.69,1.47,1.76a3.94,3.94,0,0,1-1.25,2.91,2.9,2.9,0,0,1-1.73.74c-1.06,0-1.47-.84-1.47-1.78a3.67,3.67,0,0,1,1.82-3.27,2.9,2.9,0,0,1,1.14-.36Zm-.34.33a.93.93,0,0,0-.42.08c-.45.18-1.32,1.18-1.32,3.16,0,.92.39,1.5,1,1.5a1,1,0,0,0,.35-.06c.69-.24,1.35-1.61,1.33-3.19,0-1-.39-1.49-.91-1.49Z" transform="translate(-231.94 -216.23)"/><path class="cls-1" d="M263.29,223a3.27,3.27,0,0,1-1.52,1.11c-.25,0-.31-.32-.1-1.26s.41-1.73.6-2.6.06-.91-.09-.91c-.51,0-1.92,1.6-2.51,2.65-.12.53-.27,1.21-.42,1.92a3.75,3.75,0,0,0-.77.2l-.07-.07c.34-1.35.66-2.71.95-4.08.1-.43.06-.51,0-.51a1.83,1.83,0,0,0-.71.48l-.1-.12a3.32,3.32,0,0,1,1.54-1.11c.21,0,.23.42.06,1.14l-.35,1.47h0a8.35,8.35,0,0,1,2.37-2.37,1.32,1.32,0,0,1,.62-.24c.26,0,.55.2.18,1.78-.17.82-.36,1.64-.55,2.47-.06.3-.07.42,0,.42a2.35,2.35,0,0,0,.76-.5Z" transform="translate(-231.94 -216.23)"/><path class="cls-1" d="M270.15,216.23c1.61,0,2.43.68,2.43,2a2.8,2.8,0,0,1-2.76,2.58l-.5,0-.78-.25-.37,2c-.22,1.13-.11,1.23,1,1.34l0,.14H266l0-.14c.92-.1,1-.21,1.25-1.34l1-5c.19-1,.09-1.08-.85-1.18l0-.14Zm-1.56,4.12a3.09,3.09,0,0,0,.85.12,2.13,2.13,0,0,0,2.13-2.32,1.48,1.48,0,0,0-1.57-1.69,1.26,1.26,0,0,0-.49.09c-.18.07-.25.23-.34.65Z" transform="translate(-231.94 -216.23)"/><path class="cls-1" d="M274.26,220.89c.67-1.38,1.42-2.16,1.81-2.16a.62.62,0,0,1,.47.3.42.42,0,0,1,0,.42,1,1,0,0,1-.29.34.18.18,0,0,1-.24,0,.51.51,0,0,0-.38-.22c-.16,0-.35.14-.64.56a11.83,11.83,0,0,0-.85,1.53c-.22,1-.37,1.78-.47,2.28a6.41,6.41,0,0,0-.75.21l-.08-.07c.32-1.31.69-3,.88-4.17.06-.32.05-.4,0-.4a2.37,2.37,0,0,0-.81.53l-.08-.13a3.67,3.67,0,0,1,1.55-1.16c.23,0,.27.42.08,1.32l-.18.84Z" transform="translate(-231.94 -216.23)"/><path class="cls-1" d="M279.45,218.73c.92,0,1.47.69,1.47,1.76a4,4,0,0,1-1.25,2.91,2.9,2.9,0,0,1-1.74.74c-1.05,0-1.46-.84-1.46-1.78a3.67,3.67,0,0,1,1.82-3.27,2.9,2.9,0,0,1,1.14-.36Zm-.34.33a.93.93,0,0,0-.42.08c-.46.18-1.32,1.18-1.32,3.16,0,.92.38,1.5,1,1.5a1,1,0,0,0,.35-.06c.69-.24,1.35-1.61,1.33-3.19,0-1-.39-1.49-.91-1.49Z" transform="translate(-231.94 -216.23)"/></svg>