<?xml version="1.0" encoding="utf-8"?>
<!-- Generator: Adobe Illustrator 24.3.0, SVG Export Plug-In . SVG Version: 6.00 Build 0)  -->
<svg version="1.1" id="Layer_1" xmlns="http://www.w3.org/2000/svg" xmlns:xlink="http://www.w3.org/1999/xlink" x="0px" y="0px"
	 viewBox="0 0 402.6 124.4" style="enable-background:new 0 0 402.6 124.4;" xml:space="preserve">
<style type="text/css">
	.st0{fill:#151226;}
	.st1{fill:#6AC8BD;}
</style>
<rect class="st0" width="402.6" height="124.4"/>
<path class="st1" d="M5.5,0c4,31.2,8,33.2,50.9,33.2l188.9-0.3c55.9-0.1,96.2,6.9,126,38.1c13.9,14.4,24.5,31.6,31.3,50.4l-6.5,3
	c-8.6-20.1-26.2-32.7-54.9-36.7c-25.7-3.5-56-5-103.2-4.9L56.7,83c-42.8,0.1-46.8,2.6-50.8,35.3H0.2L0,0H5.5z"/>
<g>
	<path class="st0" d="M73.6,85.4c-0.4,1.5-1.1,3.8-1.6,4.9c-0.8,0.2-3.3,0.8-5.3,0.8C59,91.1,56,85.6,56,80.4
		c0-6.7,4.5-11.4,11.5-11.4c2.1,0,4.1,0.5,5,0.7c0.2,1.8,0.4,3.3,0.6,5.1L72,75.1c-1-3.6-2.9-4.7-5.1-4.7c-3.7,0-6.1,4.5-6.1,9.4
		c0,5.9,2.7,10,6.2,10c2.3,0,4-1.8,5.4-4.7L73.6,85.4z"/>
	<path class="st0" d="M81.1,79.1c1.1-2,2.2-3.4,3.5-3.4c1.2,0,2,0.9,2,2c0,1.2-0.8,2.1-1.6,2.4c-0.4,0.2-0.7,0.1-1-0.1
		c-0.5-0.4-0.9-0.7-1.4-0.7c-0.6,0-1.1,0.2-1.6,1.5v6.5c0,2,0.2,2.1,2.4,2.3v1h-8.3v-1c1.7-0.2,1.9-0.4,1.9-2.3v-7.3
		c0-1.7-0.2-1.9-1.6-2.3v-0.9c2-0.2,3.9-0.7,5.6-1.3L81.1,79.1L81.1,79.1z"/>
	<path class="st0" d="M99.3,87.7c-1.8,2.7-4.2,3.4-5.5,3.4c-4.2,0-6.5-3.3-6.5-7c0-2.8,1.2-4.9,2.3-6c1.3-1.3,3-2.3,4.8-2.3h0
		c3,0,5.1,2.6,5,5.3c0,0.7-0.1,1.1-0.9,1.2c-0.5,0.1-4.4,0.4-7.4,0.5c0.1,3.5,2,5.4,4.2,5.4c1.4,0,2.3-0.4,3.4-1.4L99.3,87.7z
		 M93.8,77c-1.2,0-2.3,1.8-2.5,4.3c1.3,0,2.4,0,3.6-0.1c0.5,0,0.7-0.2,0.7-0.8C95.7,78.7,95,77,93.8,77L93.8,77z"/>
	<path class="st0" d="M111.4,91.1c-0.8,0-1.5-0.3-1.8-0.7c-0.4-0.4-0.6-0.8-0.8-1.1c-1,0.7-2.5,1.8-3.3,1.8c-2.6,0-4.2-2.2-4.2-4.1
		c0-1.7,0.7-2.6,2.3-3.3c1.5-0.6,4.2-1.5,5-2.2v-1.4c0-1.9-0.9-2.9-1.8-2.9c-0.5,0-0.8,0.2-1.2,0.6c-0.3,0.4-0.6,1.2-0.8,2.2
		c-0.2,0.8-0.6,1.1-1.2,1.1c-0.9,0-2.1-0.7-2.1-1.6c0-0.5,0.4-1,1.1-1.5c1.3-0.9,3.3-2,5.3-2.3c1.3,0,2.3,0.4,3.2,1.1
		c1.1,1,1.4,2.3,1.4,3.8v5.9c0,1.5,0.5,1.9,1,1.9c0.4,0,0.8-0.1,1-0.2l0.3,1L111.4,91.1z M108.5,82.8c-0.6,0.3-1.2,0.7-1.7,1.1
		c-0.9,0.6-1.4,1.1-1.4,2.2c0,1.6,1.1,2.5,2,2.5c0.5,0,0.8-0.1,1.2-0.5V82.8z"/>
	<path class="st0" d="M122,90.7c-0.5,0.3-1,0.4-1.4,0.4c-2.3,0-3.8-1.2-3.8-4.1v-9.4H115l-0.2-0.4l0.9-1.2h1.2v-2.3l3.6-2.5l0.5,0.2
		v4.6h3.1c0.3,0.4,0.3,1.3-0.2,1.5h-2.9v8.3c0,2.5,0.9,2.9,1.7,2.9c0.7,0,1.2-0.2,1.6-0.4l0.3,1.1L122,90.7z"/>
	<path class="st0" d="M125.5,90.7v-1c1.7-0.2,1.9-0.3,1.9-2.6v-6.8c0-2-0.2-2.1-1.7-2.4V77c1.8-0.3,3.9-0.7,5.7-1.3v11.4
		c0,2.2,0.2,2.4,1.9,2.6v1H125.5z M127,71.6c0-1.3,1-2.3,2.2-2.3c1.3,0,2.2,1,2.2,2.3c0,1.3-1,2.3-2.2,2.3
		C128,73.9,127,72.8,127,71.6z"/>
	<path class="st0" d="M143.3,90.7v-1c1.3-0.2,1.5-0.3,1.5-2.4v-6c0-2.3-0.9-3-2-3c-0.8,0-1.5,0.3-2.2,1v8.2c0,2,0.2,2.1,1.4,2.3v1
		h-7.5v-1c1.8-0.2,2-0.3,2-2.4v-7.1c0-2-0.1-2.1-1.6-2.4v-0.9c2-0.2,3.9-0.7,5.6-1.2V78c0.7-0.5,1.2-0.9,1.8-1.4
		c0.9-0.6,1.5-0.9,2.5-0.9c2.6,0,4,2,4,5v6.6c0,2.1,0.2,2.1,1.7,2.3v1H143.3z"/>
	<path class="st0" d="M166.1,76.5c-0.2,0.6-0.7,1.5-1.2,1.9l-1.8-0.1c0.6,0.7,0.9,1.5,0.9,2.6c0,3.4-2.7,5-5.9,5
		c-0.3,0-0.7-0.1-1.4-0.1c-0.3,0.2-0.5,0.6-0.5,1c0,0.5,0.5,1.2,1.8,1.2c1.1,0,2,0,3,0c2.4,0,4.8,1,4.8,3.9c0,3.6-4,6.6-8.3,6.6
		c-4,0-5.9-2.1-5.9-3.9c0-0.7,0.3-1.1,0.9-1.6c0.7-0.6,1.8-1.3,2.4-1.7c-1.2-0.5-1.9-1.3-2.3-1.9c-0.3-0.5-0.4-1.1-0.4-1.6
		c1.7-0.7,2.7-1.6,3.3-2.2c-1.9-0.7-3.2-2.3-3.2-4.3c0-3.6,3.1-5.4,6-5.4h0c1.4,0,2.4,0.3,3.4,0.9c1.5-0.1,2.9-0.3,4.2-0.4
		L166.1,76.5z M158.3,91.3c-1.6,0-2.2,0.1-2.7,0.7c-0.4,0.4-0.7,0.9-0.7,1.6c0,1.7,1.7,3.1,4.1,3.1c2.4,0,3.7-1.4,3.7-3
		c0-1.2-0.7-1.7-1.7-2C160.3,91.3,159.5,91.3,158.3,91.3L158.3,91.3z M158.1,76.9c-1,0-1.8,1.2-1.8,3.6c0,2.5,0.8,4.1,2.1,4.1
		c1.1,0,1.8-1.2,1.8-3.6C160.2,78.6,159.5,76.9,158.1,76.9L158.1,76.9z"/>
	<path class="st0" d="M180.1,90.7c-0.5,0.3-1,0.4-1.4,0.4c-2.3,0-3.8-1.2-3.8-4.1v-9.4h-1.9l-0.2-0.4l0.9-1.2h1.2v-2.3l3.6-2.5
		l0.5,0.2v4.6h3.1c0.3,0.4,0.3,1.3-0.2,1.5H179v8.3c0,2.5,0.9,2.9,1.7,2.9c0.7,0,1.2-0.2,1.6-0.4l0.3,1.1L180.1,90.7z"/>
	<path class="st0" d="M192.1,90.7v-1c1.4-0.2,1.5-0.4,1.5-2.3v-6c0-2.4-0.9-3.2-2.1-3.2c-0.8,0-1.5,0.2-2.1,0.9v8.4
		c0,1.9,0.2,2.1,1.4,2.3v1h-7.4v-1c1.8-0.2,2-0.3,2-2.4V72c0-1.9-0.1-1.9-1.8-2.1v-1c1.7-0.2,3.9-0.6,5.8-1.1v10
		c1-1,2.5-2.1,4.1-2.1c2.8,0,4.2,1.9,4.2,5.3v6.3c0,2.1,0.2,2.1,1.7,2.4v1H192.1z"/>
	<path class="st0" d="M212.9,87.7c-1.8,2.7-4.2,3.4-5.5,3.4c-4.2,0-6.5-3.3-6.5-7c0-2.8,1.2-4.9,2.3-6c1.3-1.3,3-2.3,4.8-2.3h0
		c3,0,5.1,2.6,5,5.3c0,0.7-0.1,1.1-0.9,1.2c-0.5,0.1-4.4,0.4-7.4,0.5c0.1,3.5,2,5.4,4.2,5.4c1.4,0,2.3-0.4,3.4-1.4L212.9,87.7z
		 M207.4,77c-1.2,0-2.3,1.8-2.5,4.3c1.3,0,2.4,0,3.6-0.1c0.5,0,0.7-0.2,0.7-0.8C209.3,78.7,208.6,77,207.4,77L207.4,77z"/>
	<path class="st0" d="M236.7,90.7v-1.1c2.2-0.2,2.3-0.3,2.3-3.3l0-12.9h-0.1l-6.4,17h-1l-5.9-16.6h-0.2l-0.3,8.4
		c-0.1,2.7-0.2,4.3-0.1,5.3c0.1,1.5,0.7,1.9,2.8,2v1.1h-7.3v-1.1c1.7-0.2,2.2-0.6,2.4-1.8c0.2-1,0.4-2.9,0.6-6l0.5-7
		c0.2-3.6,0.1-4-2.5-4.2v-1.1h6.4l5.5,14l5.6-14h6.4v1.1c-2.5,0.2-2.5,0.4-2.5,3l0.3,12.7c0.1,2.9,0.2,3,2.5,3.3v1.1H236.7z"/>
	<path class="st0" d="M247.3,90.7v-1c1.7-0.2,1.9-0.3,1.9-2.6v-6.8c0-2-0.2-2.1-1.7-2.4V77c1.8-0.3,3.9-0.7,5.7-1.3v11.4
		c0,2.2,0.2,2.4,1.9,2.6v1H247.3z M248.8,71.6c0-1.3,1-2.3,2.2-2.3c1.3,0,2.2,1,2.2,2.3c0,1.3-1,2.3-2.2,2.3
		C249.8,73.9,248.8,72.8,248.8,71.6z"/>
	<path class="st0" d="M265.1,90.7v-1c1.3-0.2,1.5-0.3,1.5-2.4v-6c0-2.3-0.9-3-2-3c-0.8,0-1.5,0.3-2.2,1v8.2c0,2,0.2,2.1,1.4,2.3v1
		h-7.5v-1c1.8-0.2,2-0.3,2-2.4v-7.1c0-2-0.1-2.1-1.6-2.4v-0.9c2-0.2,3.9-0.7,5.6-1.2V78c0.7-0.5,1.2-0.9,1.8-1.4
		c0.9-0.6,1.5-0.9,2.5-0.9c2.6,0,4,2,4,5v6.6c0,2.1,0.2,2.1,1.7,2.3v1H265.1z"/>
	<path class="st0" d="M273.8,90.7v-1c1.7-0.2,1.9-0.3,1.9-2.6v-6.8c0-2-0.2-2.1-1.7-2.4V77c1.8-0.3,3.9-0.7,5.7-1.3v11.4
		c0,2.2,0.2,2.4,1.9,2.6v1H273.8z M275.3,71.6c0-1.3,1-2.3,2.2-2.3c1.3,0,2.2,1,2.2,2.3c0,1.3-1,2.3-2.2,2.3
		C276.3,73.9,275.3,72.8,275.3,71.6z"/>
	<path class="st0" d="M290.2,75.7c4.3,0,6.9,3.5,6.9,7.4c0,5.3-3.4,8-7,8c-4.8,0-7.1-3.8-7.1-7.4C283,78.3,286.9,75.7,290.2,75.7
		L290.2,75.7z M289.8,77c-1.2,0-2.3,1.8-2.3,5.6c0,4.1,1.1,7.3,2.9,7.3c1.1,0,2.3-0.9,2.3-5.8C292.7,79.6,291.6,77,289.8,77
		L289.8,77z"/>
	<path class="st0" d="M307.4,90.7v-1c1.3-0.2,1.5-0.3,1.5-2.4v-6c0-2.3-0.9-3-2-3c-0.8,0-1.5,0.3-2.2,1v8.2c0,2,0.2,2.1,1.4,2.3v1
		h-7.5v-1c1.8-0.2,2-0.3,2-2.4v-7.1c0-2-0.1-2.1-1.6-2.4v-0.9c2-0.2,3.9-0.7,5.6-1.2V78c0.7-0.5,1.2-0.9,1.8-1.4
		c0.9-0.6,1.5-0.9,2.5-0.9c2.6,0,4,2,4,5v6.6c0,2.1,0.2,2.1,1.7,2.3v1H307.4z"/>
</g>
</svg>
