<?xml version="1.0" encoding="utf-8"?>
<!-- Generator: Adobe Illustrator 24.3.0, SVG Export Plug-In . SVG Version: 6.00 Build 0)  -->
<svg version="1.1" id="Layer_1" xmlns="http://www.w3.org/2000/svg" xmlns:xlink="http://www.w3.org/1999/xlink" x="0px" y="0px"
	 viewBox="0 0 402.6 124.4" style="enable-background:new 0 0 402.6 124.4;" xml:space="preserve">
<style type="text/css">
	.st0{fill:#151226;}
	.st1{fill:#6AC8BD;}
</style>
<rect x="0.2" y="0.3" class="st0" width="402.6" height="124.4"/>
<path class="st1" d="M402.6,0l-0.2,118.4h-5.6c-4-32.8-8-35.3-50.8-35.3l-181.3-0.3c-47.2-0.1-77.4,1.4-103.2,4.9
	c-28.7,4-46.3,16.6-54.9,36.7l-6.6-3c6.7-18.8,17.4-36,31.3-50.4c29.8-31.2,70.1-38.1,126-38.1l188.9,0.3c42.9,0.1,46.9-2,50.9-33.2
	L402.6,0z"/>
<g>
	<path class="st0" d="M111.6,36c-0.4,1.5-1.1,3.8-1.6,4.9c-0.8,0.2-3.3,0.8-5.3,0.8C97,41.7,94,36.2,94,31c0-6.7,4.5-11.4,11.5-11.4
		c2.1,0,4.1,0.5,5,0.7c0.2,1.8,0.4,3.3,0.6,5.1l-1.1,0.2c-1-3.6-2.9-4.7-5.1-4.7c-3.7,0-6.1,4.5-6.1,9.4c0,5.9,2.7,10,6.2,10
		c2.3,0,4-1.8,5.4-4.7L111.6,36z"/>
	<path class="st0" d="M119,29.7c1.1-2,2.2-3.4,3.5-3.4c1.2,0,2,0.9,2,2c0,1.2-0.8,2.1-1.6,2.4c-0.4,0.2-0.7,0.1-1-0.1
		c-0.5-0.4-0.9-0.7-1.4-0.7c-0.6,0-1.1,0.2-1.6,1.5V38c0,2,0.2,2.1,2.4,2.3v1H113v-1c1.7-0.2,1.9-0.4,1.9-2.3v-7.3
		c0-1.7-0.2-1.9-1.6-2.3v-0.9c2-0.2,3.9-0.7,5.6-1.3L119,29.7L119,29.7z"/>
	<path class="st0" d="M137.3,38.3c-1.8,2.7-4.2,3.4-5.5,3.4c-4.2,0-6.5-3.3-6.5-7c0-2.8,1.2-4.9,2.3-6c1.3-1.3,3-2.3,4.8-2.3h0
		c3,0,5.1,2.6,5,5.3c0,0.7-0.1,1.1-0.9,1.2c-0.5,0.1-4.4,0.4-7.4,0.5c0.1,3.5,2,5.4,4.2,5.4c1.4,0,2.3-0.4,3.4-1.4L137.3,38.3z
		 M131.8,27.6c-1.2,0-2.3,1.8-2.5,4.3c1.3,0,2.4,0,3.6-0.1c0.5,0,0.7-0.2,0.7-0.8C133.6,29.3,133,27.6,131.8,27.6L131.8,27.6z"/>
	<path class="st0" d="M149.3,41.7c-0.8,0-1.5-0.3-1.8-0.7c-0.4-0.4-0.6-0.8-0.8-1.1c-1,0.7-2.5,1.8-3.3,1.8c-2.6,0-4.2-2.2-4.2-4.1
		c0-1.7,0.7-2.6,2.3-3.3c1.5-0.6,4.2-1.5,5-2.2v-1.4c0-1.9-0.9-2.9-1.8-2.9c-0.5,0-0.8,0.2-1.2,0.6c-0.3,0.4-0.6,1.2-0.8,2.2
		c-0.2,0.8-0.6,1.1-1.2,1.1c-0.9,0-2.1-0.7-2.1-1.6c0-0.5,0.4-1,1.1-1.5c1.3-0.9,3.3-2,5.3-2.3c1.3,0,2.3,0.4,3.2,1.1
		c1.1,1,1.4,2.3,1.4,3.8v5.9c0,1.5,0.5,1.9,1,1.9c0.4,0,0.8-0.1,1-0.2l0.3,1L149.3,41.7z M146.5,33.4c-0.6,0.3-1.2,0.7-1.7,1.1
		c-0.9,0.6-1.4,1.1-1.4,2.2c0,1.6,1.1,2.5,2,2.5c0.5,0,0.8-0.1,1.2-0.5V33.4z"/>
	<path class="st0" d="M159.9,41.3c-0.5,0.3-1,0.4-1.4,0.4c-2.3,0-3.8-1.2-3.8-4.1v-9.4h-1.9l-0.2-0.4l0.9-1.2h1.2v-2.3l3.6-2.5
		l0.5,0.2v4.6h3.1c0.3,0.4,0.3,1.3-0.2,1.5h-2.9v8.3c0,2.5,0.9,2.9,1.7,2.9c0.7,0,1.2-0.2,1.6-0.4l0.3,1.1L159.9,41.3z"/>
	<path class="st0" d="M163.5,41.3v-1c1.7-0.2,1.9-0.3,1.9-2.6v-6.8c0-2-0.2-2.1-1.7-2.4v-0.9c1.8-0.3,3.9-0.7,5.7-1.3v11.4
		c0,2.2,0.2,2.4,1.9,2.6v1H163.5z M165,22.2c0-1.3,1-2.3,2.2-2.3c1.3,0,2.2,1,2.2,2.3c0,1.3-1,2.3-2.2,2.3
		C166,24.5,165,23.4,165,22.2z"/>
	<path class="st0" d="M181.3,41.3v-1c1.3-0.2,1.5-0.3,1.5-2.4v-6c0-2.3-0.9-3-2-3c-0.8,0-1.5,0.3-2.2,1V38c0,2,0.2,2.1,1.4,2.3v1
		h-7.5v-1c1.8-0.2,2-0.3,2-2.4v-7.1c0-2-0.1-2.1-1.6-2.4v-0.9c2-0.2,3.9-0.7,5.6-1.2v2.3c0.7-0.5,1.2-0.9,1.8-1.4
		c0.9-0.6,1.5-0.9,2.5-0.9c2.6,0,4,2,4,5v6.6c0,2.1,0.2,2.1,1.7,2.3v1H181.3z"/>
	<path class="st0" d="M204.1,27.1c-0.2,0.6-0.7,1.5-1.2,1.9l-1.8-0.1c0.6,0.7,0.9,1.5,0.9,2.6c0,3.4-2.7,5-5.9,5
		c-0.3,0-0.7-0.1-1.4-0.1c-0.3,0.2-0.5,0.6-0.5,1c0,0.5,0.5,1.2,1.8,1.2c1.1,0,2,0,3,0c2.4,0,4.8,1,4.8,3.9c0,3.6-4,6.6-8.3,6.6
		c-4,0-5.9-2.1-5.9-3.9c0-0.7,0.3-1.1,0.9-1.6c0.7-0.6,1.8-1.3,2.4-1.7c-1.2-0.5-1.9-1.3-2.3-1.9c-0.3-0.5-0.4-1.1-0.4-1.6
		c1.7-0.7,2.7-1.6,3.3-2.2c-1.9-0.7-3.2-2.3-3.2-4.3c0-3.6,3.1-5.4,6-5.4h0c1.4,0,2.4,0.3,3.4,0.9c1.5-0.1,2.9-0.3,4.2-0.4
		L204.1,27.1z M196.3,41.9c-1.6,0-2.2,0.1-2.7,0.7c-0.4,0.4-0.7,0.9-0.7,1.6c0,1.7,1.7,3.1,4.1,3.1c2.4,0,3.7-1.4,3.7-3
		c0-1.2-0.7-1.7-1.7-2C198.3,42,197.5,41.9,196.3,41.9L196.3,41.9z M196.1,27.5c-1,0-1.8,1.2-1.8,3.6c0,2.5,0.8,4.1,2.1,4.1
		c1.1,0,1.8-1.2,1.8-3.6C198.2,29.2,197.5,27.5,196.1,27.5L196.1,27.5z"/>
	<path class="st0" d="M218,41.3c-0.5,0.3-1,0.4-1.4,0.4c-2.3,0-3.8-1.2-3.8-4.1v-9.4h-1.9l-0.2-0.4l0.9-1.2h1.2v-2.3l3.6-2.5
		l0.5,0.2v4.6h3.1c0.3,0.4,0.3,1.3-0.2,1.5H217v8.3c0,2.5,0.9,2.9,1.7,2.9c0.7,0,1.2-0.2,1.6-0.4l0.3,1.1L218,41.3z"/>
	<path class="st0" d="M230,41.3v-1c1.4-0.2,1.5-0.4,1.5-2.3v-6c0-2.4-0.9-3.2-2.1-3.2c-0.8,0-1.5,0.2-2.1,0.9V38
		c0,1.9,0.2,2.1,1.4,2.3v1h-7.4v-1c1.8-0.2,2-0.3,2-2.4V22.6c0-1.9-0.1-1.9-1.8-2.1v-1c1.7-0.2,3.9-0.6,5.8-1.1v10
		c1-1,2.5-2.1,4.1-2.1c2.8,0,4.2,1.9,4.2,5.3v6.3c0,2.1,0.2,2.1,1.7,2.4v1H230z"/>
	<path class="st0" d="M250.9,38.3c-1.8,2.7-4.2,3.4-5.5,3.4c-4.2,0-6.5-3.3-6.5-7c0-2.8,1.2-4.9,2.3-6c1.3-1.3,3-2.3,4.8-2.3h0
		c3,0,5.1,2.6,5,5.3c0,0.7-0.1,1.1-0.9,1.2c-0.5,0.1-4.4,0.4-7.4,0.5c0.1,3.5,2,5.4,4.2,5.4c1.4,0,2.3-0.4,3.4-1.4L250.9,38.3z
		 M245.4,27.6c-1.2,0-2.3,1.8-2.5,4.3c1.3,0,2.4,0,3.6-0.1c0.5,0,0.7-0.2,0.7-0.8C247.2,29.3,246.6,27.6,245.4,27.6L245.4,27.6z"/>
	<path class="st0" d="M274.6,41.3v-1.1c2.2-0.2,2.3-0.3,2.3-3.3l0-12.9h-0.1l-6.4,17h-1l-5.9-16.6h-0.2l-0.3,8.4
		c-0.1,2.7-0.2,4.3-0.1,5.3c0.1,1.5,0.7,1.9,2.8,2v1.1h-7.3v-1.1c1.7-0.2,2.2-0.6,2.4-1.8c0.2-1,0.4-2.9,0.6-6l0.5-7
		c0.2-3.6,0.1-4-2.5-4.2v-1.1h6.4l5.5,14l5.6-14h6.4v1.1c-2.5,0.2-2.5,0.4-2.5,3l0.3,12.7c0.1,2.9,0.2,3,2.5,3.3v1.1H274.6z"/>
	<path class="st0" d="M285.3,41.3v-1c1.7-0.2,1.9-0.3,1.9-2.6v-6.8c0-2-0.2-2.1-1.7-2.4v-0.9c1.8-0.3,3.9-0.7,5.7-1.3v11.4
		c0,2.2,0.2,2.4,1.9,2.6v1H285.3z M286.8,22.2c0-1.3,1-2.3,2.2-2.3c1.3,0,2.2,1,2.2,2.3c0,1.3-1,2.3-2.2,2.3
		C287.8,24.5,286.8,23.4,286.8,22.2z"/>
	<path class="st0" d="M303.1,41.3v-1c1.3-0.2,1.5-0.3,1.5-2.4v-6c0-2.3-0.9-3-2-3c-0.8,0-1.5,0.3-2.2,1V38c0,2,0.2,2.1,1.4,2.3v1
		h-7.5v-1c1.8-0.2,2-0.3,2-2.4v-7.1c0-2-0.1-2.1-1.6-2.4v-0.9c2-0.2,3.9-0.7,5.6-1.2v2.3c0.7-0.5,1.2-0.9,1.8-1.4
		c0.9-0.6,1.5-0.9,2.5-0.9c2.6,0,4,2,4,5v6.6c0,2.1,0.2,2.1,1.7,2.3v1H303.1z"/>
	<path class="st0" d="M311.8,41.3v-1c1.7-0.2,1.9-0.3,1.9-2.6v-6.8c0-2-0.2-2.1-1.7-2.4v-0.9c1.8-0.3,3.9-0.7,5.7-1.3v11.4
		c0,2.2,0.2,2.4,1.9,2.6v1H311.8z M313.3,22.2c0-1.3,1-2.3,2.2-2.3c1.3,0,2.2,1,2.2,2.3c0,1.3-1,2.3-2.2,2.3
		C314.3,24.5,313.3,23.4,313.3,22.2z"/>
	<path class="st0" d="M328.2,26.3c4.3,0,6.9,3.5,6.9,7.4c0,5.3-3.4,8-7,8c-4.8,0-7.1-3.8-7.1-7.4C320.9,28.9,324.8,26.3,328.2,26.3
		L328.2,26.3z M327.7,27.6c-1.2,0-2.3,1.8-2.3,5.6c0,4.1,1.1,7.3,2.9,7.3c1.1,0,2.3-0.9,2.3-5.8C330.6,30.2,329.6,27.6,327.7,27.6
		L327.7,27.6z"/>
	<path class="st0" d="M345.3,41.3v-1c1.3-0.2,1.5-0.3,1.5-2.4v-6c0-2.3-0.9-3-2-3c-0.8,0-1.5,0.3-2.2,1V38c0,2,0.2,2.1,1.4,2.3v1
		h-7.5v-1c1.8-0.2,2-0.3,2-2.4v-7.1c0-2-0.1-2.1-1.6-2.4v-0.9c2-0.2,3.9-0.7,5.6-1.2v2.3c0.7-0.5,1.2-0.9,1.8-1.4
		c0.9-0.6,1.5-0.9,2.5-0.9c2.6,0,4,2,4,5v6.6c0,2.1,0.2,2.1,1.7,2.3v1H345.3z"/>
</g>
</svg>
