<svg id="Layer_1" data-name="Layer 1" xmlns="http://www.w3.org/2000/svg" viewBox="0 0 584.31 204.21"><defs><style>.cls-1{fill:none;stroke:#2d2b7d;}</style></defs><path class="cls-1" d="M142.42,208.24C136,216,128.9,219.5,125.68,219.5c-2.27,0-4.45-1.32-2.74-9.93l1-5h-.19a59.46,59.46,0,0,1-9.37,10.13c-2.84,2.36-6.72,4.82-10.12,4.82-3.79,0-6.62-4.16-6.62-11.54a33.8,33.8,0,0,1,10.4-24.12c4.35-3.88,12.49-8.42,20.34-8.42a36.76,36.76,0,0,1,6.06.66,24.7,24.7,0,0,0,5.48.66l.57.38c-2,8.23-4.25,18.35-6.24,29.52-.47,2.83-.29,3.68.28,3.68.85,0,4.16-2.36,6.25-4.54ZM125.21,197c1.13-4.73,2.93-12.68,3.4-15.52a12.27,12.27,0,0,0-5.48-1.32,6.93,6.93,0,0,0-4.17,1.23c-6,4.35-9,16.17-9,24.31,0,3.69.75,5.3,2,5.3C115.27,211,123.6,200.39,125.21,197Z" transform="translate(-97.18 -151.36)"/><path class="cls-1" d="M151.22,155.27c9.37-1.05,15.33-3.41,17.22-3.41,1.14,0,1.23,1.23.76,3.12-2.56,10.88-4.92,21.57-7.57,32.83h.19c7-8.23,14-12.39,18.82-12.39,4.64,0,7.76,4.63,7.76,11.63a34.1,34.1,0,0,1-14.19,27.06,30.41,30.41,0,0,1-16,5.39c-4.73,0-7.85-2.08-9.46-4.54-1.8-2.55-1.89-6.53-.85-12.11,2.55-12.87,5.2-25,8.14-39.45.94-4.16.56-4.92-2.84-5.11l-2.46-.09Zm16.08,58.08c3.6-2.65,8.9-13.62,8.9-24.5,0-4-1.23-5.87-2.65-5.87-2.46,0-7.76,3.79-12.77,11.17a55,55,0,0,0-1.71,7.85c-1.89,10.6,1.8,12.77,4.45,12.77A6.06,6.06,0,0,0,167.3,213.35Z" transform="translate(-97.18 -151.36)"/><path class="cls-1" d="M225,208.62c-6.53,7.29-13.81,10.88-20,10.88-7.47,0-11.63-5-11.63-14.19a30.83,30.83,0,0,1,10.31-22.89c4.16-3.69,10.88-7,16.27-7,4.54,0,8.42,2.17,8.51,5.48,0,1.89-1.13,4.17-4.16,5.87a1.8,1.8,0,0,1-2.74-.38c-2.75-4.16-5.21-6-7.57-6-1.7,0-3.31,1.32-4.73,4.35-2.08,4.07-3.6,10.6-3.6,17.6s2.27,9.65,6,9.65c4.07,0,9.46-4.07,11.55-6.06Z" transform="translate(-97.18 -151.36)"/><path class="cls-1" d="M276.19,208.91c-6.24,7.56-13.34,10.59-16.36,10.59-2.27,0-4.26-1.32-2.75-9.08l1.23-6.24h-.19a65.16,65.16,0,0,1-10.88,11.25c-3.12,2.46-6.15,4.07-9.27,4.07-4.16,0-7.47-4.07-7.47-12,0-9,4.26-18.92,10.88-24.51,4.63-4,13.05-7.56,17.12-7.56a15.19,15.19,0,0,1,5.21.66l2.55-13c.85-4.07.19-4.64-4.26-4.73h-1.61l.57-3.12c9.56-.86,15.61-3.41,17.5-3.41,1,0,1.23.76.57,3.31-4.16,18.16-7.38,34.44-10.5,51.37-.66,2.93-.57,3.88.19,3.88s3.41-1.61,6-4.16Zm-16.65-12.68,2.84-13.62a10.31,10.31,0,0,0-6.81-2.75,5.51,5.51,0,0,0-3.88,1.23c-5.77,4.26-8.8,17.22-8.8,24.32,0,3.68,1.14,5.58,2.65,5.58C249.33,211,256.61,201.62,259.54,196.23Z" transform="translate(-97.18 -151.36)"/><path class="cls-1" d="M315.55,207.68c-8.52,8.89-15.8,11.82-22.33,11.82-5.58,0-11.64-3-11.64-14.19,0-8.8,4-18.35,11-23.84,3.88-3,10.31-6.05,15.42-6.05,6.81,0,9.93,3.78,9.93,8.23,0,9.65-14.85,14.38-24.31,16.93a23.61,23.61,0,0,0-.1,2.46c0,4.83,1.8,8.89,6.63,8.89,3.59,0,9.08-2.65,13.52-6.9Zm-14.48-27c-2.17,1.52-6,6.72-7.09,16.28,10.12-3.13,13.52-7.1,13.52-12.21,0-3.69-2.36-5-3.59-5A5.7,5.7,0,0,0,301.07,180.71Z" transform="translate(-97.18 -151.36)"/><path class="cls-1" d="M331.44,177.12c1.89-7.76,4.16-13.06,8.7-17.5,5.3-5.21,11.54-7.76,15.33-7.76,4.63,0,6.91,2.74,6.81,5a7.27,7.27,0,0,1-3.5,5.4,1.92,1.92,0,0,1-2.55-.29c-2.56-3.12-4.73-5-6.44-5-1.89-.1-3.59,1.51-6.62,20.15h11l-2,3.78-9.84.76c-1.61,8.61-2.84,16.84-5.39,27.53C333.24,224.8,329,231,322.36,236.53c-4,3.31-7.57,4.92-10.41,4.92-3.12,0-6.34-2.08-6.34-4.54.1-2.18,1.8-4.16,3.41-5.39.75-.57,1.32-.67,2-.19,1.9,1.79,5.49,3.31,7.38,3.31,1.52,0,2.46-.76,3.13-2.37.47-1.32,1.51-4.63,4-19.58,2.18-13,3.5-21.66,5.11-31H323l-.47-.95,3.21-3.59Z" transform="translate(-97.18 -151.36)"/><path class="cls-1" d="M396,177.88c-3.5,3.68-6.15,5-8.14,5.39-.38.09-.85.09-1.51.19a17.79,17.79,0,0,1,.57,4.44A17.07,17.07,0,0,1,380.35,201c-2.84,2.36-7.57,4.45-14.19,6a2.44,2.44,0,0,0-1,1.71c0,1.13,1.8,2.46,6.34,4.63,10.31,4.83,14,8.61,14,13.15,0,8.42-14.19,14.95-24.79,14.95-10.12,0-17.78-4.64-17.78-10.5,0-4.64,6.33-8.42,15.23-12.49-2-1.23-3.41-3.12-3.31-4.82,0-2.09,2.17-4,7.19-6.72-6.82-1.33-9.65-5.58-9.65-11.35a19,19,0,0,1,8.23-15.42,26,26,0,0,1,13.81-4.73,14.93,14.93,0,0,1,9,2.64c6.15-.09,10-1.32,11.54-2.27ZM375.15,231c0-2.08-1.42-3.88-5.49-6.25a84.63,84.63,0,0,0-8.61-4.44c-3.41,2-6.53,5.39-6.53,8.7,0,4.45,5.3,7.85,11,7.85C371.65,236.81,375.15,234.17,375.15,231Zm.85-44.56c0-4.07-1-7.38-3.88-7.38-2.65,0-4.83,3-6.06,6.06a29.49,29.49,0,0,0-2.36,11.54c0,3.78,1.32,6.34,3.78,6.34C371.55,203,376,196.23,376,186.39Z" transform="translate(-97.18 -151.36)"/><path class="cls-1" d="M438.25,209.66c-6.63,6.72-12.68,9.84-16.28,9.84-2.93,0-4.54-2.55-2.74-10.69l4.64-19.87c.75-3.59.28-5-.86-5-3,0-10.12,7-14.75,14.19-1.14,4.92-2.94,14.19-3.79,19.3a85.18,85.18,0,0,0-11.07,2.08l-.66-.85c3.88-17.88,7.47-35.38,11.07-55.25.85-4.35-.1-4.73-4.07-5l-1.89-.1.66-3c9.75-.76,15.71-3.41,17.31-3.41,1.23,0,1.42.76.95,3.41l-7.47,35.94h.19c5.58-6.9,10.21-10.78,14-13.15,2.27-1.32,5.58-2.64,7.76-2.64,2.45,0,6.43,1.32,3.5,14.09l-3.79,17c-.66,2.93-.38,3.88.29,3.88s3.5-1.61,5.48-3.5Z" transform="translate(-97.18 -151.36)"/><path class="cls-1" d="M465.4,209.09c-6.72,7.38-13.82,10.41-16.65,10.41s-4.83-1.89-2.84-10.22l4.92-21.19c.47-2.36.57-3.31,0-3.31-.85,0-3.5,1.61-5.77,3.31l-1.33-2.65c6.81-6.33,13.81-10,17.22-10,2.74,0,3.22,3.69,1.89,9.36l-5.39,21.95c-.66,2.74-.38,3.69.28,3.69.86,0,3.31-1.33,6.06-3.78Zm1.23-46.82a7.35,7.35,0,0,1-7.19,7.38c-3.31,0-5.21-2.18-5.3-5.87a7.2,7.2,0,0,1,7.19-7.1C464.92,156.68,466.63,159.33,466.63,162.27Z" transform="translate(-97.18 -151.36)"/><path class="cls-1" d="M471.07,185.54c5.77-5.58,13.63-10.12,17.51-10.12,2.93,0,3.21,3.31,1.79,11.06-1,6.25-2.55,13.63-5.48,27.72-1.9,9.18-5.49,16.84-13.34,22.43-5.77,4.16-8.52,5.1-10.69,5.1s-4.73-1.42-4.73-3.78c0-2,1.89-4.54,3.31-5.68a1.2,1.2,0,0,1,1.89,0c1.89,1.42,4.26,2.84,6.05,2.84,1.42,0,2.27-.85,3.5-6.15,2.75-12.3,4.74-23.37,7.76-40,.66-3.31.57-4.35-.09-4.35-1,0-4.64,2.18-6.15,3.5Zm22.71-23.65c0,3.78-2.84,7.38-6.91,7.38-3.4,0-5.58-2.18-5.58-5.87a7.19,7.19,0,0,1,7.19-7.09C492,156.31,493.78,159,493.78,161.89Z" transform="translate(-97.18 -151.36)"/><path class="cls-1" d="M540,210.32c-5.21,7.19-10.32,9.18-13.06,9.18s-4.92-2.08-6.91-6.72c-1.79-4.44-4-10.12-5.77-15.89a26.71,26.71,0,0,0-2.93,3.88c-1.42,7.19-2.46,12.3-3.22,16.74a70.84,70.84,0,0,0-10.78,2l-.76-.57c4.07-18.07,7.85-35.47,11.92-55.53.85-4,.57-4.63-3.31-4.92l-2.46-.09.66-3.12c9-.86,15.61-3.41,17.32-3.41,1.13,0,1.23.85.75,2.93-3,13.53-5.77,26-8.8,39.45h.19a104.7,104.7,0,0,1,7.48-8c5.29-5.2,10.59-10.78,15.61-10.78,2.74,0,4.92,1.51,4.92,3.59a8.39,8.39,0,0,1-2.46,5.2c-.57.67-1.33,1-1.9.76a10.6,10.6,0,0,0-4.73-1c-3.12,0-6.81,2.18-9.08,4.92,1,3.22,2.37,7.09,4.26,11.73,3,7.29,4.64,10.69,6.24,10.69,1,0,2.84-1,5-3.5Z" transform="translate(-97.18 -151.36)"/><path class="cls-1" d="M564.16,209.66c-6.24,6.63-13.15,9.84-16.46,9.84-2.65,0-4.54-2-2.36-12.39,2.83-14.19,5.77-28.48,8.61-42.67,1-5,.66-5.67-3.13-6l-2.74-.28.57-2.84c9.17-.76,15.7-3.5,17.31-3.5,1.23,0,1.42.95.85,3.59l-10.5,51.66c-.57,2.65-.38,3.69.19,3.69.76,0,3.78-1.71,6.15-3.79Z" transform="translate(-97.18 -151.36)"/><path class="cls-1" d="M638.71,209.38c-6.34,7-13.15,10.12-16.18,10.12s-4.73-2-2.93-9.55l5-20.91c.75-3.41.56-5.2-.48-5.2-2.84,0-11.35,9.36-14.66,15.32-1.33,5.58-2.75,12.11-3.88,18.26a64.54,64.54,0,0,0-11.07,2.08l-.76-.94c2.27-9.37,4.55-18.55,6.53-27.16,1.14-5.48,1-7.66-.28-7.66-3.12,0-11.92,10.12-14.67,15.52-1.51,4.92-3,12-4.25,18.16a69.86,69.86,0,0,0-10.88,2.08l-.66-1c2.74-10.12,4.91-19.87,7.37-30.84.48-2.27.38-3.12-.28-3.22-.94,0-4.07,2.08-5.86,3.79l-1.23-2.75c6.24-6.24,12.48-10,16.17-10,3.22,0,3.6,3.5,1.8,11.06l-1.32,5.68h.18c6.25-8.23,12-12.77,14.76-14.47a13.15,13.15,0,0,1,6.72-2.27c2.65,0,6,1.41,3.41,13.9l-.48,2.37H611c6.25-8.23,11.54-12.4,14.76-14.19a12.74,12.74,0,0,1,6.34-2.08c2.55,0,6.15,1.41,3.22,14.28l-4.17,18c-.47,2.17-.19,2.93.38,2.93.85,0,3.79-2.08,5.68-3.88Z" transform="translate(-97.18 -151.36)"/><path class="cls-1" d="M144,322.9c-7.09,7.38-12.86,10.13-16.27,10.13-2.65,0-4.73-2-2.74-10.13,1.51-6.62,3-13.15,4.54-19.67,1.13-4.83.47-5.78-.48-5.87-3,0-11.73,9.84-14.94,15.7-1.33,5.11-2.84,11.83-4,17.88A57.25,57.25,0,0,0,99.38,333l-.76-.95c2.37-9.56,4.73-19.68,7.1-30.75.66-2.83.57-3.59,0-3.59-.85,0-4.26,1.89-6.06,3.78l-1.32-2.84c6.53-6.43,12.49-9.74,16.08-9.74,2.75,0,4,2.84,1.89,11.92l-1,4.73h.19A59.92,59.92,0,0,1,129.18,292a14.44,14.44,0,0,1,7.85-3c3.22,0,6.25,1.8,3.31,14.57-1.23,5.49-2.55,11.26-3.88,17-.56,2.36-.47,3.4.29,3.4s3.59-1.89,5.77-3.88Z" transform="translate(-97.18 -151.36)"/><path class="cls-1" d="M149.71,317.42c0-12.3,6.91-21.2,14.1-25a27.25,27.25,0,0,1,12.39-3.5c9.27,0,14,6.06,14,15.14,0,8.23-3.12,17-10,22.8A26.19,26.19,0,0,1,163.9,333C152.64,333,149.71,324.7,149.71,317.42Zm20.34,10.88c3.59-1.42,7.95-11.36,7.95-24.79,0-7.29-2.37-10.41-5.49-10.41a5.88,5.88,0,0,0-2.37.48c-2.46,1.13-8.13,9.27-8.13,24.69,0,7.28,2.84,10.5,5.67,10.5A6.29,6.29,0,0,0,170.05,328.3Z" transform="translate(-97.18 -151.36)"/><path class="cls-1" d="M215.93,290a33.16,33.16,0,0,1,8.52-1c9.93,0,14.09,5.11,14.09,14.19,0,5.77-2.55,13.15-7.85,18.92a37.59,37.59,0,0,1-18.45,11,12.85,12.85,0,0,1-4.82-.86l-2.27,11.55c-.85,4.63-.19,5.58,4.63,6.15l2,.18-.57,3.22-25.73,1.14.66-3.13c5.49-1.13,6.72-2.27,8-7.94,3.31-15.8,6.43-30.94,9.46-46.07a43.7,43.7,0,0,0-7.29,3.12l-.94-2.94a46.19,46.19,0,0,1,9.17-4.63l1.05-4.07a43.1,43.1,0,0,1,11.16-6.91l1,.67Zm-7,35.67c.85,1.23,2.93,3.12,4.64,3,5.2,0,12.77-13.24,12.77-25.16,0-7.66-3.69-9.56-7.48-9.56a12.88,12.88,0,0,0-4,.67Z" transform="translate(-97.18 -151.36)"/><path class="cls-1" d="M282.63,353.27l-25.07,1.14.66-3.13,1.51-.37c3.79-1,4.92-1.8,6.15-7.76l4.92-24.41h-.19a73.25,73.25,0,0,1-8.7,9.08c-3.31,2.84-7.38,5.21-11,5.21-4.63,0-7.38-4.92-7.38-11.74A32.84,32.84,0,0,1,254.62,297c3.6-3.21,10.41-6.24,14.48-7.19a27.6,27.6,0,0,1,6.15-.85,68,68,0,0,1,10.12,1.42l1.61.28c-1.52,5.77-2.94,13.25-4.26,20.82l-5.39,31.12c-1,5.87-.29,6.81,3.12,7.19l2.55.28Zm-18.55-57.52c-5.29,4.73-8.23,15-8.23,22.71,0,4.25,1.33,6.15,2.84,6.15,3.41,0,10.22-7.86,12.68-12.3,1-4.26,2.65-11.64,3.5-17.13a9.54,9.54,0,0,0-5.3-1.51A7.65,7.65,0,0,0,264.08,295.75Z" transform="translate(-97.18 -151.36)"/><path class="cls-1" d="M308.26,304.17c4.45-8.42,9.28-15.23,13.44-15.23a5.58,5.58,0,0,1,4.54,2.46c1.23,1.7.95,3.88-.38,6a18.47,18.47,0,0,1-3.31,3.88c-.95.76-1.7.76-2.37.19a6.47,6.47,0,0,0-3.87-1.8c-.95,0-1.9.28-3.79,2.84a38.71,38.71,0,0,0-5.3,10.41c-1.23,5-2.74,13.05-3.59,18.06A58.82,58.82,0,0,0,292.84,333l-.75-.95c2.36-9.75,4.44-19.49,6.34-29.61.56-3,.56-4.45-.19-4.45s-4.07,1.89-5.68,3.41l-1.51-2.65c5.58-5.58,12-9.84,15.61-9.84,2.83,0,3.69,3.12,2.08,11l-.85,4.26Z" transform="translate(-97.18 -151.36)"/><path class="cls-1" d="M324.63,325.36a6.6,6.6,0,0,1,3.12-5.39c1.71-1,2.56-.85,3.41.19,3.4,4.16,7.66,7,10.88,7,2.36,0,4.16-1.32,4.16-3.41,0-1.89-1.23-3.59-6-7.09-4.26-3-9.55-6.43-9.55-12.39,0-3.41,1.32-6.91,6-10.5,3.5-2.75,7.85-4.83,11.63-4.83,5.11,0,8.71,2.93,8.71,6.24.09,1.9-1.23,3.88-3.22,5.21-1.23.75-2.08.66-2.74-.19-2-2.75-4.92-5.49-8.52-5.49-2.36,0-3.69,1.42-3.59,3.31,0,2.46,3,5,6.62,7.38,5.39,3.6,9.17,7,9.17,12.11,0,8.61-11,15.52-19,15.52C330.31,333,324.73,329.81,324.63,325.36Z" transform="translate(-97.18 -151.36)"/><path class="cls-1" d="M388.87,294.71l-8.8.47-4.92,23.75c-.85,4.16-.47,5.58.47,5.58,1.33,0,5.39-2.65,7.76-4.92l1.51,2.46c-3.69,5-12.2,11-17.5,11-3.4,0-5.58-3.32-3.4-13.44l5.29-24.41h-6.81l-.47-.94,2.65-3.6h5.58l2.08-8.7,11-6.91,1.22.85-3.31,14.76h10.32Z" transform="translate(-97.18 -151.36)"/><path class="cls-1" d="M437,322.52c-7,7.57-13,10.51-16.37,10.51-3.21,0-4.07-3.41-2.65-9.65.48-1.9.95-4.07,1.33-5.87h-.19c-6.24,8.23-11.83,12.2-14.29,13.62a13.22,13.22,0,0,1-6.52,1.9c-2.94,0-6.53-1.8-3.79-13.72,1.33-5.77,2.65-11.45,4.07-17.31.66-3.13.47-3.79.1-4.26-.86,0-3.51,2.08-5.78,3.78l-1.23-2.84c6.06-5.77,12.68-9.74,16.37-9.74,2.74,0,3.69,2.37,2,9.74-1.42,6.53-2.94,13.34-4.54,19.78-.95,4.25-.57,6,.75,6,4.36,0,12.3-10.79,14.19-14.29,1.42-6.15,2.84-12.58,4.07-18.64l10.5-2.55h1.23c-2.36,9.56-4.73,19.58-6.9,30.65-.57,3.31-.57,4.26.09,4.26s3.79-1.89,6-4.16Z" transform="translate(-97.18 -151.36)"/><path class="cls-1" d="M462.37,320.54c4.64-5.77,10.79-13.91,10.79-20.34a9.34,9.34,0,0,0-1.23-4.64,3.36,3.36,0,0,1,0-2.17,5.94,5.94,0,0,1,5.77-4.45c2.74,0,5,2.37,5,6.15,0,3-1.42,6.43-6.15,12.77-5.77,7.66-15,19.58-20.24,25.17h-3.79c-.56-7.57-1.89-23.18-2.83-30-.67-4.07-1.14-5.3-1.71-5.3-.75,0-2.93,1.7-5.2,4.16l-1.8-2.55c4.54-6.06,10.22-10.41,14-10.41,3.41,0,4.92,3.88,5.68,11.54.57,6.72,1.32,15.52,1.51,20.06Z" transform="translate(-97.18 -151.36)"/><path class="cls-1" d="M529.26,320.16c3.4-4.64,9.74-13.91,9.74-19.77a11.19,11.19,0,0,0-1.13-4.92,3.54,3.54,0,0,1,.09-2.93,5.79,5.79,0,0,1,5-3.6c2.84,0,5.21,2.55,5.21,6.24,0,3.13-1.52,6.15-3.69,9.65-3,4.73-15.52,21.76-20.62,28.2H520c-1.14-8.52-2.46-17.32-3.69-25.55h-.19c-5,8.14-10.41,17.6-15.61,25.55h-3.69c-.38-8.24-1.23-24.41-2-30.37-.38-3-.76-4.64-1.42-4.64-.85,0-2.46,1-5,3.88l-1.7-2.36c4.35-6.15,10.4-10.6,14.19-10.6,3.12,0,4.44,3.22,4.82,11.26.38,7.09.38,12.49.28,17.12h.19c4.73-8.42,10.13-17.5,15.14-27h3.41c1.7,10.5,2.83,20.15,4.35,29.8Z" transform="translate(-97.18 -151.36)"/><path class="cls-1" d="M552.62,300.48c5-7.28,10.22-11.54,13.81-11.54,3,0,4.55,3.22,6.53,9.18l1.42,4.44c7.19-10.31,10.69-13.62,14.85-13.62,3.22,0,4.73,2.46,4.64,5.2-.19,3.13-2.84,5.4-4.92,5.4a2.59,2.59,0,0,1-1.8-1,2.94,2.94,0,0,0-2.27-1.14c-.94,0-2.08.66-3.78,2.37a51.07,51.07,0,0,0-5.39,6.62l3.78,12.11c1.14,3.87,2.27,5.86,3.5,5.86s3.12-1.51,6.43-5.49l2,2.37C585.83,330,580.53,333,576.94,333c-3.22,0-5.3-2.65-7.29-9.18l-2.17-7.19C560.19,328.48,556.69,333,551.77,333a5,5,0,0,1-5-5.4c.09-3.5,2.74-5.67,4.73-5.67a3.08,3.08,0,0,1,1.8.94,3.13,3.13,0,0,0,2.27,1c2.08,0,5.86-4.16,10.59-11.44l-2.46-8.42c-1.7-5.58-2.55-6.25-3.5-6.25s-2.55,1.23-5.49,5Z" transform="translate(-97.18 -151.36)"/><path class="cls-1" d="M619.32,322.81c4.82-7.38,10.12-15.71,10-22.33a12.78,12.78,0,0,0-1.33-5.11,3.77,3.77,0,0,1,.38-3.31,5.92,5.92,0,0,1,5-3.12c2.45,0,4.91,2.08,5,6.34.09,2.74-.95,6.24-3.69,10.59-4.35,7.29-9.84,15.14-15.23,22.9A280.23,280.23,0,0,1,601.72,352L589.23,355l-.85-2.55c9.84-6.34,15.71-11,21-17.79.1-7.56-1.6-23.55-3.4-32.07-.66-3.31-1.42-4.25-2-4.25s-2.36,1.32-5.11,4.82l-2-2.55c4.06-6.63,9.55-11.64,13.62-11.64,3.41,0,5.49,3.41,6.62,12.77,1,7.76,1.52,13.44,2,21.1Z" transform="translate(-97.18 -151.36)"/><path class="cls-1" d="M680.81,289.89c-1.8,2-4.16,5.11-7,7.94-7.47,7.95-18.45,18.07-23.18,22.52a20.2,20.2,0,0,1,7.66,1.51,22.29,22.29,0,0,0,7.29,1.61c2.36,0,5.11-1.51,9.55-7.66l2.56,2C671.92,330.47,667.38,334,662.93,334c-3.22,0-8-2.65-12-4.44-4.26-2-5.78-1.8-7.38-.57a15.27,15.27,0,0,0-2.75,3.21c-.38.57-.85.95-1.32.86-1.7-.57-3.22-4.26,3.5-11,5.39-5.39,16.84-15.42,25.16-23.65a19.77,19.77,0,0,1-6.52.47c-2.28-.09-4.83-.37-6.91-.37-5.11-.1-7.19,2.36-10,6.81l-2.84-1.71a73.9,73.9,0,0,1,4.73-9c2.56-3.79,5.11-5.59,7.67-5.59a38.38,38.38,0,0,1,8.42,1.05,49.78,49.78,0,0,0,9.46,1.23c1.6,0,4.25-1.42,6.62-3.69Z" transform="translate(-97.18 -151.36)"/></svg>