<svg id="Layer_1" data-name="Layer 1" xmlns="http://www.w3.org/2000/svg" viewBox="0 0 186.3 171.27"><defs><style>.cls-1{fill:#231f20;}</style></defs><path class="cls-1" d="M344.71,365.88v-2.95c17.18-2.15,18.25-4.29,18.25-28.72l-.8-109h-1.07l-50.74,138h-4.3L257.73,230.32h-.53l-2.69,66.3c-.8,22.82-1.07,38.93-.8,46.45.53,15.57,3.75,18.52,21.2,19.86v2.95H223.37v-2.95c15.3-1.34,18-5.1,19.87-15.84,1.34-8,2.68-26.84,4.29-51l3.76-61.21c2.15-31.41.81-35.17-20.4-37.31v-3h40l48.59,124.56,47.78-124.56H407.8v3c-20.67,2.14-21.75,4.83-21.21,28.72l3,107.65c.81,24.43,2.15,26.84,20.13,29v2.95Z" transform="translate(-223.37 -194.61)"/></svg>