<svg id="Layer_1" data-name="Layer 1" xmlns="http://www.w3.org/2000/svg" viewBox="0 0 1050.2 488.91"><defs><style>.cls-1{fill:#38b5a6;}.cls-2{fill:#f1ba29;}.cls-3{fill:none;stroke:#2f2e7c;}</style></defs><path class="cls-1" d="M469.93,385.71c-23,2.3-23.91,3.45-27.36,25.34-6.05,42.05-10.37,75.17-15,112.9-3.45,27.07-1.73,28.51,20.45,30.81l-2,8.93H367.69l2.3-8.93c19.3-2.3,21.31-4,25.35-30.81,6.33-41.48,12.38-77.48,18.14-115.78h-.86L323.05,562H315c-8.36-50.11-16.71-96.48-26.5-152.06h-1.15l-20.16,72.86c-8.35,29.38-11.52,43.49-13,53.28-2,13,1.73,17,21,18.72l-2,8.93h-66l2.3-8.93c15.55-1.44,21.6-5.47,26.78-18.72,3.75-9.79,8.93-24.19,18.15-55l19-62.78c8.07-26.78,6.34-30.24-19.58-32.54l2.88-8.93H311c8.93,43.78,18.15,84.38,27.94,131l80.35-131h53Z" transform="translate(-204.14 -376.78)"/><path class="cls-1" d="M531,536.62c-16.41,18.43-38.3,30.52-47.51,30.52-7.49,0-13-5.47-6.92-29.95l16.13-68c1.44-6.92,1.73-9.8-.29-9.8-2.3,0-10.65,4.9-18.14,10.95l-3.74-7.49c19-17.86,39.74-29.37,49.24-29.37,7.49,0,8.64,10.36,4.61,26.49l-17.57,71.14c-1.72,7.77-1.15,10.65.87,10.65,2.88,0,10.94-5.47,19-12.09Zm5.19-144c0,10.66-8.35,20.16-19.58,20.16-8.93,0-14.4-6-14.4-15.84-.29-8.35,6.62-19.87,19.29-19.87C531.27,377.07,536.17,384.27,536.17,392.62Z" transform="translate(-204.14 -376.78)"/><path class="cls-1" d="M684.48,537.48c-20.15,21-37.15,29.66-46.36,29.66-7.78,0-12.67-6.62-7.2-30.52,4.89-20.45,9.79-40.9,14.4-61.35,3.74-15.26,2-18.43-1.44-19-10.66,0-39.46,32-51,52.41-4,15-8.35,34.27-11.8,52.42-9.8,1.15-21,3.45-28.52,6l-2-2.59c7.2-29.95,15-62.2,22.17-95,2-8.92,1.73-11.23-.28-11.23-2.6,0-12.1,5.76-18.44,12.1l-4-8.07c18.43-18.72,36.29-28.79,46.08-28.79,7.49,0,10.37,8.92,4.61,34.84l-4.32,18.15h.58c15.83-21.6,33.4-36.58,45.79-44.93,8.06-5.18,15.84-8.06,22.17-8.06,8.93,0,17.57,4.89,8.93,43.19-4.32,17.86-8.35,36.29-12.67,54.72-1.73,7.2-1.44,10.37.86,10.37s10.66-5.47,17.86-12.38Z" transform="translate(-204.14 -376.78)"/><path class="cls-1" d="M763.69,536.62c-16.42,18.43-38.3,30.52-47.52,30.52-7.49,0-13-5.47-6.91-29.95l16.13-68c1.44-6.92,1.72-9.8-.29-9.8-2.31,0-10.66,4.9-18.15,10.95l-3.74-7.49c19-17.86,39.74-29.37,49.25-29.37,7.49,0,8.64,10.36,4.61,26.49L739.5,531.15c-1.73,7.77-1.15,10.65.86,10.65,2.88,0,10.95-5.47,19-12.09Zm5.18-144c0,10.66-8.35,20.16-19.58,20.16-8.93,0-14.4-6-14.4-15.84-.29-8.35,6.62-19.87,19.3-19.87C764,377.07,768.87,384.27,768.87,392.62Z" transform="translate(-204.14 -376.78)"/><path class="cls-1" d="M783.56,520.78c0-37.73,20.73-65.38,43.2-77.19,11.52-6,24.19-10.07,35.42-10.07,26.79,0,41.18,17.56,41.18,45.5,0,25.05-10.08,52.13-30.81,69.69-12.38,10.66-30.24,18.43-47.52,18.43C793.06,567.14,783.56,543.24,783.56,520.78ZM844,553.32c12.67-5.18,26.78-35.71,26.78-75.17-.29-22.46-8.35-32.54-19.29-32.54a21.78,21.78,0,0,0-8.36,1.73c-8.92,4-27.07,28.22-27.07,74.3,0,21.89,8.93,33.12,19.87,33.12A22.51,22.51,0,0,0,844,553.32Z" transform="translate(-204.14 -376.78)"/><path class="cls-1" d="M1057.45,537.48c-20.16,21-37.16,29.66-46.37,29.66-7.78,0-12.67-6.62-7.2-30.52,4.89-20.45,9.79-40.9,14.4-61.35,3.74-15.26,2-18.43-1.44-19-10.66,0-39.46,32-51,52.41-4,15-8.35,34.27-11.81,52.42-9.79,1.15-21,3.45-28.51,6l-2-2.59c7.2-29.95,15-62.2,22.17-95,2-8.92,1.73-11.23-.29-11.23-2.59,0-12.09,5.76-18.43,12.1l-4-8.07c18.43-18.72,36.29-28.79,46.08-28.79,7.49,0,10.37,8.92,4.61,34.84l-4.32,18.15h.57c15.84-21.6,33.41-36.58,45.8-44.93,8.06-5.18,15.84-8.06,22.17-8.06,8.93,0,17.57,4.89,8.93,43.19-4.32,17.86-8.35,36.29-12.67,54.72-1.73,7.2-1.44,10.37.86,10.37s10.66-5.47,17.86-12.38Z" transform="translate(-204.14 -376.78)"/><path class="cls-2" d="M749.09,615.76c37.72,0,65.08,13.25,65.08,49.25,0,38.88-32.83,60.48-70,63.07a51.87,51.87,0,0,1-9.5,0l-20.45-5.47-8.35,43.48c-4.61,23.62-2.31,25.35,23.33,27.65l-1.73,8.93H644l2-8.93c21.32-2,23.33-4,28.23-27.65l22.17-113.47c4.61-23.61,2.88-25.92-19-27.93l2-8.93Zm-32.26,96.48a48.51,48.51,0,0,0,17.86,3.45c23.61,0,44.92-21.88,44.92-53.27,0-23.62-12.67-36-32.25-36-5.19,0-8.93.86-11.52,2.3-2.88,1.73-4.61,5.47-6.34,14.69Z" transform="translate(-204.14 -376.78)"/><path class="cls-2" d="M870.33,719.15c13.83-26.49,29.38-46.65,41.76-46.65A16,16,0,0,1,925.34,680c3.17,4.61,2.59,10.37-.87,15.84-3.16,4.9-6,8.35-9.21,10.66-2.59,2-4.9,2-6.91.29-3.75-3.46-7.49-5.19-11-5.19-3.16,0-6.62,1.73-12.67,10.08-6.91,9.79-14.69,23.33-17.85,33.12-3.75,16.71-8.07,38.59-11,55.59a142.07,142.07,0,0,0-28.51,5.76l-2-2.6c7.2-30.24,14.12-61.92,19.88-92.73,1.72-9.5,1.44-13.25-.58-13.25-2.59,0-12.38,5.76-18.72,11.81l-4-7.49c16.13-17,34.85-29.37,44.64-29.37,8.35,0,10.08,10.65,5.18,33.4l-2.59,13.25Z" transform="translate(-204.14 -376.78)"/><path class="cls-2" d="M927.93,759.76c0-37.73,20.74-65.38,43.2-77.18,11.52-6.05,24.19-10.08,35.43-10.08,26.78,0,41.18,17.56,41.18,45.5,0,25-10.08,52.13-30.82,69.69-12.38,10.66-30.24,18.44-47.51,18.44C937.44,806.13,927.93,782.22,927.93,759.76Zm60.48,32.54c12.67-5.18,26.79-35.71,26.79-75.17-.29-22.46-8.36-32.54-19.3-32.54a21.73,21.73,0,0,0-8.35,1.73c-8.93,4-27.07,28.22-27.07,74.3,0,21.89,8.93,33.12,19.87,33.12A22.28,22.28,0,0,0,988.41,792.3Z" transform="translate(-204.14 -376.78)"/><path class="cls-3" d="M252.4,659.41H232.26l.78-2.52c4.59-.52,4.89-1.48,4.37-5-.38-2.52-.74-5.19-1.19-8.3H222.13c-1.41,2.74-2.74,5.56-4.07,8.37-1.57,3.26-1.57,4.22,4.22,5l-.67,2.52H204.93l.66-2.52c4.45-.74,5.34-1.25,9.48-8.37l21.34-37.25,3.91-1,1.26,8.44c1.63,10.18,3.49,20.22,5,30.22,1,6.52,1.41,7.33,6.44,7.92ZM233.29,623.2h-.22c-2.81,5.25-6.07,10.81-9,16.65h11.62Z" transform="translate(-204.14 -376.78)"/><path class="cls-3" d="M284.7,611.35c10.07,0,15.7,3.13,15.7,10.3s-6,10.22-12.75,11.33v.15c6.38,1.18,11.49,4.7,11.49,11.33,0,5.63-3.48,9.7-8.45,12.22-4.37,2.14-10.29,2.74-16.66,2.74h-17.7l.59-2.52c5.33-.44,6.07-1.26,7.19-7l5.62-28.74c1.19-6.14.37-6.81-5-7.25l.67-2.53Zm-11.19,38.36c-1,5.63,1.34,6.66,4.15,6.66,5.26,0,10.89-4.29,10.89-12.14,0-6.67-5-9.11-10.3-9.11h-1.92Zm5.34-17.63c7.77,0,11.47-4.3,11.47-10.18,0-5.33-3.13-7.55-6.81-7.55a4.1,4.1,0,0,0-2.89.74c-.58.6-.89,1.57-1.26,3.56l-2.44,13.4Z" transform="translate(-204.14 -376.78)"/><path class="cls-3" d="M348.54,646.38a94.32,94.32,0,0,1-6.08,12.25,48.27,48.27,0,0,1-13,1.92c-13,0-22.52-7.4-22.52-21.13,0-18.15,14.67-29.26,32-29.26a41.1,41.1,0,0,1,12.88,2.07c-.14,3.92-.44,8.08-.78,12.44l-2.52.3c-1.4-9-5.33-11.62-11-11.62-10.52,0-19.57,11.54-19.57,25.77,0,11.33,5,18.22,12.3,18.22,5.7,0,10.29-4.07,15.84-12.08Z" transform="translate(-204.14 -376.78)"/><path class="cls-3" d="M378.6,611.35c16.07,0,25.4,6.52,25.4,20.52,0,9.1-3.91,17.32-12.22,22.29-6.44,3.91-14.14,5.26-23.55,5.26h-17.7l.67-2.52c5.48-.44,6.22-1.48,7.19-6.81L364,621c1.11-5.85.66-6.66-5-7.11l.67-2.52Zm-10.29,37.58c-.74,3.85-.52,5.25.74,6.26a6.69,6.69,0,0,0,3.85,1c12.07,0,20.36-11.4,20.36-25.1,0-8.82-4.38-16.67-14.15-16.67-2,0-3.27.22-3.92.89-.51.44-.88,1.4-1.33,3.85Z" transform="translate(-204.14 -376.78)"/><path class="cls-3" d="M446.37,611.35c-.22,2-.78,7.92-1.26,11.63l-2.67.22c-.22-3.13-.51-5.56-1.56-6.89-.79-1.33-2.3-1.85-6.45-1.85H430.8c-2.82,0-3.18.37-3.7,3.13l-2.89,14.87h5c6.37,0,6.45-.43,8.61-5.48h2.74l-3,15.26h-2.66c.07-5.7.07-6.14-6.15-6.14h-5.11l-2.35,12.52c-.6,3.26-.6,5.19.15,6.15.78,1.18,2.74,1.56,6.26,1.56,4.52,0,6.89-.74,8.67-2.45a28.24,28.24,0,0,0,5.33-7.1l2.51,1c-.88,2.67-3.33,9.11-4.52,11.7H403.49l.51-2.52c5.63-.44,6.16-1,7.26-6.88L417,620.78c1-5.7.59-6.44-5.11-6.89l.66-2.52Z" transform="translate(-204.14 -376.78)"/><path class="cls-3" d="M489.23,611.35c-.22,2-.79,7.92-1.33,11.63l-2.6.22c-.29-3.33-.66-5.7-1.47-6.89-1-1.33-2.35-1.85-7.12-1.85h-3.85c-2.59,0-3.13.59-3.56,3.13l-3,15.83h6.3c6.37,0,6.66-.74,8.81-5.48H484l-3,15.19h-2.66c-.08-5.63-.38-6.16-6.59-6.16h-6.23l-2.44,13c-1.11,5.77-.45,6.44,6,6.88l-.6,2.52H446.08l.58-2.52c5.11-.44,5.78-1.26,6.89-6.88l5.63-29.11c1.11-6,.74-6.59-5-7l.59-2.52Z" transform="translate(-204.14 -376.78)"/><path class="cls-3" d="M533,624.83c-1-9.26-6.14-11.41-11.48-11.41-10.29,0-19.7,11.11-19.7,25.78,0,11.18,5.19,18.22,13.31,18.22,2.52,0,4.74-.67,5.48-4.89l1.19-6.37c1-5.48.22-5.85-6.82-6.59l.66-2.52h22l-.66,2.52c-4,.52-4.52,1-5.55,6.59l-1,5.85a22.51,22.51,0,0,0-.45,5.55c-4.22,1.26-10,3-15.92,3-14.15,0-23.26-7.55-23.26-21.18,0-17.56,13.78-29.18,32.44-29.18a44.2,44.2,0,0,1,13.26,2.07c-.23,2.45-.59,7-.89,12.29Z" transform="translate(-204.14 -376.78)"/><path class="cls-3" d="M597.53,613.87c-5.63.45-6,1.18-7.18,6.89l-5.61,29.18c-1.19,5.78-.68,6.52,5.25,7l-.59,2.52H567l.59-2.52c5.78-.44,6.37-1.18,7.4-7l2.68-14.15H558.06l-2.67,14.15c-1,5.7-.52,6.52,5.26,7l-.6,2.52h-22l.59-2.52c5.48-.44,5.93-1.18,7.11-7l5.7-29.18c1.12-5.86.3-6.44-5.62-6.89l.58-2.52H568.5l-.67,2.52c-5.19.45-5.7,1.18-6.81,6.89L558.9,632h19.57l2.23-11.26c1.11-5.7.59-6.44-5-6.89l.6-2.52h21.79Z" transform="translate(-204.14 -376.78)"/><path class="cls-3" d="M624.56,613.87c-5.41.45-5.85,1.11-7,7l-5.56,29c-1.19,5.85-.66,6.59,5.19,7l-.52,2.52H594.71l.53-2.52c5.25-.44,5.84-1.18,7-7l5.71-29c1.11-5.93.66-6.59-5.33-7l.58-2.52h21.92Z" transform="translate(-204.14 -376.78)"/><path class="cls-3" d="M236.71,702.74c-5.27.6-5.71,1-6.75,7l-5.26,28.44c-1.56,8.67-4.15,14.22-10.36,17.77a20.86,20.86,0,0,1-9.19,3l-.44-2.74c3.48-.74,6.51-2.81,8.22-8.61a93,93,0,0,0,2.35-10.3l5.1-27.63c1.11-5.92.45-6.44-5.33-7l.6-2.51h21.57Z" transform="translate(-204.14 -376.78)"/><path class="cls-3" d="M287.8,702.52c-4.29.52-6.06,1-11,5-5.48,4.37-9.78,8.22-14.21,12.3,3.48,6.88,7,13.55,11.18,20.19,2.81,4.51,4,5.26,7.78,5.7l-.68,2.52H267c-3.7-6.37-7.55-13.92-11.33-21.41-1-2-2-2.35-3-1.92l-2.52,13.78c-1.11,5.84-.74,6.59,5,7l-.59,2.51H233.44l.6-2.51c5.11-.45,5.62-1.19,6.74-7l5.63-29.1c1.11-5.77.51-6.52-5.19-7l.52-2.52h21.32l-.51,2.52c-5.33.44-5.78,1.11-6.89,7l-2.44,12.44a14.16,14.16,0,0,0,5.62-3,133.36,133.36,0,0,0,13.27-12.66c2.07-2.35,2-3.34-1-3.63l-1.56-.15.66-2.52h18.08Z" transform="translate(-204.14 -376.78)"/><path class="cls-3" d="M322.48,735.93c-1,2.59-3.57,9.7-4.75,12.36h-35l.52-2.44c5.92-.52,6.44-1.19,7.62-7.05l5.73-29.54c1-5.33.6-6.07-5.18-6.52l.52-2.51H314.1l-.6,2.51c-5.77.45-6.26,1.19-7.33,6.52l-5.55,29.11c-.45,2.81-.52,4.22.22,5.33s2.74,1.48,5.78,1.48c3.48,0,5.92-.66,7.77-2.44a30.41,30.41,0,0,0,5.41-7.7Z" transform="translate(-204.14 -376.78)"/><path class="cls-3" d="M390.16,702.74c-5.63.52-5.92.89-6.75,6.15-1.62,11-2.66,19.33-3.77,29-.78,6.82-.52,7.34,5.18,7.83l-.58,2.52h-21l.6-2.52c4.58-.51,5.11-1,6.22-7.83,1.57-10.44,3.13-19.4,4.52-29h-.3l-22.15,38.8h-2.28c-2-12.66-4.07-24.21-6.45-38.5h-.29L338,727.52a101.84,101.84,0,0,0-3.19,13.31c-.52,3.41.66,4.52,5.26,4.89l-.59,2.51h-17l.6-2.51c3.85-.3,5.4-1.41,6.81-5a116.58,116.58,0,0,0,4.29-12.53l5.41-17.33c1.92-6.51,1.56-7.7-5-8.22l.78-2.51H350.2c2.22,10.81,4.44,20.59,6.67,31.69l19.33-31.69h14.59Z" transform="translate(-204.14 -376.78)"/><path class="cls-3" d="M445.71,702.74c-4.53.15-5.56,1.57-6.45,4.6a99.34,99.34,0,0,0-3,12.73l-5.55,29H426.9l-21.14-37.69h-.15l-3.28,17.39a89.56,89.56,0,0,0-1.73,12.09c-.15,3.48,1.19,4.7,6.44,5l-.59,2.52H388.61l.66-2.52c3.77-.22,5.25-1.34,6.26-4.7a114.67,114.67,0,0,0,3.13-12.36l3.19-15c1.18-5.56.78-7.26-.07-8.74-.89-1.71-2.82-2.08-5.86-2.3l.6-2.52h13.56l19.7,34.14h.14l2.67-14.14a117.33,117.33,0,0,0,1.78-12.53c.22-3.7-1.33-4.73-6.51-5l.59-2.51h17.84Z" transform="translate(-204.14 -376.78)"/><path class="cls-3" d="M493.92,720.29c0,16.23-11.26,29.15-27.55,29.15-12.22,0-20.52-8.07-20.52-20.89,0-15.65,11.4-29.47,27.63-29.47C485.92,699,493.92,707.78,493.92,720.29Zm-37.18,10.08c0,9.18,2.82,15.92,10.07,15.92,9.77,0,16.29-15.18,16.29-27.92,0-9.33-2.81-16.14-10.07-16.14C464.18,702.23,456.74,716.15,456.74,730.37Z" transform="translate(-204.14 -376.78)"/><path class="cls-3" d="M521.25,700.23c9.33,0,17.4,2.89,17.4,12.81,0,9.63-7.77,15.47-18.15,16.3-.74,0-1.48,0-2.21-.08l-5.41-1.33-2.08,10.81c-1.18,6.07-.51,6.44,6,7l-.59,2.52H493.77l.59-2.52c5.33-.44,5.85-1,7.05-7L507,710.15c1.26-6.26.66-7-4.74-7.41l.59-2.51Zm-7.63,24.88a10.88,10.88,0,0,0,4.14.78c6.52,0,10.82-6.81,10.82-13.85,0-6.06-3.18-8.88-7.48-8.88a5.19,5.19,0,0,0-2.81.66c-.68.37-1,1.57-1.49,3.92Z" transform="translate(-204.14 -376.78)"/><path class="cls-3" d="M587.68,760.07a27.37,27.37,0,0,1-10.74-.52c-2.08-.59-7.26-2.52-16.59-9.7l-.78-.67c-10.52-1.11-17.41-9-17.41-20.74,0-15.55,11.33-29.4,27.77-29.4,12.15,0,20.3,8.61,20.3,21.4,0,13-7.26,23.78-19.26,27.56l.79.59a120.89,120.89,0,0,0,16.44,9.63Zm-21.48-15.7c.59.37,1.26.89,1.92,1.33,6-2.81,11.19-15.7,11.19-27.1,0-9.56-2.82-16.44-10.22-16.44-9,0-16.15,14.51-16.15,27.69,0,8.07,2.45,14.45,7.11,16.15Z" transform="translate(-204.14 -376.78)"/><path class="cls-3" d="M634.93,748.88h-1.26c-9.92-.07-12.07-2.44-14.37-7.1a99.35,99.35,0,0,1-4.37-10.89c-.88-2.35-1.7-3.48-3.91-3.48h-1.78l-2.07,11.33c-1.12,5.85-.45,6.59,4.88,7l-.59,2.52H590l.6-2.52c5.18-.44,6-1.19,7.11-7l5.7-29.31c1.11-5.92.59-6.36-5-6.74l.67-2.51h18.66c4.52,0,8.67.52,11.63,2.29s5,4.82,5,9.4c0,7.19-5.4,11.63-11.55,13.56.59,1.4,2.34,6.36,4.07,9.85a84.12,84.12,0,0,0,4.52,8.29,7.34,7.34,0,0,0,4.3,3Zm-23.25-24.44a12.56,12.56,0,0,0,7.18-1.7c3.41-2.15,5.26-6.15,5.26-10.52,0-6.07-3.19-9-6.89-9a3.83,3.83,0,0,0-2.89.89c-.52.44-.89,1.4-1.19,3l-3.36,17.33Z" transform="translate(-204.14 -376.78)"/><path class="cls-3" d="M211.52,821.61c.78,4.9,4.15,13.63,11.85,13.63,5.33,0,8-3.91,8-8.15,0-3.47-2.07-6.51-5.85-9.48L223.29,816c-4.69-3.62-8.8-7.77-8.8-13.92,0-8.74,7-14.14,16.14-14.14a24.37,24.37,0,0,1,8.37,1.45c1.33.44,2.29.88,3,1.18a112.41,112.41,0,0,0-.45,11.33l-2.59.22c-.67-4.69-2.44-11.25-9-11.25-4.82,0-7.11,4.15-7.11,7.62,0,3.63,2.07,6,6,8.82l2.23,1.56c5.11,3.71,9.33,7.78,9.33,14.45,0,9.33-8,15-17.92,15-6.15,0-11.34-2.52-13.48-4.6.07-1.7.07-5.85,0-11.74Z" transform="translate(-204.14 -376.78)"/><path class="cls-3" d="M291.36,787.24c-.59,2.89-1.4,9.4-2,13.86l-2.74.15c0-3.41-.22-5.71-1.11-7.19-1.11-1.48-3-1.85-6.74-1.85h-3.7l-6.74,35.52c-1,5.55-.79,6.51,6.07,7l-.59,2.52h-23.7l.59-2.52c6.22-.45,6.81-1.57,7.83-7l6.88-35.48h-3.13c-5.48,0-6.81.74-8.3,2.3-1.25,1.4-2.29,3.4-3.85,6.74h-2.66c1.48-4.82,2.89-10.08,3.7-14h1.93c.73,1.71,1.41,1.86,3.4,1.86h29c1.85,0,2.29-.45,3.7-1.86Z" transform="translate(-204.14 -376.78)"/><path class="cls-3" d="M345.05,791.62c-4.22.15-5.62,1.33-6.81,4.74a95.85,95.85,0,0,0-2.82,11.85l-1.4,7.26c-1.26,6.52-3.41,13.1-8.22,17.7a19.23,19.23,0,0,1-13.41,5.11c-4.81,0-9.11-1.11-12.37-4.08-3.47-3.13-5.18-8.52-3.4-17.85L300,799c1.11-6,.59-6.89-5-7.33l.6-2.52h21.63l-.68,2.52c-4.95.44-5.63,1.11-6.81,7.33l-3.33,17.82c-2.23,11.66,1.85,16.44,8.81,16.44,8.15,0,13-6.37,15.33-18.74l1.11-6.26a97.1,97.1,0,0,0,1.71-12c.22-3.33-1.86-4.37-6.74-4.59l.66-2.52h18.45Z" transform="translate(-204.14 -376.78)"/><path class="cls-3" d="M395.2,791.62c-4.37.52-5.33,1.18-9.19,7.48-5.19,8.3-14.44,24.52-22.37,38.8h-3.41c-2.34-14-5.62-31.55-7.17-39.47-1.05-5.63-1.93-6.37-6.27-6.81l.59-2.52h20.07l-.66,2.52-1.48.15c-2.82.44-3.27,1-2.89,4,.51,4.45,3,17.93,4.88,29h.15c5-8.82,11.74-20.89,14.81-27.33,2.08-4.3,1.57-5.41-2.14-5.78l-1.41-.07.67-2.52h16.44Z" transform="translate(-204.14 -376.78)"/><path class="cls-3" d="M464.59,791.62c-4.6.67-5.11,1.11-8.22,7.41-3.85,7.62-9.18,18.43-18.59,39h-3.63l-5.7-33.1h-.15L412.15,838h-3.56l-4.7-39.33c-.58-5.77-1.25-6.51-6-7l.59-2.53h19.7l-.52,2.53-1.7.29c-2.59.44-3.14,1-2.74,5.11l2.59,26.22H416l15.92-33.67h3.32L441,823.48h.15c4.51-9.48,8.73-19.47,11.1-25.1,2.3-5.34,1.86-6.23-2.52-6.67l-1.25-.07.59-2.52h16.22Z" transform="translate(-204.14 -376.78)"/><path class="cls-3" d="M510.73,791.62c-4.74.52-5.85,1.11-9,4.37s-6.89,7.7-11.63,13.4l7.93,18.45c2.44,5.77,3.25,6.21,8.36,6.81l-.59,2.52h-21.7l.59-2.52,1.71-.3c2.81-.44,3.13-1.18,2.22-3.62-.74-2.16-1.63-4.6-5.41-13.63-4.36,5.62-7.33,9.62-9.63,13.18-1.77,2.67-1.56,3.4,1.34,4.07l1.4.3-.66,2.52H458.48l.66-2.52c4.15-.45,5.93-1.33,8.45-3.92s8.88-10.07,14.22-16.73l-7.05-16.89c-1.78-4.37-2.74-5-7.41-5.48l.67-2.52h19.77l-.58,2.52-1.78.37c-1.86.44-2.07,1-1.63,2.29,1,2.67,2.74,7,5,12,3.18-3.91,6.26-8.07,8.37-11.11,1.41-2.15.78-2.89-1.48-3.26l-1.78-.29.59-2.52h16.81Z" transform="translate(-204.14 -376.78)"/><path class="cls-3" d="M556.43,791.62c-4.75.52-5.71,1.33-9.71,6.22-2.74,3.55-6.36,8.89-10.81,15.48a16,16,0,0,0-2,4.52L532,827.23c-1.26,6.08-.52,7,5.85,7.41l-.67,2.52H513.76l.68-2.52c5.77-.45,6.59-1.18,7.92-7.41l1.85-8.61a8.07,8.07,0,0,0-.3-5.11c-1.25-3.63-2.81-8.45-5.25-15.66-1.86-5.33-2.6-5.85-7-6.26l.73-2.52h19.41l-.6,2.52-2,.44c-2.16.37-2.3,1.19-1.57,3.63,1.33,4.45,3.34,10.37,5.41,16.22,3.26-4.89,7.7-11.62,10.18-15.92,1.56-2.67,1.26-3.49-1.86-4.08l-1.63-.22.79-2.59h16.59Z" transform="translate(-204.14 -376.78)"/><path class="cls-3" d="M598.71,790.28c-11.18,14.52-22.22,28.59-33.4,43.33a61,61,0,0,0,9.26.44c6.07,0,10.17-.51,12.52-2.51,1.86-1.57,3.78-4.07,5.93-8.22l2.67,1.11c-.89,2.81-3.63,10.73-4.6,12.74H552.28l-.6-1.48c11.26-14.3,22.3-28.52,33.78-43.48h-8.55c-7.41,0-8.9,1-10.3,2.45-1.19,1.25-2.52,3.18-4,7l-2.74-.29c1.19-4.52,2.35-10.37,3.13-14.15h1.93c.78,1.71,1.57,1.86,3.55,1.86h29.57Z" transform="translate(-204.14 -376.78)"/><path class="cls-3" d="M1209.88,460.12c-5.85-4.79-8.51-10.12-8.52-12.54,0-1.7,1-3.35,7.45-2.09l3.76.73v-.14a44.61,44.61,0,0,1-7.65-7c-1.78-2.12-3.64-5-3.66-7.58,0-2.85,3.11-5,8.65-5a25.41,25.41,0,0,1,18.17,7.73c2.93,3.25,6.37,9.35,6.4,15.25A28,28,0,0,1,1234,454a17.84,17.84,0,0,0-.48,4.12l-.28.43c-6.2-1.48-13.81-3.13-22.21-4.58-2.13-.35-2.77-.21-2.77.22,0,.64,1.79,3.12,3.44,4.68Zm8.38-13c3.56.83,9.54,2.15,11.68,2.5a9.25,9.25,0,0,0,1-4.13,5.24,5.24,0,0,0-.94-3.13c-3.29-4.49-12.18-6.7-18.3-6.67-2.77,0-4,.58-4,1.52C1207.71,439.73,1215.71,446,1218.26,447.15Z" transform="translate(-204.14 -376.78)"/><path class="cls-3" d="M1249.72,466.54c.82,7,2.62,11.51,2.63,12.93,0,.86-.92.93-2.35.58-8.18-1.88-16.22-3.62-24.7-5.57v.15c6.21,5.23,9.36,10.47,9.38,14.09s-3.46,5.85-8.72,5.88A25.62,25.62,0,0,1,1205.59,484a22.79,22.79,0,0,1-4.11-12,8.14,8.14,0,0,1,3.37-7.13c1.91-1.36,4.9-1.44,9.1-.68,9.68,1.87,18.81,3.82,29.68,6,3.13.69,3.7.41,3.83-2.15l.06-1.85Zm-43.59,12.3c2,2.69,10.27,6.64,18.45,6.6,3,0,4.4-.95,4.4-2,0-1.85-2.88-5.81-8.44-9.55a42.56,42.56,0,0,0-5.91-1.26c-8-1.38-9.59,1.4-9.58,3.39A4.63,4.63,0,0,0,1206.13,478.84Z" transform="translate(-204.14 -376.78)"/><path class="cls-3" d="M1209.9,522.18c-5.5-4.88-8.23-10.34-8.25-15,0-5.61,3.71-8.76,10.62-8.79a23.18,23.18,0,0,1,17.24,7.66c2.79,3.12,5.3,8.15,5.32,12.21,0,3.41-1.6,6.33-4.09,6.41-1.42,0-3.13-.83-4.42-3.1a1.36,1.36,0,0,1,.08-1.92,1.33,1.33,0,0,1,.19-.14c3.12-2.09,4.49-3.94,4.48-5.72,0-1.27-1-2.48-3.28-3.53a30.78,30.78,0,0,0-13.24-2.64c-5.26,0-7.25,1.74-7.23,4.54,0,3.06,3.09,7.09,4.59,8.66Z" transform="translate(-204.14 -376.78)"/><path class="cls-3" d="M1209.87,560.65c-5.71-4.66-8-10-8-12.25,0-1.71,1-3.21,6.81-2.1l4.7.9v-.14a49.26,49.26,0,0,1-8.5-8.14c-1.86-2.33-3.08-4.61-3.09-6.95,0-3.13,3-5.63,9-5.66,6.76,0,14.23,3.13,18.46,8.09,3,3.46,5.73,9.78,5.74,12.84a11.47,11.47,0,0,1-.47,3.91l9.78,1.87c3.06.63,3.48.13,3.54-3.22v-1.21l2.35.42c.68,7.18,2.62,11.72,2.62,13.14,0,.75-.56.93-2.48.44-13.66-3.06-25.91-5.42-38.65-7.7-2.2-.49-2.91-.42-2.91.15s1.22,2.56,3.15,4.5Zm9.47-12.56,10.24,2.09a7.7,7.7,0,0,0,2-5.13,4.14,4.14,0,0,0-.93-2.91c-3.23-4.32-13-6.55-18.31-6.52-2.77,0-4.19.87-4.19,2,0,2.85,7.09,8.28,11.15,10.46Z" transform="translate(-204.14 -376.78)"/><path class="cls-3" d="M1210.94,590.23c-6.71-6.37-8.94-11.83-9-16.74,0-4.19,2.22-8.76,10.62-8.8,6.62,0,13.81,2.94,18,8.18,2.27,2.9,4.58,7.72,4.6,11.57,0,5.11-2.8,7.47-6.14,7.49-7.26,0-10.87-11.11-12.82-18.21-.61-.05-1.23-.08-1.85-.07-3.63,0-6.67,1.39-6.65,5,0,2.7,2,6.81,5.23,10.13Zm20.24-11c-1.15-1.63-5.08-4.49-12.27-5.27,2.39,7.59,5.39,10.13,9.23,10.11,2.77,0,3.75-1.79,3.74-2.71a4.16,4.16,0,0,0-.73-2.13Z" transform="translate(-204.14 -376.78)"/><path class="cls-3" d="M1234,602.06c5.84,1.39,9.83,3.07,13.19,6.47,3.93,4,5.87,8.64,5.88,11.49,0,3.48-2,5.21-3.73,5.14a5.48,5.48,0,0,1-4.07-2.61,1.45,1.45,0,0,1,.21-1.92c2.33-1.93,3.74-3.57,3.73-4.86s-1.15-2.69-15.16-4.9l0,8.27-2.85-1.49-.61-7.39c-6.48-1.18-12.67-2.08-20.71-4-11.74-2.73-16.42-5.89-20.6-10.86-2.5-3-3.72-5.67-3.73-7.8,0-2.35,1.54-4.78,3.39-4.79a6,6,0,0,1,4.06,2.55c.43.56.51,1,.15,1.5a10.2,10.2,0,0,0-2.46,5.56,2.39,2.39,0,0,0,1.79,2.34c1,.35,3.49,1.12,14.73,2.94,9.78,1.59,16.29,2.55,23.31,3.72l0-5.74.71-.36,2.71,2.4Z" transform="translate(-204.14 -376.78)"/><path class="cls-3" d="M1233.63,650.58c-2.78-2.62-3.78-4.61-4.08-6.1-.07-.29-.07-.64-.15-1.14a13.44,13.44,0,0,1-3.34.45,12.81,12.81,0,0,1-9.86-4.89c-1.79-2.13-3.38-5.67-4.57-10.64a1.84,1.84,0,0,0-1.28-.75c-.85,0-1.85,1.36-3.46,4.78-3.59,7.77-6.42,10.56-9.83,10.57-6.33,0-11.29-10.61-11.33-18.57,0-7.61,3.42-13.38,7.83-13.4,3.49,0,6.35,4.72,9.44,11.4.92-1.51,2.33-2.58,3.61-2.51,1.57,0,3,1.62,5.08,5.38,1-5.13,4.16-7.27,8.49-7.29A14.27,14.27,0,0,1,1231.8,624a19.5,19.5,0,0,1,3.61,10.36,11.18,11.18,0,0,1-2,6.77c.09,4.62,1,7.51,1.75,8.66Zm-40-15.48c1.57,0,2.91-1.08,4.68-4.15a62.61,62.61,0,0,0,3.3-6.48c-1.51-2.56-4.07-4.89-6.56-4.88-3.34,0-5.88,4-5.86,8.3C1189.25,632.49,1191.25,635.11,1193.63,635.1Zm33.49.48c3.06,0,5.54-.78,5.53-3,0-2-2.27-3.61-4.57-4.53a22.3,22.3,0,0,0-8.68-1.73c-2.84,0-4.76,1-4.75,2.87,0,3,5.11,6.37,12.51,6.34Z" transform="translate(-204.14 -376.78)"/><path class="cls-3" d="M1209.9,682.44c-5.07-5-7.44-9.49-7.45-12.19,0-2.21,1.9-3.43,8-2.1l15,3.41c2.7.55,3.76.19,3.75-.66,0-2.26-5.29-7.58-10.71-11-3.71-.83-10.68-2.15-14.52-2.77a63.18,63.18,0,0,0-1.61-8.31l.64-.5c13.45,2.85,26.62,5.48,41.56,8.11,3.27.62,3.56-.09,3.74-3.07l.07-1.43,2.26.49c.61,7.32,2.62,11.79,2.62,13,0,.92-.56,1.07-2.55.72l-27-5.48v.14c5.21,4.17,8.14,7.64,9.93,10.48a14,14,0,0,1,2,5.82c0,1.84-1,4.83-10.58,2.68L1212.21,677c-2.2-.48-2.92-.27-2.91.24a11.3,11.3,0,0,0,2.65,4.1Z" transform="translate(-204.14 -376.78)"/><path class="cls-3" d="M1210.43,702.84c-5.57-5-7.88-10.34-7.89-12.47s1.41-3.64,7.67-2.17l16,3.62c1.77.34,2.49.41,2.48,0,0-.64-1.22-2.63-2.5-4.33l2-1c4.78,5.1,7.57,10.34,7.58,12.91,0,2.06-2.76,2.43-7,1.45l-16.51-4c-2.06-.48-2.78-.27-2.77.23s1,2.48,2.86,4.54Zm35.19.76a5.53,5.53,0,0,1-5.57-5.38c0-2.49,1.62-3.92,4.39-4a5.41,5.41,0,0,1,5.36,5.37c0,2.7-2,4-4.18,4Z" transform="translate(-204.14 -376.78)"/><path class="cls-3" d="M1228.15,707c4.21,4.31,7.65,10.21,7.67,13.12,0,2.2-2.48,2.43-8.31,1.39-4.7-.73-10.25-1.87-20.85-4-6.91-1.39-12.68-4.06-16.9-9.94-3.15-4.32-3.87-6.39-3.88-8s1-3.56,2.83-3.57c1.5,0,3.42,1.41,4.28,2.47a.92.92,0,0,1,.16,1.27,1.14,1.14,0,0,1-.16.15c-1.06,1.43-2.11,3.21-2.11,4.56,0,1.07.65,1.7,4.64,2.61,9.25,2,17.58,3.47,30.09,5.68,2.48.48,3.27.41,3.26-.08,0-.75-1.65-3.48-2.65-4.61ZM1246,724a5.4,5.4,0,0,1-5.57-5.17c0-2.55,1.62-4.2,4.39-4.21a5.4,5.4,0,0,1,5.36,5.38A3.91,3.91,0,0,1,1246,724Z" transform="translate(-204.14 -376.78)"/><path class="cls-3" d="M1209.78,758.91c-5.42-3.89-6.94-7.72-7-9.78s1.55-3.7,5-5.22c3.33-1.36,7.59-3,11.92-4.39a20.13,20.13,0,0,0-2.93-2.19c-5.41-1-9.25-1.8-12.59-2.36a54.2,54.2,0,0,0-1.54-8.09l.42-.57c13.6,3,26.69,5.76,41.78,8.75,3,.62,3.48.41,3.68-2.51l.06-1.85,2.35.49c.68,6.76,2.62,11.72,2.62,13,0,.85-.63.93-2.2.58-10.18-2.21-19.56-4.24-29.68-6.47v.14a81.75,81.75,0,0,1,6,5.59c3.93,4,8.14,7.92,8.16,11.69,0,2.06-1.11,3.71-2.68,3.72a6.31,6.31,0,0,1-3.91-1.83,1.35,1.35,0,0,1-.58-1.43,7.93,7.93,0,0,0,.73-3.56c0-2.34-1.66-5.11-3.73-6.8-2.41.76-5.32,1.8-8.8,3.24-5.46,2.28-8,3.53-8,4.73,0,.75.76,2.13,2.65,3.74Z" transform="translate(-204.14 -376.78)"/><path class="cls-3" d="M1210.36,777.06c-5-4.66-7.44-9.84-7.45-12.33,0-2,1.48-3.42,9.3-1.82,10.67,2.08,21.42,4.23,32.1,6.32,3.76.73,4.26.47,4.5-2.38l.2-2.06,2.13.42c.61,6.89,2.69,11.79,2.7,13,0,.92-.71,1.07-2.7.65l-38.86-7.7c-2-.42-2.77-.28-2.77.15s1.3,2.84,2.87,4.61Z" transform="translate(-204.14 -376.78)"/><path class="cls-3" d="M1210.85,833.09c-5.29-4.74-7.66-9.85-7.67-12.12s1.49-3.57,7.17-2.24l15.73,3.68c2.57.55,3.91.4,3.91-.38,0-2.13-7.08-8.5-11.57-11-4.2-1-9.11-2-13.74-2.85a48,48,0,0,0-1.6-8.31l.7-.58c7,1.68,14,3.36,20.44,4.81,4.12.84,5.76.73,5.75-.24,0-2.34-7.65-8.92-11.71-11-3.71-1.12-9-2.21-13.67-3.13a51.75,51.75,0,0,0-1.6-8.17l.75-.5c7.61,2,15,3.62,23.2,5.43,1.71.35,2.35.27,2.42-.23,0-.7-1.58-3.05-2.87-4.39l2.06-.93c4.72,4.67,7.57,9.34,7.58,12.11,0,2.42-2.62,2.72-8.31,1.4l-4.27-1v.13c6.21,4.67,9.64,9,10.93,11a9.84,9.84,0,0,1,1.73,5c0,2-1,4.52-10.43,2.62L1224,812v.17c6.21,4.67,9.37,8.63,10.72,11a9.65,9.65,0,0,1,1.59,4.76c0,1.91-1,4.62-10.72,2.47L1212,827.4c-1.64-.34-2.21-.13-2.2.3,0,.64,1.57,2.84,2.93,4.25Z" transform="translate(-204.14 -376.78)"/><path class="cls-3" d="M1123.72,461.73c-5.57-5.3-7.66-9.63-7.67-12.19,0-2,1.48-3.56,7.6-2.1,5,1.12,9.89,2.21,14.8,3.34,3.63.84,4.34.34,4.41-.38,0-2.25-7.44-8.78-11.85-11.17-3.85-1-8.91-2.09-13.46-2.94a43.1,43.1,0,0,0-1.58-8.05l.71-.58c7.19,1.75,14.8,3.48,23.13,5.22,2.13.49,2.7.42,2.7,0,0-.64-1.44-3.19-2.86-4.54l2.13-1c4.85,4.88,7.36,9.35,7.37,12.05,0,2.06-2.11,3-9,1.46l-3.55-.73v.14a45.18,45.18,0,0,1,10.24,10.23,10.81,10.81,0,0,1,2.28,5.89c0,2.42-1.33,4.7-10.94,2.54-4.13-.9-8.47-1.88-12.79-2.85-1.77-.42-2.55-.34-2.55.23s1.43,2.69,2.94,4.32Z" transform="translate(-204.14 -376.78)"/><path class="cls-3" d="M1127.86,466c9.24,0,16,5.12,18.84,10.51a20.41,20.41,0,0,1,2.67,9.29c0,7-4.5,10.55-11.32,10.58-6.19,0-12.79-2.28-17.17-7.43a19.69,19.69,0,0,1-4.68-12.23C1116.16,468.26,1122.39,466,1127.86,466Zm-8.1,15.33c1.08,2.69,8.56,5.93,18.66,5.88,5.47,0,7.81-1.82,7.8-4.16a4.34,4.34,0,0,0-.37-1.78c-.86-1.85-7-6.08-18.58-6-5.48,0-7.88,2.17-7.87,4.3a4.57,4.57,0,0,0,.36,1.78Z" transform="translate(-204.14 -376.78)"/><path class="cls-3" d="M1148.71,515.67a24.63,24.63,0,0,1,.78,6.39c0,7.47-3.79,10.61-10.61,10.65a22.07,22.07,0,0,1-14.25-5.83,28.26,28.26,0,0,1-8.33-13.83,9.5,9.5,0,0,1,.63-3.62l-8.69-1.67c-3.48-.62-4.2-.12-4.61,3.5l-.12,1.51-2.43-.42-.95-19.33,2.36.48c.87,4.13,1.73,5.05,6,6,11.89,2.43,23.28,4.71,34.66,6.94a33.11,33.11,0,0,0-2.37-5.47l2.2-.72a34.35,34.35,0,0,1,3.52,6.88l3.06.77a32.11,32.11,0,0,1,5.23,8.36l-.5.76Zm-26.83-5.13c-.92.64-2.34,2.21-2.24,3.49,0,3.91,10,9.55,18.95,9.51,5.76,0,7.17-2.81,7.16-5.66a9.6,9.6,0,0,0-.52-3Z" transform="translate(-204.14 -376.78)"/><path class="cls-3" d="M1101.41,566l-1-18.83,2.35.48.29,1.13c.76,2.85,1.37,3.7,5.85,4.6l18.36,3.61v-.15a54,54,0,0,1-6.85-6.5c-2.15-2.48-4-5.53-4-8.25,0-3.48,3.67-5.56,8.8-5.59a24.64,24.64,0,0,1,18.29,8.25,29.56,29.56,0,0,1,5.46,10.85,21.19,21.19,0,0,1,.66,4.62,51.36,51.36,0,0,1-1,7.61l-.21,1.21c-4.34-1.12-10-2.16-15.66-3.12l-23.4-3.94c-4.42-.73-5.12-.19-5.4,2.37l-.2,1.92Zm43.15-14.15c-3.57-4-11.3-6.13-17.09-6.1-3.2,0-4.62,1-4.61,2.16,0,2.56,5.94,7.65,9.29,9.48,3.2.74,8.75,2,12.88,2.57a7.13,7.13,0,0,0,1.12-4,5.74,5.74,0,0,0-1.59-4.12Z" transform="translate(-204.14 -376.78)"/><path class="cls-3" d="M1138.4,585.1c6.34,3.32,11.48,6.92,11.49,10a4.16,4.16,0,0,1-1.83,3.42c-1.27.93-2.91.73-4.51-.27a13.82,13.82,0,0,1-2.93-2.47c-.57-.71-.57-1.27-.15-1.78a4.86,4.86,0,0,0,1.34-2.91c0-.72-.22-1.43-2.15-2.84a28.89,28.89,0,0,0-7.84-3.95c-3.76-.9-9.82-2-13.59-2.63a43.88,43.88,0,0,0-1.55-8.1l.71-.57c7.33,1.74,14.66,3.27,22.27,4.66,2.26.41,3.35.4,3.35-.16a12.76,12.76,0,0,0-2.59-4.26l2-1.14c4.21,4.17,7.44,9,7.45,11.69,0,2.13-2.33,2.79-8.26,1.61l-3.2-.62Z" transform="translate(-204.14 -376.78)"/><path class="cls-3" d="M1122.53,597.48a5,5,0,0,1,4.07,2.33c.75,1.28.65,1.92-.13,2.56-3.12,2.57-5.24,5.78-5.22,8.2,0,1.78,1,3.12,2.57,3.12s2.7-.94,5.31-4.54c2.24-3.21,4.8-7.2,9.28-7.22,2.56,0,5.19,1,7.91,4.47,2.08,2.62,3.66,5.88,3.67,8.72,0,3.84-2.17,6.56-4.66,6.57a4.79,4.79,0,0,1-3.92-2.4c-.57-.92-.51-1.56.13-2.06,2.06-1.51,4.11-3.72,4.09-6.42,0-1.78-1.08-2.77-2.5-2.69-1.85,0-3.74,2.27-5.52,5-2.68,4.07-5.23,6.92-9.07,6.94-6.47,0-11.7-8.21-11.73-14.22C1116.81,601.78,1119.19,597.57,1122.53,597.48Z" transform="translate(-204.14 -376.78)"/><path class="cls-3" d="M1145.8,645.65l-.38-6.61-17.87-3.61c-3.13-.63-4.19-.34-4.19.37,0,1,2,4,3.73,5.81l-1.85,1.15c-3.77-2.76-8.31-9.13-8.33-13.11,0-2.56,2.48-4.21,10.09-2.61l18.36,3.89,0-5.12.7-.36,2.72,2,0,4.19,6.55,1.54,5.23,8.24-.64.92-11.1-2.44,0,7.76Z" transform="translate(-204.14 -376.78)"/><path class="cls-3" d="M1125.08,681.92c-5.71-5.23-7.94-9.73-8-12.26s2.55-3.08,7.25-2c1.43.35,3.06.7,4.41,1v-.15c-6.21-4.66-9.21-8.84-10.29-10.69a9.92,9.92,0,0,1-1.45-4.89c0-2.21,1.33-4.91,10.3-2.9,4.34,1,8.61,1.95,13,3,2.36.48,2.85.34,3.2.06,0-.65-1.57-2.63-2.86-4.33l2.13-.94c4.36,4.54,7.37,9.5,7.38,12.27,0,2.06-1.77,2.78-7.31,1.54-4.91-1-10-2.16-14.88-3.34-3.2-.7-4.51-.41-4.51.58,0,3.28,8.15,9.21,10.79,10.62,4.63,1,9.47,2.08,14,3l2,7.88v.92c-7.19-1.74-14.73-3.48-23-5.07-2.49-.42-3.21-.41-3.21.08s1.44,2.84,3.15,4.5Z" transform="translate(-204.14 -376.78)"/><path class="cls-3" d="M1126.66,701c4.36,3.46,10.5,8,15.33,8a7,7,0,0,0,3.48-.94,2.53,2.53,0,0,1,1.63,0,4.47,4.47,0,0,1,3.37,4.32c0,2.06-1.77,3.77-4.61,3.78-2.25,0-4.83-1-9.62-4.57-5.77-4.31-14.77-11.2-19-15.12v-2.85c5.69-.45,17.41-1.5,22.54-2.24,3-.51,4-.87,4-1.3s-1.29-2.2-3.14-3.89l1.91-1.37c4.57,3.39,7.86,7.65,7.87,10.49,0,2.56-2.9,3.71-8.65,4.31-5,.45-11.66,1-15.07,1.21Z" transform="translate(-204.14 -376.78)"/><path class="cls-3" d="M1127.19,751.24c3.5,2.54,10.49,7.27,14.9,7.25a8.3,8.3,0,0,0,3.69-.87,2.64,2.64,0,0,1,2.2.06,4.37,4.37,0,0,1,2.73,3.74c0,2.14-1.9,3.93-4.67,3.94-2.36,0-4.63-1.12-7.27-2.73-3.56-2.24-16.41-11.59-21.27-15.4v-2.9c6.4-.89,13-1.91,19.19-2.87v-.14c-6.14-3.73-13.27-7.76-19.26-11.63l0-2.78c6.19-.31,18.34-1,22.82-1.61,2.25-.3,3.48-.59,3.48-1.09s-.76-1.84-2.93-3.74l1.76-1.29c4.64,3.25,8,7.78,8,10.63,0,2.34-2.4,3.35-8.44,3.66-5.33.31-9.39.33-12.87.28v.14c6.35,3.52,13.19,7.55,20.35,11.28v2.56c-7.88,1.32-15.13,2.2-22.38,3.38Z" transform="translate(-204.14 -376.78)"/><path class="cls-3" d="M1142.07,768.73c5.49,3.73,8.71,7.63,8.72,10.33,0,2.26-2.4,3.43-6.87,4.94l-3.33,1.09c7.77,5.36,10.27,8,10.29,11.11,0,2.42-1.83,3.56-3.89,3.5a4.27,4.27,0,0,1-4.08-3.68,2,2,0,0,1,.74-1.35,2.2,2.2,0,0,0,.85-1.71c0-.71-.5-1.56-1.79-2.83a38,38,0,0,0-5-4l-9.08,2.89c-2.91.87-4.4,1.72-4.39,2.65s1.14,2.34,4.14,4.81l-1.77,1.51c-6.6-4.17-8.88-8.14-8.89-10.84,0-2.42,2-4,6.87-5.51L1130,780c-8.93-5.43-12.34-8.05-12.36-11.74a3.75,3.75,0,0,1,3.72-3.79h.32c2.63.05,4.27,2,4.28,3.53a2.36,2.36,0,0,1-.7,1.36,2.32,2.32,0,0,0-.75,1.71c0,1.56,3.15,4.39,8.64,7.92l6.32-1.88c4.18-1.3,4.69-1.94,4.68-2.66s-.93-1.91-3.78-4.1Z" transform="translate(-204.14 -376.78)"/><path class="cls-3" d="M1125.53,818.93c5.57,3.6,11.85,7.55,16.82,7.44a9.7,9.7,0,0,0,3.84-1,2.85,2.85,0,0,1,2.49.27,4.48,4.48,0,0,1,2.36,3.75c0,1.84-1.55,3.69-4.75,3.78-2.06.08-4.69-.69-8-2.74-5.49-3.24-11.41-7.34-17.26-11.36a208.53,208.53,0,0,1-17.53-13.24l-2.3-9.37,1.92-.65c4.8,7.37,8.32,11.77,13.44,15.72a146.12,146.12,0,0,0,24.09-2.68c2.48-.5,3.19-1.08,3.19-1.51s-1-1.77-3.64-3.83l1.9-1.51c5,3,8.79,7.13,8.8,10.19,0,2.57-2.54,4.14-9.57,5-5.83.78-10.09,1.19-15.85,1.58Z" transform="translate(-204.14 -376.78)"/><path class="cls-3" d="M1150.5,865c-1.51-1.34-3.86-3.11-6-5.23-6-5.58-13.65-13.8-17-17.34a15.19,15.19,0,0,1-1.11,5.77,16.6,16.6,0,0,0-1.18,5.48c0,1.77,1.15,3.83,5.79,7.15l-1.49,1.93c-9.54-4.29-12.21-7.69-12.23-11,0-2.42,2-6,3.3-9,1.48-3.21,1.33-4.35.4-5.55a11.85,11.85,0,0,0-2.42-2c-.43-.28-.72-.64-.66-1,.43-1.28,3.19-2.43,8.28,2.59,4.07,4,11.65,12.6,17.87,18.82a15,15,0,0,1-.38-4.9c.06-1.71.26-3.63.26-5.19,0-3.84-1.8-5.4-5.16-7.49l1.28-2.14a56.57,56.57,0,0,1,6.78,3.52c2.85,1.91,4.22,3.82,4.23,5.74a29.39,29.39,0,0,1-.76,6.34,36.88,36.88,0,0,0-.89,7.11c0,1.2,1.08,3.19,2.79,5Z" transform="translate(-204.14 -376.78)"/></svg>