<svg id="Layer_1" data-name="Layer 1" xmlns="http://www.w3.org/2000/svg" viewBox="0 0 266.46 41.4"><defs><style>.cls-1{fill:#231f20;}</style></defs><path class="cls-1" d="M292.82,247.78c-.3-5.64-.66-12.42-.6-17.46H292c-1.38,4.74-3.06,9.78-5.1,15.36L279.8,265.3h-4L269.3,246c-1.92-5.7-3.54-10.92-4.68-15.72h-.12c-.12,5-.42,11.82-.78,17.88l-1.08,17.34h-5l2.82-40.44h6.66l6.9,19.56c1.68,5,3.06,9.42,4.08,13.62h.18c1-4.08,2.46-8.52,4.26-13.62l7.2-19.56h6.66l2.52,40.44h-5.1Z" transform="translate(-257.66 -224.8)"/><path class="cls-1" d="M313.4,228.34a3.27,3.27,0,0,1-6.54,0,3.22,3.22,0,0,1,3.3-3.3A3.13,3.13,0,0,1,313.4,228.34Zm-5.88,37.2v-29h5.28v29Z" transform="translate(-257.66 -224.8)"/><path class="cls-1" d="M321.56,244.36c0-3-.06-5.46-.24-7.86H326l.3,4.8h.12a10.68,10.68,0,0,1,9.6-5.46c4,0,10.26,2.4,10.26,12.36v17.34H341V248.8c0-4.68-1.74-8.58-6.72-8.58a7.5,7.5,0,0,0-7.08,5.4,7.59,7.59,0,0,0-.36,2.46v17.46h-5.28Z" transform="translate(-257.66 -224.8)"/><path class="cls-1" d="M360.74,228.34a3.27,3.27,0,0,1-6.54,0,3.22,3.22,0,0,1,3.3-3.3A3.13,3.13,0,0,1,360.74,228.34Zm-5.88,37.2v-29h5.28v29Z" transform="translate(-257.66 -224.8)"/><path class="cls-1" d="M395.18,250.78c0,10.74-7.44,15.42-14.46,15.42-7.86,0-13.92-5.76-13.92-14.94,0-9.72,6.36-15.42,14.4-15.42C389.54,235.84,395.18,241.9,395.18,250.78Zm-23,.3c0,6.36,3.66,11.16,8.82,11.16s8.82-4.74,8.82-11.28c0-4.92-2.46-11.16-8.7-11.16S372.14,245.56,372.14,251.08Z" transform="translate(-257.66 -224.8)"/><path class="cls-1" d="M401.84,244.36c0-3-.06-5.46-.24-7.86h4.68l.3,4.8h.12a10.68,10.68,0,0,1,9.6-5.46c4,0,10.26,2.4,10.26,12.36v17.34h-5.28V248.8c0-4.68-1.74-8.58-6.72-8.58a7.5,7.5,0,0,0-7.08,5.4,7.59,7.59,0,0,0-.36,2.46v17.46h-5.28Z" transform="translate(-257.66 -224.8)"/><path class="cls-1" d="M448,225.58a60.5,60.5,0,0,1,10-.78c5.16,0,8.94,1.2,11.34,3.36a10.87,10.87,0,0,1,3.54,8.46,11.9,11.9,0,0,1-3.12,8.64c-2.76,2.94-7.26,4.44-12.36,4.44a18,18,0,0,1-4.2-.36v16.2H448Zm5.22,19.5a17.51,17.51,0,0,0,4.32.42c6.3,0,10.14-3.06,10.14-8.64,0-5.34-3.78-7.92-9.54-7.92a21.91,21.91,0,0,0-4.92.42Z" transform="translate(-257.66 -224.8)"/><path class="cls-1" d="M478.82,245.56c0-3.42-.06-6.36-.24-9.06h4.62l.18,5.7h.24c1.32-3.9,4.5-6.36,8-6.36a5.71,5.71,0,0,1,1.5.18v5a7.93,7.93,0,0,0-1.8-.18c-3.72,0-6.36,2.82-7.08,6.78a14.86,14.86,0,0,0-.24,2.46v15.48h-5.22Z" transform="translate(-257.66 -224.8)"/><path class="cls-1" d="M524.12,250.78c0,10.74-7.44,15.42-14.46,15.42-7.86,0-13.92-5.76-13.92-14.94,0-9.72,6.36-15.42,14.4-15.42C518.48,235.84,524.12,241.9,524.12,250.78Zm-23,.3c0,6.36,3.66,11.16,8.82,11.16s8.82-4.74,8.82-11.28c0-4.92-2.46-11.16-8.7-11.16S501.08,245.56,501.08,251.08Z" transform="translate(-257.66 -224.8)"/></svg>